<svg xmlns="http://www.w3.org/2000/svg" width="453" height="413" fill="none"><g clip-path="url(#a)"><path fill="#24CCA7" d="M404.5 0h-33.9c-11.046 0-20 8.954-20 20v33.9c0 11.046 8.954 20 20 20h33.9c11.046 0 20-8.954 20-20V20c0-11.046-8.954-20-20-20Z"/><path fill="#fff" d="M388.7 11.9c1.4 0 2.5 1.1 2.5 2.5v1.3c3.4.4 6.4 1.5 9.1 3.2.9.5 1.8 1.4 1.8 2.8 0 1.8-1.5 3.2-3.3 3.2-.6 0-1.2-.2-1.8-.5-2-1.2-4-2.1-6-2.6V33c8.9 2.2 12.7 5.8 12.7 12 0 6.4-5 10.7-12.4 11.4v3.5c0 1.4-1.1 2.5-2.5 2.5s-2.6-1.1-2.6-2.5v-3.6c-4.4-.5-8.4-2-12-4.6-1-.6-1.6-1.6-1.6-2.8 0-1.8 1.4-3.2 3.2-3.2.7 0 1.4.2 1.9.6 2.7 2 5.4 3.3 8.6 3.9V38.8c-8.5-2.2-12.5-5.4-12.5-12 0-6.3 5-10.6 12.3-11.2v-1.2c.1-1.4 1.2-2.5 2.6-2.5Zm-2.3 19.9V21.4c-3.7.4-5.6 2.3-5.6 4.9 0 2.5 1.1 4 5.6 5.5Zm4.6 8.1v10.6c3.7-.4 5.8-2.3 5.8-5.1 0-2.5-1.3-4.1-5.8-5.5Z"/><path fill="#FFD8D0" d="M94 251.5c.5-12.5.3-25-.5-37.5-1.7-25.7-5.9-51.3-11.7-76.4-3.3-14.1-7.3-28-11.5-41.9-.1-.4-.8-.3-.7.1 13 48.9 23.6 99.4 22.9 150.2-.2 14.2-1.9 28.2-3.2 42.3 0 .4.6.5.7.1 2.7-11.8 3.5-24.5 4-36.9Z"/><path fill="#FFD8D0" d="M69.6 95.9s-19.7 50-15.3 61.7c4.4 11.7 13.5 14.2 13.5 14.2s-12 17.2-3.6 33.3c8.4 16.1 27.1 15.4 28.4 33.6-.1.1 1-76.3-23-142.8Z"/><path fill="#263238" d="M90.4 207.3v-.3c-2.8-34-8.8-67.8-19.1-100.5 0-.1-.2-.1-.2 0 3.9 14.6 7.4 29.3 10.3 44.1-2.6-2.6-5.9-4.1-9.4-5.2-.1 0-.1.1 0 .1 3.6 1.6 7.1 3.4 9.7 6.5.6 2.9 1.1 5.8 1.7 8.7-4.4-4.9-10.5-7.4-16.6-9.7-.1 0-.1.1 0 .1 6.4 2.6 12.7 5.9 17 11.4 1.5 8.3 2.8 16.6 4 25-3.2-3.4-7.2-5.6-11.7-6.7-.1 0-.2.2-.1.2 4.7 1.3 8.7 4 11.9 7.6l.1.1c.4 2.9.8 5.9 1.1 8.8-2.5-2.1-5.2-3.7-8.2-5-.1 0-.1.1 0 .1 3.1 1.3 5.8 3.2 8.2 5.5h.1c.3 2.8.7 5.6.9 8.4-4.5-5.4-10.1-9.4-16.7-11.9-.1 0-.2.1-.1.2 6.4 2.8 12.1 7.2 16.4 12.7.1.1.3.2.4.1.4 4.3.8 8.6 1.1 12.9 0 .1.1.1.1 0-.2-4.4-.5-8.8-.9-13.2Z"/><path fill="#263238" d="M74.6 140.4c-3.4-2.3-7.8-3.3-11.8-3.7-.1 0-.1.1 0 .2 4.2.6 7.8 2.2 11.7 3.8.1.1.2-.2.1-.3ZM77 193.3c-2.7-1.6-5.8-2.5-8.9-3-.1 0-.1.1 0 .2 3.1.6 5.9 1.7 8.8 3.1.1 0 .2-.2.1-.3Z"/><path fill="#FFD8D0" d="M145.8 158.4c-8.2 5.8-16.1 12.4-22.8 19.9-7.1 8-12.3 17-16 27.1-7.4 20.6-11.5 42.9-11.9 64.8-.2 12.3.9 24.4 3.5 36.4.1.4.7.3.7-.1-3.2-21.1-3.1-42.6.4-63.7 3.4-20.7 8.7-43.1 21.8-59.9 7.2-9.1 16.1-16.3 24.9-23.8.5-.4-.1-1-.6-.7Z"/><path fill="#FFD8D0" d="M98 255.3s6.8-11.4 16.6-21.2c9.8-9.8 18.1-16.8 19.4-23.3 1.3-6.5-9.9-11.3-9.9-11.3s13.6 2.4 17.4-3.3c3.7-5.7 5.5-38.8 5.5-38.8s-24.8 17.7-36.3 42.5C99.2 224.7 98 255.3 98 255.3Z"/><path fill="#263238" d="M138.5 165.9c-10.4 10.2-20.9 21.2-27.1 34.6-2.1 4.6-3.9 9.4-5.5 14.3-.3 1-.6 2-.9 2.9 0 0 0 .1-.1.2-3 10-5.2 20.4-7 30.6 0 .1.1.1.1 0 1.1-5.2 2.2-10.4 3.6-15.6h.1c2.1-.9 4.2-1.4 6.5-1.7.1 0 .1-.3 0-.3-2.2.1-4.3.5-6.4 1.2 1.2-4.7 2.5-9.4 4-14 4.8-1.2 9.8-1.8 14.7-1.9.1 0 .1-.1 0-.1-5-.2-9.6.2-14.5 1.2.3-.8.5-1.6.8-2.4 3.2-.7 6.5-1.4 9.8-1.7.1 0 .1-.1 0-.1-3.2.1-6.4.4-9.6 1.2 1.3-4 2.8-7.9 4.4-11.8 1.3-3.2 2.9-6.2 4.7-9.1 2.6-.6 5.2-1.2 7.9-1.4.1 0 .1-.1 0-.1-2.5-.2-5 0-7.4.7 1.3-2.1 2.7-4.2 4.1-6.2 5.6-1.2 11.2-2.4 16.9-1.3.1 0 .1-.1 0-.2-5.4-1.4-10.8-.6-16.2.5.6-.8 1.2-1.6 1.8-2.3 3.4-1.1 6.8-1.6 10.4-1.6.1 0 .1-.1 0-.1-3.3-.3-6.5 0-9.7.9 4.6-5.7 9.7-11.1 14.7-16.4.3-.1.1-.3-.1 0Z"/><path fill="#263238" d="M138.2 188.4c-1.6-.2-3.3-.4-4.9-.2-.2 0-.2.3 0 .4 1.6 0 3.3-.1 4.9 0 .1 0 .1-.2 0-.2ZM120.4 220.6c-2.6 0-5.2.7-7.6 1.5-.1 0 0 .1 0 .1 2.5-.6 5.1-.8 7.6-1.3.2 0 .2-.3 0-.3ZM115 209.5c-1.1-.1-2.2.1-3.2.3-.1 0-.1.2 0 .2 1.1 0 2.2 0 3.3-.2.1 0 .1-.3-.1-.3Z"/><path fill="#FFD8D0" d="M25.4 193.6c8 2.8 15.9 6.3 23 10.8 7.6 4.8 13.9 10.9 19.2 18.2 10.8 14.9 19.2 32.1 24.6 49.7 3 9.9 4.9 20 5.6 30.3 0 .4-.5.4-.6.1-2.3-17.8-7.4-35.2-15-51.5-7.5-15.9-17-32.9-31.5-43.5-7.9-5.7-16.8-9.5-25.6-13.5-.5-.1-.2-.8.3-.6Z"/><path fill="#FFD8D0" d="M86.4 261s-8.1-7.6-18.3-13.3c-10.2-5.7-18.6-9.4-21.1-14.4s5.4-11.4 5.4-11.4-10.5 5.1-14.8 1.4c-4.3-3.8-13.4-30.1-13.4-30.1s24.1 8.6 39.2 26c15 17.2 23 41.8 23 41.8Z"/><path fill="#263238" d="M85.2 255.5c-12.1-22.7-28.2-43.2-50.3-56.7 5.8 3.7 11.2 8 16.2 12.6-4.5-.1-9 .6-13 2.7-.1 0 0 .2.1.1 4.4-1.5 8.7-2.5 13.4-2.3.1 0 .1 0 .2-.1.8.7 1.6 1.5 2.3 2.3-2.3.1-4.7.4-6.9.9-.1 0 0 .1 0 .1 2.5-.5 4.8-.6 7.3-.6 4 4.1 7.8 8.4 11.4 12.9-1.6-.2-3.3-.1-4.9.4-.1 0-.1.2 0 .2 1.8-.2 3.4-.2 5.2-.1.7.8 1.3 1.7 2 2.5-5-.3-9.8.2-14.7 1.4-.1 0-.1.1 0 .1 5-1 10-1.3 15.1-1 .6.8 1.2 1.7 1.8 2.5-3-.1-5.8.3-8.7 1-.1 0-.1.2 0 .2 3-.7 6-.8 9-.7 2.6 3.6 5.1 7.2 7.5 10.9-1.3-.3-2.6-.1-3.8.2-.1 0 0 .1 0 .1 1.4-.2 2.7 0 4.1.2 2.2 3.3 4.2 6.7 6.2 10.1.2.6.6.4.5.1Z"/><path fill="#263238" d="M66.4 236.7c-2.4-.2-4.8.2-7 .9-.1 0 0 .1 0 .1 2.3-.4 4.6-.6 7-.7.1 0 .1-.3 0-.3ZM45.3 209.1c-1.1-.1-2.2 0-3.2.2-.1 0-.1.2 0 .2 1.1-.1 2.1-.1 3.2-.1.2 0 .2-.3 0-.3Z"/><path fill="#455A64" d="M117.6 336.3H63.1l7.7-56.9 2-14.6h35l2 14.6 7.8 56.9Z"/><path fill="#263238" d="M109.8 279.4h-39l2-14.6h35l2 14.6Z"/><path fill="#455A64" d="M112.8 259.7h-45v12.4h45v-12.4Z"/><path fill="#EBEBEB" d="M115 50.8H88.5V62H115V50.8ZM100.2 64.9H73.7v11.2h26.5V64.9Z"/><path fill="#4A56E2" d="M235.7 412.6c109.352 0 198-12.76 198-28.5s-88.648-28.5-198-28.5-198 12.76-198 28.5 88.648 28.5 198 28.5Z"/><path fill="#263238" d="M326.2 22.7v322c0 9.5-7.6 17.2-16.9 17.2H142.8c-9.3 0-16.9-7.7-16.9-17.2v-322c0-9.5 7.6-17.2 16.9-17.2h166.6c9.2.1 16.8 7.8 16.8 17.2Z"/><path fill="#fff" d="M315.7 38.9v295.3c0 9-6.8 16.3-15.1 16.3h-149c-8.4 0-15.1-7.3-15.1-16.3V38.9c0-18.4 6.8-22.5 15.1-22.5h29.8c1.7 0 3.1 2 3.1 4.4v1.1c0 5.7 3.1 5.8 7 5.8h69c3.9 0 7 0 7-5.8v-1.1c0-2.4 1.4-4.4 3.1-4.4h29.9c8.4.1 15.2 5.7 15.2 22.5Z"/><path fill="#fff" d="M235.5 20.5h-18.8c-.6 0-1.2-.5-1.2-1.2 0-.6.5-1.2 1.2-1.2h18.8c.6 0 1.2.5 1.2 1.2-.1.7-.6 1.2-1.2 1.2Z"/><path fill="#4A56E2" d="m297.3 147.8.2 79.9c0 4.5-3.6 8.1-8.1 8.1l-126.7.3c-4.5 0-8.1-3.6-8.1-8.1l-.2-79.9c0-4.2 3.3-7.5 7.5-7.5l127.8-.3c4.2 0 7.6 3.4 7.6 7.5Z"/><path fill="#37474F" d="M276.827 217.563a7.4 7.4 0 1 0-14.652-2.086 7.4 7.4 0 0 0 14.652 2.086Z"/><path fill="#FFC727" d="M286.1 216.5c0 4.1-3.3 7.4-7.4 7.5-4.1 0-7.4-3.3-7.5-7.4 0-4.1 3.3-7.4 7.4-7.5 4.1 0 7.5 3.3 7.5 7.4ZM189.1 172.9h-18.4c-2.3 0-4.2-1.9-4.2-4.2v-10.1c0-2.3 1.9-4.2 4.2-4.2h18.4c2.3 0 4.2 1.9 4.2 4.2v10.1c0 2.3-1.9 4.1-4.2 4.2Z"/><path fill="#fff" d="M280.8 164.2h-12.1c-2.8 0-5.1-2.3-5.1-5.1s2.3-5.1 5.1-5.1h12.1c2.8 0 5.1 2.3 5.1 5.1 0 2.9-2.2 5.1-5.1 5.1Z"/><path fill="#F8F8F8" d="m165.6 189.8-1.1.6h-.1c-.1 0-.2-.1-.2-.1-.1-.1 0-.3.1-.4l1.5-.9c.1-.1.3 0 .4.1v7.3c0 .1-.1.3-.3.3-.1 0-.3-.1-.3-.3v-6.6ZM168 196.3l3.6-3.3c.4-.4.7-.9.7-1.5 0-.5-.2-1-.5-1.3-.4-.4-.9-.7-1.5-.7-.5 0-1 .2-1.4.5l-.4.3c-.1.1-.3.1-.4 0-.1-.1-.1-.3 0-.4l.4-.4c.5-.4 1.1-.7 1.7-.7.7 0 1.4.3 1.9.8s.7 1.1.7 1.7c0 .7-.3 1.4-.8 1.9l-3.1 2.8h3.7c.1 0 .3.1.3.3 0 .1-.1.3-.3.3h-4.3c-.1 0-.2 0-.2-.1-.2.1-.2-.1-.1-.2ZM179.3 189.5l-2 2.1c.5.1 1 .3 1.3.7.5.5.8 1.2.8 1.9a2.732 2.732 0 0 1-2.7 2.7c-.7 0-1.3-.3-1.9-.8-.1-.1-.1-.3 0-.4.1-.1.3-.1.4 0 .4.4.9.6 1.5.6.5 0 1.1-.2 1.5-.6.4-.4.6-.9.6-1.5 0-.5-.2-1.1-.6-1.5-.4-.4-.9-.6-1.5-.6-.1 0-.2 0-.2-.1-.1-.1-.1-.3 0-.4l1.9-2h-3c-.2 0-.3-.1-.3-.3 0-.2.1-.3.3-.3h3.6c.2 0 .3.1.3.3.1 0 0 .1 0 .2 0 0 0-.1 0 0ZM185.8 195.2h-4.2c-.1 0-.1 0-.2-.1s-.1-.3 0-.4l4.5-5.6c.1-.1.3-.1.4 0l.1.1v5.3h.5c.2 0 .3.1.3.3 0 .1-.1.3-.3.3h-.5v1.3c0 .1-.1.3-.3.3-.1 0-.3-.1-.3-.3v-1.2Zm0-.6V190l-3.7 4.6h3.7ZM195.6 196c-.1-.1-.1-.3 0-.4.1-.1.3-.1.4 0 .4.4.9.6 1.5.6.5 0 1.1-.2 1.5-.6.4-.4.6-.9.6-1.5 0-.5-.2-1.1-.6-1.5-.4-.4-.9-.6-1.5-.6-.5 0-1.1.2-1.5.6-.1.1-.3.1-.4 0l-.1-.1v-.2l.4-3.1c0-.1 0-.2.1-.2 0 0 .1-.1.2-.1h3.6c.2 0 .3.1.3.3 0 .2-.1.3-.3.3h-3.4l-.3 2.3c.4-.2.9-.4 1.3-.4.7 0 1.3.2 1.9.8.5.5.8 1.2.8 1.9s-.2 1.4-.8 1.9c-.5.5-1.2.8-1.9.8-.6-.1-1.3-.3-1.8-.8ZM203 190.6c.5-.9 1.4-1.6 2.7-1.7.1 0 .3.1.3.3 0 .2-.1.3-.3.3-1.1 0-1.8.6-2.3 1.4-.3.5-.4 1-.6 1.6.5-.5 1.2-.9 1.9-.9 1.4 0 2.6 1.1 2.6 2.6 0 1.4-1.1 2.6-2.6 2.6-1.4 0-2.5-1.1-2.6-2.5v-.5c.1-1.1.3-2.2.9-3.2Zm-.2 3.6v.2c.1 1 1 1.8 2 1.8 1.1 0 2-.9 2-2s-.9-2-2.1-2c-1-.1-1.9.8-1.9 2ZM210.2 196.3l2.9-6.8h-3.8c-.1 0-.3-.1-.3-.3 0-.1.1-.3.3-.3h4.3c.1 0 .1.1.1.2v.2l-3 7.2c0 .1-.1.2-.2.2h-.1c-.2-.1-.2-.3-.2-.4ZM217.9 188.9c.9 0 1.6.7 1.6 1.6 0 .5-.3 1-.7 1.3.9.4 1.6 1.3 1.6 2.3 0 1.4-1.1 2.5-2.5 2.5s-2.5-1.1-2.5-2.5c0-1 .6-2 1.6-2.3-.4-.3-.6-.8-.6-1.3-.1-.9.6-1.6 1.5-1.6Zm0 7.2c1.1 0 2-.9 2-2s-.9-2-2-2-2 .9-2 2c0 1.2.9 2 2 2Zm0-4.5c.6 0 1.1-.5 1.1-1.1 0-.6-.5-1.1-1.1-1.1-.6 0-1.1.5-1.1 1.1 0 .6.5 1.1 1.1 1.1ZM231.7 188.9c1.3 0 2.4 1 2.6 2.3V192c0 1-.2 2.2-.7 3.1-.5.9-1.4 1.6-2.7 1.7-.2 0-.3-.1-.3-.3 0-.2.1-.3.3-.3 1.1 0 1.8-.6 2.3-1.4.3-.5.5-1 .6-1.6-.5.5-1.2.9-1.9.9-1.4 0-2.6-1.1-2.6-2.6-.1-1.5 1-2.6 2.4-2.6Zm2.1 2.5c0-1.1-.9-2-2-2s-2 .9-2 2 .9 2 2 2 2-.9 2-2ZM236.3 192.7c0-1 .3-2 .7-2.7.5-.7 1.2-1.2 1.9-1.2.8 0 1.5.5 1.9 1.2.5.7.8 1.7.8 2.7 0 1-.3 2-.7 2.7-.5.7-1.2 1.2-1.9 1.2-.8 0-1.5-.5-1.9-1.2-.5-.7-.8-1.6-.8-2.7Zm.5 0c0 1 .3 1.8.7 2.4.4.6.9.9 1.5.9s1.1-.3 1.5-.9c.4-.6.7-1.5.7-2.4 0-1-.3-1.8-.7-2.4-.4-.6-.9-.9-1.5-.9s-1.1.3-1.5.9c-.4.6-.7 1.5-.7 2.4ZM245.3 189.6l-1.1.6h-.1c-.1 0-.2-.1-.2-.1-.1-.1 0-.3.1-.4l1.5-.9c.1-.1.3 0 .4.1v7.3c0 .1-.1.3-.3.3-.1 0-.3-.1-.3-.3v-6.6ZM247.7 196.1l3.6-3.3c.4-.4.7-.9.7-1.5 0-.5-.2-1-.5-1.3-.4-.4-.9-.7-1.5-.7-.5 0-1 .2-1.4.5l-.4.3c-.1.1-.3.1-.4 0-.1-.1-.1-.3 0-.4l.4-.4c.5-.4 1.1-.7 1.7-.7.7 0 1.4.3 1.9.8s.7 1.1.7 1.7c0 .7-.3 1.4-.8 1.9l-3.1 2.8h3.7c.1 0 .3.1.3.3 0 .1-.1.3-.3.3H248c-.1 0-.2 0-.2-.1-.2.1-.2-.1-.1-.2ZM265.6 189.3l-2 2.1c.5.1 1 .3 1.3.7.5.5.8 1.2.8 1.9a2.732 2.732 0 0 1-2.7 2.7c-.7 0-1.3-.3-1.9-.8-.1-.1-.1-.3 0-.4.1-.1.3-.1.4 0 .4.4.9.6 1.5.6.5 0 1.1-.2 1.5-.6.4-.4.6-.9.6-1.5 0-.5-.2-1.1-.6-1.5-.4-.4-.9-.6-1.5-.6-.1 0-.2 0-.2-.1-.1-.1-.1-.3 0-.4l1.9-2h-3c-.2 0-.3-.1-.3-.3 0-.2.1-.3.3-.3h3.6c.2 0 .3.1.3.3.1 0 .1 0 0 .2.1-.1.1-.1 0 0ZM272.2 194.9H268c-.1 0-.1 0-.2-.1s-.1-.3 0-.4l4.5-5.6c.1-.1.3-.1.4 0l.1.1v5.3h.5c.2 0 .3.1.3.3 0 .1-.1.3-.3.3h-.5v1.3c0 .1-.1.3-.3.3-.1 0-.3-.1-.3-.3v-1.2Zm0-.5v-4.6l-3.7 4.6h3.7ZM275.3 195.8c-.1-.1-.1-.3 0-.4.1-.1.3-.1.4 0 .4.4.9.6 1.5.6.5 0 1.1-.2 1.5-.6.4-.4.6-.9.6-1.5 0-.5-.2-1.1-.6-1.5-.4-.4-.9-.6-1.5-.6-.5 0-1.1.2-1.5.6-.1.1-.3.1-.4 0l-.1-.1v-.2l.4-3.1c0-.1 0-.2.1-.2 0 0 .1-.1.2-.1h3.6c.2 0 .3.1.3.3 0 .2-.1.3-.3.3h-3.4l-.3 2.3c.4-.2.9-.4 1.3-.4.7 0 1.3.2 1.9.8.5.5.8 1.2.8 1.9s-.2 1.4-.8 1.9c-.5.5-1.2.8-1.9.8-.6-.1-1.3-.3-1.8-.8ZM282.7 190.4c.5-.9 1.4-1.6 2.7-1.7.1 0 .3.1.3.3 0 .2-.1.3-.3.3-1.1 0-1.8.6-2.3 1.4-.3.5-.4 1-.6 1.6.5-.5 1.2-.9 1.9-.9 1.4 0 2.6 1.1 2.6 2.6 0 1.4-1.1 2.6-2.6 2.6-1.4 0-2.5-1.1-2.6-2.5v-.5c.1-1.1.3-2.3.9-3.2Zm-.2 3.6v.2c.1 1 1 1.8 2 1.8 1.1 0 2-.9 2-2s-.9-2-2.1-2c-1-.1-1.9.8-1.9 2Z"/><path fill="#263238" d="m234.496 210.012-67.9.177.009 3.3 67.9-.177-.009-3.3ZM214.596 217.439l-48 .124.009 3.3 48-.124-.009-3.3ZM258.897 154.157l-33.8.087.008 3.3 33.8-.087-.008-3.3ZM155.5 124.4c0-.1.1-.3.3-.3h2c1.1 0 2.1.9 2.1 2.1 0 1.1-.9 2.1-2.1 2.1H156v2.9c0 .1-.1.3-.3.3-.1 0-.3-.1-.3-.3v-6.8h.1Zm2.3 3.5c.9 0 1.6-.7 1.6-1.6 0-.9-.7-1.6-1.6-1.6H156v3.2h1.8ZM165.8 126.6v4.6c0 .1-.1.3-.3.3-.1 0-.3-.1-.3-.3v-.8c-.4.6-1.1 1-1.9 1-1.3 0-2.4-1.2-2.4-2.6 0-1.4 1.1-2.6 2.4-2.6.8 0 1.5.4 1.9 1v-.8c0-.1.1-.3.3-.3.2.3.3.4.3.5Zm-.5 2.3c0-1.1-.9-2.1-1.9-2.1-1 0-1.9.9-1.9 2.1 0 1.1.9 2.1 1.9 2.1 1 0 1.9-.9 1.9-2.1ZM167.9 126.6c0-.1.1-.2.2-.2s.3.1.3.2v2.8c0 .9.7 1.6 1.6 1.6.9 0 1.6-.7 1.6-1.6v-2.9l.1-.1s.1 0 .1.1l.1.1v4.6c0 1.3-1.1 2.4-2.4 2.4-.4 0-.7-.1-1.1-.2-.1-.1-.2-.2-.1-.3.1-.1.2-.2.3-.1.3.1.5.2.8.2 1.1 0 1.9-.8 1.9-1.9v-.3c-.4.4-.9.7-1.6.7-1.1 0-2.1-.9-2.1-2.1v-3h.3ZM181.7 128.5c0-.9-.7-1.6-1.6-1.6-.9 0-1.6.7-1.6 1.6v2.8c0 .1-.1.1-.1.1h-.2v-2.8c0-.9-.7-1.6-1.6-1.6-.9 0-1.6.7-1.6 1.6v2.8c0 .1 0 .2-.1.2h-.1c-.1 0-.2-.1-.2-.2v-4.8c0-.1.1-.2.2-.2s.3.1.3.2v.5c.4-.4.9-.7 1.6-.7.8 0 1.5.4 1.8 1.1.4-.6 1.1-1.1 1.8-1.1 1.1 0 2.1.9 2.1 2.1v2.8c0 .1-.1.2-.3.2-.1 0-.2-.1-.2-.2v-2.8h-.2ZM184 129c0-1.4 1.1-2.6 2.5-2.6 1.3 0 2.4 1 2.5 2.4 0 .1-.1.2-.3.2h-4.2c.1 1.1.9 2 2 2 .7 0 1.3-.4 1.6-.9.1-.1.2-.1.3-.1.1.1.2.2.1.4-.4.7-1.2 1.2-2.1 1.2-1.3-.1-2.4-1.2-2.4-2.6Zm.5-.5h3.9c-.2-1-1-1.7-1.9-1.7-1 .1-1.8.8-2 1.7ZM194.4 128.5c0-.9-.7-1.6-1.6-1.6-.9 0-1.6.7-1.6 1.6v2.8s0 .1-.1.1c0 .1-.1.1-.2.1h-.1c-.1 0-.1-.1-.2-.1v-4.7c0-.1.1-.3.3-.3.1 0 .2.1.2.3v.5c.4-.4.9-.7 1.6-.7 1.1 0 2.1.9 2.1 2.1v2.8c0 .1-.1.3-.3.3-.1 0-.3-.1-.3-.3v-2.9h.2ZM198.9 126.6c0 .1-.1.3-.3.3h-.6v3.7c0 .3.3.4.4.4.1 0 .3.1.3.3 0 .1-.1.3-.3.3-.5 0-.9-.4-.9-.9V127h-.6c-.3 0-.3-.1-.3-.3 0-.1 0-.3.3-.3h.6v-1.9c0-.1.1-.3.3-.3.1 0 .3.1.3.3v1.9h.7s.1.1.1.2ZM211.7 128.5c0-.9-.7-1.6-1.6-1.6-.9 0-1.6.7-1.6 1.6v2.8c0 .1-.1.1-.1.1h-.2v-2.8c0-.9-.7-1.6-1.6-1.6-.9 0-1.6.7-1.6 1.6v2.8c0 .1 0 .2-.1.2h-.1c-.1 0-.2-.1-.2-.2v-4.8c0-.1.1-.2.2-.2s.3.1.3.2v.5c.4-.4.9-.7 1.6-.7.8 0 1.5.4 1.8 1.1.4-.6 1.1-1.1 1.8-1.1 1.1 0 2.1.9 2.1 2.1v2.8c0 .1-.1.2-.3.2-.1 0-.2-.1-.2-.2v-2.8h-.2ZM214 129c0-1.4 1.1-2.6 2.5-2.6 1.3 0 2.4 1 2.5 2.4 0 .1-.1.2-.3.2h-4.2c.1 1.1.9 2 2 2 .7 0 1.3-.4 1.6-.9.1-.1.2-.1.3-.1.1.1.2.2.1.4-.4.7-1.2 1.2-2.1 1.2-1.3-.1-2.4-1.2-2.4-2.6Zm.5-.5h3.9c-.2-1-1-1.7-1.9-1.7-1 .1-1.8.8-2 1.7ZM222.1 126.6c0 .1-.1.3-.3.3h-.7v3.7c0 .3.3.4.4.4.1 0 .3.1.3.3 0 .1-.1.3-.3.3-.5 0-.9-.4-.9-.9V127h-.6c-.3 0-.3-.1-.3-.3 0-.1 0-.3.3-.3h.6v-1.9c0-.1.1-.3.3-.3.1 0 .3.1.3.3v1.9h.7c.1 0 .2.1.2.2ZM228 128.4c0-.9-.7-1.5-1.6-1.5-.9 0-1.6.6-1.6 1.5v2.8c0 .1-.1.1-.2.1s-.1 0-.2-.1v-7c0-.1.1-.3.3-.3.1 0 .3.1.3.3v2.7c.4-.5 1-.8 1.6-.8 1.2 0 2.1.8 2.1 2v2.8c0 .1-.1.3-.3.3-.1 0-.2-.1-.2-.3v-2.5h-.2ZM232.9 126.4c1.3 0 2.4 1.2 2.4 2.6 0 1.4-1.1 2.6-2.4 2.6-1.3 0-2.4-1.2-2.4-2.6-.1-1.4 1-2.6 2.4-2.6Zm0 4.6c1 0 1.9-.9 1.9-2.1 0-1.1-.9-2.1-1.9-2.1-1 0-1.9.9-1.9 2.1-.1 1.2.8 2.1 1.9 2.1ZM241.3 130.5c-.4.6-1.2 1-2 1-1.4 0-2.5-1.1-2.5-2.5s1.1-2.6 2.5-2.6c.8 0 1.5.4 2 1v-2.9c0-.1.1-.3.3-.3.1 0 .2.1.2.3v6.8c0 .1-.1.3-.2.3s-.3-.1-.3-.3v-.8Zm0-1.5v-.2c0-1.1-.9-2-2-2s-2 .9-2 2.1c0 1.1.9 2 2 2 1.1.1 2-.8 2-1.9ZM157.4 75.5h-2.2c-.1 0-.3-.1-.3-.3 0-.1.1-.3.3-.3h4.9c.1 0 .3.1.3.3 0 .1-.1.3-.3.3h-2.2V82c0 .1-.1.3-.3.3-.1 0-.3-.1-.3-.3v-6.5h.1ZM162.9 77.2c1.3 0 2.4 1.2 2.4 2.6 0 1.4-1.1 2.6-2.4 2.6-1.3 0-2.4-1.2-2.4-2.6 0-1.4 1.1-2.6 2.4-2.6Zm0 4.6c1 0 1.9-.9 1.9-2.1 0-1.1-.9-2.1-1.9-2.1-1 0-1.9.9-1.9 2.1 0 1.2.9 2.1 1.9 2.1ZM168.9 77.5c0 .1-.1.3-.3.3h-.6v3.7c0 .3.3.4.4.4.1 0 .3.1.3.3 0 .1-.1.3-.3.3-.5 0-.9-.4-.9-.9v-3.7h-.6c-.3 0-.3-.1-.3-.3 0-.1 0-.3.3-.3h.6v-1.9c0-.1.1-.3.3-.3.1 0 .3.1.3.3v1.9h.7c-.1-.1.1.1.1.2ZM175.2 77.5v4.6c0 .1-.1.3-.3.3-.1 0-.3-.1-.3-.3v-.8c-.4.6-1.1 1-1.9 1-1.3 0-2.4-1.2-2.4-2.6 0-1.4 1.1-2.6 2.4-2.6.8 0 1.5.4 1.9 1v-.8c0-.1.1-.3.3-.3.2.2.3.3.3.5Zm-.5 2.3c0-1.1-.9-2.1-1.9-2.1-1 0-1.9.9-1.9 2.1 0 1.1.9 2.1 1.9 2.1 1.1-.1 1.9-1 1.9-2.1ZM177.6 75.3c0-.1.1-.3.3-.3.1 0 .3.1.3.3v6.8c0 .1-.1.3-.3.3-.1 0-.3-.1-.3-.3v-6.8ZM183.3 79.9V77.5c0-.1.1-.3.3-.3.1 0 .3.1.3.3v.7c.4-.6 1.1-1 1.9-1 1.4 0 2.5 1.1 2.5 2.5s-1.1 2.5-2.5 2.5c-.8 0-1.5-.4-1.9-1v2.9c0 .1-.1.3-.3.3-.1 0-.3-.1-.3-.3v-4.2Zm.5-.1c0 1.1.9 2 1.9 2 1.1 0 2-.9 2-2s-.9-2-2-2c-1-.1-1.8.8-1.9 2ZM190.2 77.5c0-.1.1-.3.3-.3.1 0 .2.1.2.3v1.1s0-.1.1-.1c.4-.6 1.1-1.3 2-1.3.1 0 .3.1.3.3 0 .1-.1.3-.3.3-.7 0-1.1.4-1.5.8-.3.5-.5 1-.6 1.2V82.1c0 .1-.1.3-.2.3s-.3-.1-.3-.3v-4.6ZM194.8 75.8c0-.1.1-.3.3-.3.1 0 .3.1.3.3v.2c0 .1-.1.3-.3.3-.1 0-.3-.1-.3-.3v-.2Zm0 1.7c0-.1.1-.3.3-.3.1 0 .3.1.3.3v4.6c0 .1-.1.3-.3.3-.1 0-.3-.1-.3-.3v-4.6ZM197.3 79.8c0-1.4 1.2-2.5 2.6-2.5.6 0 1.2.2 1.6.6.1.1.1.2 0 .3-.1.1-.2.1-.3 0-.4-.3-.8-.5-1.3-.5-1.2 0-2.1.9-2.1 2.1 0 1.1.9 2.1 2.1 2.1.5 0 1-.2 1.3-.4.1-.1.3-.1.3 0 .1.1.1.3-.1.4-.4.3-1 .5-1.6.5-1.3-.1-2.5-1.2-2.5-2.6ZM203.2 79.8c0-1.4 1.1-2.6 2.5-2.6 1.3 0 2.4 1 2.5 2.4 0 .1-.1.2-.3.2h-4.2c.1 1.1.9 2 2 2 .7 0 1.3-.4 1.6-.9.1-.1.2-.1.3-.1.1.1.2.2.1.4-.4.7-1.2 1.2-2.1 1.2-1.3-.1-2.4-1.2-2.4-2.6Zm.5-.4h3.9c-.2-1-1-1.7-1.9-1.7-1 0-1.8.7-2 1.7Z"/><path fill="#24CCA7" d="M161.5 89.1c.5 0 .9.4.9.9v.5c1.2.1 2.3.5 3.2 1.1.3.2.6.5.6 1 0 .6-.5 1.1-1.2 1.1-.2 0-.4-.1-.6-.2-.7-.4-1.4-.8-2.2-.9v4c3.2.8 4.5 2.1 4.5 4.3 0 2.3-1.8 3.8-4.5 4.1v1.3c0 .5-.4.9-.9.9s-.9-.4-.9-.9V105c-1.6-.2-3-.7-4.3-1.6-.4-.2-.6-.6-.6-1 0-.6.5-1.1 1.1-1.1.3 0 .5.1.7.2 1 .7 1.9 1.2 3.1 1.4v-4.1c-3.1-.8-4.5-1.9-4.5-4.3 0-2.2 1.8-3.8 4.4-4V90c.3-.5.7-.9 1.2-.9Zm-.9 7.1v-3.7c-1.3.1-2 .8-2 1.8 0 .9.4 1.4 2 1.9Zm1.7 2.9v3.8c1.3-.1 2.1-.8 2.1-1.8 0-.9-.5-1.5-2.1-2ZM178.8 100.1c0 2.7-2.2 5-5 5s-5-2.2-5-5c0-1.7.9-3.3 2.2-4.2-.4-.6-.7-1.3-.7-2.1 0-1.9 1.5-3.4 3.5-3.4 1.9 0 3.4 1.5 3.4 3.4 0 .8-.3 1.5-.7 2.1 1.4.9 2.3 2.4 2.3 4.2Zm-2.3 0c0-1.5-1.2-2.7-2.7-2.7-1.5 0-2.7 1.2-2.7 2.7 0 1.5 1.2 2.7 2.7 2.7 1.5 0 2.7-1.3 2.7-2.7Zm-3.9-6.3c0 .6.5 1.2 1.2 1.2.6 0 1.1-.5 1.1-1.2 0-.6-.5-1.1-1.1-1.1-.7 0-1.2.5-1.2 1.1ZM182.1 95.5c0-2.8 2.3-5.1 5.1-5.1 2.6 0 4.8 2 5 4.5v1.2c0 1.4-.2 2.9-.7 4.3-.5 1.4-1.4 2.7-2.7 3.6-.9.6-1.9.9-3.1 1-.6 0-1.2-.5-1.2-1.1 0-.6.5-1.1 1.1-1.2.8 0 1.4-.3 2-.6.5-.4 1-.8 1.3-1.5.1-.2.2-.4.3-.5-.6.3-1.3.4-2 .4-2.9 0-5.1-2.2-5.1-5Zm2.3 0c0 1.5 1.2 2.8 2.8 2.8 1.5 0 2.7-1.3 2.7-2.8 0-1.5-1.2-2.7-2.7-2.7-1.6-.1-2.8 1.1-2.8 2.7ZM195.5 106.9c1-.3 1.5-1 1.4-1.9-.6-.2-1.2-.7-1.2-1.4v-.2c0-.8.6-1.4 1.4-1.4.9 0 1.5.7 1.5 1.8v.2c0 1.4-.4 2.4-1 3.1-.6.5-1.4.9-2 .9-.4 0-.6-.3-.6-.6 0-.2.2-.4.5-.5ZM200.1 95.5c0-2.8 2.3-5.1 5.1-5.1 2.6 0 4.8 2 5 4.5v1.2c0 1.4-.2 2.9-.7 4.3-.5 1.4-1.4 2.7-2.7 3.6-.9.6-1.9.9-3.1 1-.6 0-1.2-.5-1.2-1.1 0-.6.5-1.1 1.1-1.2.8 0 1.4-.3 2-.6.5-.4 1-.8 1.3-1.5.1-.2.2-.4.3-.5-.6.3-1.3.4-2 .4-2.8 0-5.1-2.2-5.1-5Zm2.3 0c0 1.5 1.2 2.8 2.8 2.8 1.5 0 2.7-1.3 2.7-2.8 0-1.5-1.2-2.7-2.7-2.7-1.6-.1-2.8 1.1-2.8 2.7ZM213.5 95.5c0-2.8 2.3-5.1 5.1-5.1 2.6 0 4.8 2 5 4.5v1.2c0 1.4-.2 2.9-.7 4.3-.5 1.4-1.4 2.7-2.7 3.6-.9.6-1.9.9-3.1 1-.6 0-1.2-.5-1.2-1.1 0-.6.5-1.1 1.1-1.2.8 0 1.4-.3 2-.6.5-.4 1-.8 1.3-1.5.1-.2.2-.4.3-.5-.6.3-1.3.4-2 .4-2.8 0-5.1-2.2-5.1-5Zm2.3 0c0 1.5 1.2 2.8 2.8 2.8 1.5 0 2.7-1.3 2.7-2.8 0-1.5-1.2-2.7-2.7-2.7-1.6-.1-2.8 1.1-2.8 2.7Z"/><path fill="#263238" d="M190.9 47.4c0-.1.1-.3.3-.3h2c1.1 0 2.1.9 2.1 2.1 0 1.1-.9 2.1-2.1 2.1h-1.8v2.9c0 .1-.1.3-.3.3-.1 0-.3-.1-.3-.3v-6.8h.1Zm2.3 3.5c.9 0 1.6-.7 1.6-1.6 0-.9-.7-1.6-1.6-1.6h-1.8v3.2h1.8ZM201.1 49.6v4.6c0 .1-.1.3-.3.3-.1 0-.3-.1-.3-.3v-.8c-.4.6-1.1 1-1.9 1-1.3 0-2.4-1.2-2.4-2.6 0-1.4 1.1-2.6 2.4-2.6.8 0 1.5.4 1.9 1v-.8c0-.1.1-.3.3-.3.2.3.3.4.3.5Zm-.5 2.3c0-1.1-.9-2.1-1.9-2.1-1 0-1.9.9-1.9 2.1 0 1.1.9 2.1 1.9 2.1 1.1 0 1.9-.9 1.9-2.1ZM203.2 49.6c0-.1.1-.2.2-.2s.3.1.3.2v2.8c0 .9.7 1.6 1.6 1.6.9 0 1.6-.7 1.6-1.6v-2.9l.1-.1s.1 0 .1.1l.1.1v4.6c0 1.3-1.1 2.4-2.4 2.4-.4 0-.7-.1-1.1-.2-.1-.1-.2-.2-.1-.3.1-.1.2-.2.3-.1.3.1.5.2.8.2 1.1 0 1.9-.8 1.9-1.9V54c-.4.4-.9.7-1.6.7-1.1 0-2.1-.9-2.1-2.1v-3h.3ZM217.1 51.5c0-.9-.7-1.6-1.6-1.6-.9 0-1.6.7-1.6 1.6v2.8c0 .1-.1.1-.1.1h-.2v-2.8c0-.9-.7-1.6-1.6-1.6-.9 0-1.6.7-1.6 1.6v2.8c0 .1 0 .2-.1.2h-.1c-.1 0-.2-.1-.2-.2v-4.8c0-.1.1-.2.2-.2s.3.1.3.2v.5c.4-.4.9-.7 1.6-.7.8 0 1.5.4 1.8 1.1.4-.6 1.1-1.1 1.8-1.1 1.1 0 2.1.9 2.1 2.1v2.8c0 .1-.1.2-.3.2-.1 0-.2-.1-.2-.2v-2.8h-.2ZM219.3 51.9c0-1.4 1.1-2.6 2.5-2.6 1.3 0 2.4 1 2.5 2.4 0 .1-.1.2-.3.2h-4.2c.1 1.1.9 2 2 2 .7 0 1.3-.4 1.6-.9.1-.1.2-.1.3-.1.1.1.2.2.1.4-.4.7-1.2 1.2-2.1 1.2-1.3 0-2.4-1.2-2.4-2.6Zm.6-.4h3.9c-.2-1-1-1.7-1.9-1.7-1 .1-1.8.8-2 1.7ZM229.7 51.5c0-.9-.7-1.6-1.6-1.6-.9 0-1.6.7-1.6 1.6v2.8s0 .1-.1.1c0 .1-.1.1-.2.1h-.1c-.1 0-.1-.1-.2-.1v-4.7c0-.1.1-.3.3-.3.1 0 .2.1.2.3v.5c.4-.4.9-.7 1.6-.7 1.1 0 2.1.9 2.1 2.1v2.8c0 .1-.1.3-.3.3-.1 0-.2-.1-.2-.3v-2.9h.1ZM234.3 49.6c0 .1-.1.3-.3.3h-.7v3.7c0 .3.3.4.4.4.1 0 .3.1.3.3 0 .1-.1.3-.3.3-.5 0-.9-.4-.9-.9V50h-.6c-.2 0-.2-.1-.2-.3 0-.1 0-.3.2-.3h.6v-1.9c0-.1.1-.3.2-.3s.3.1.3.3v1.9h.7c.1 0 .3.1.3.2ZM240.2 54.5c-.2 0-.3-.1-.3-.3v-6.8c0-.1.1-.3.3-.3h1.3c2 0 3.7 1.6 3.7 3.7 0 2-1.6 3.6-3.7 3.6h-1.3v.1Zm1.3-.5c1.7 0 3.1-1.4 3.1-3.1 0-1.7-1.4-3.1-3.1-3.2h-1.1V54h1.1ZM250.6 49.6v4.6c0 .1-.1.3-.2.3s-.3-.1-.3-.3v-.8c-.4.6-1.1 1-1.9 1-1.3 0-2.4-1.2-2.4-2.6 0-1.4 1.1-2.6 2.4-2.6.8 0 1.5.4 1.9 1v-.8c0-.1.1-.3.3-.3.1.3.2.4.2.5Zm-.5 2.3c0-1.1-.9-2.1-1.9-2.1-1 0-1.9.9-1.9 2.1 0 1.1.9 2.1 1.9 2.1 1.1 0 1.9-.9 1.9-2.1ZM254.6 49.6c0 .1-.1.3-.3.3h-.7v3.7c0 .3.3.4.4.4.1 0 .3.1.3.3 0 .1-.1.3-.3.3-.5 0-.9-.4-.9-.9V50h-.6c-.2 0-.2-.1-.2-.3 0-.1 0-.3.2-.3h.6v-1.9c0-.1.1-.3.2-.3s.3.1.3.3v1.9h.7c.2 0 .3.1.3.2ZM261 49.6v4.6c0 .1-.1.3-.3.3-.1 0-.2-.1-.2-.3v-.8c-.4.6-1.1 1-1.9 1-1.3 0-2.4-1.2-2.4-2.6 0-1.4 1.1-2.6 2.4-2.6.8 0 1.5.4 1.9 1v-.8c0-.1.1-.3.2-.3.2.3.3.4.3.5Zm-.5 2.3c0-1.1-.9-2.1-1.9-2.1-1 0-1.9.9-1.9 2.1 0 1.1.9 2.1 1.9 2.1 1 0 1.9-.9 1.9-2.1Z"/><path fill="#4A56E2" d="m160.1 53.8-3.5-3.2 3.5-3.2.7.7-2.6 2.5 2.6 2.5-.7.7Z"/><path fill="#4A56E2" d="M159.5 56.2c-3.1 0-5.6-2.5-5.6-5.6 0-3.1 2.5-5.6 5.6-5.6 3.1 0 5.6 2.5 5.6 5.6 0 3.1-2.5 5.6-5.6 5.6Zm0-10.2c-2.5 0-4.6 2-4.6 4.6 0 2.5 2 4.6 4.6 4.6 2.5 0 4.6-2 4.6-4.6 0-2.5-2.1-4.6-4.6-4.6Z"/><path fill="#FFC727" d="M292.6 246.5c6.241 0 11.3-5.059 11.3-11.3 0-6.241-5.059-11.3-11.3-11.3-6.241 0-11.3 5.059-11.3 11.3 0 6.241 5.059 11.3 11.3 11.3Z"/><path fill="#fff" d="m289.3 242.4-4.2-6.5 1.8-1.2 2.6 4.2 8.3-10.4 1.6 1.3-10.1 12.6Z"/><path fill="#4A56E2" d="M229.3 247c0 1.8-1.5 3.3-3.3 3.3-1.8 0-3.3-1.5-3.3-3.3 0-1.8 1.5-3.3 3.3-3.3 1.8 0 3.3 1.5 3.3 3.3Z"/><path fill="#EBEBEB" d="M210.7 247c0 1.3-1.1 2.4-2.4 2.4-1.3 0-2.4-1.1-2.4-2.4 0-1.3 1.1-2.4 2.4-2.4 1.3 0 2.4 1.1 2.4 2.4ZM246.2 247c0 1.3-1.1 2.4-2.4 2.4-1.3 0-2.4-1.1-2.4-2.4 0-1.3 1.1-2.4 2.4-2.4 1.3 0 2.4 1.1 2.4 2.4Z"/><path fill="#263238" d="M155.2 270.2c.1-.1.2-.1.3 0 .5.4 1.5 1 2.4.9.6 0 1.2-.2 1.6-.5.4-.3.6-.7.6-1.1 0-.4-.2-.7-.6-1-.4-.3-1-.5-1.7-.6-.7-.1-1.3-.3-1.7-.6-.4-.3-.8-.7-.8-1.3 0-.6.3-1 .8-1.4.5-.3 1.1-.5 1.8-.5 1 0 1.7.5 2.3.8.1.1.1.2.1.3-.1.1-.2.1-.3.1-.6-.4-1.2-.8-2-.8-.6 0-1.1.2-1.5.4-.4.3-.6.6-.6 1s.2.6.5.9c.4.3.9.4 1.6.6.7.1 1.4.3 1.9.7.5.3.8.8.8 1.4 0 .6-.3 1.1-.8 1.5-.5.4-1.1.6-1.9.6-1.1 0-2.1-.6-2.7-1.1-.2 0-.2-.2-.1-.3ZM166.7 266.8v4.6c0 .1-.1.3-.3.3-.1 0-.3-.1-.3-.3v-.8c-.4.6-1.1 1-1.9 1-1.3 0-2.4-1.2-2.4-2.6 0-1.4 1.1-2.6 2.4-2.6.8 0 1.5.4 1.9 1v-.8c0-.1.1-.3.3-.3.1.2.3.3.3.5Zm-.5 2.3c0-1.1-.9-2.1-1.9-2.1-1 0-1.9.9-1.9 2.1 0 1.1.9 2.1 1.9 2.1 1-.1 1.9-1 1.9-2.1ZM170.3 271.6l-.1-.1-1.9-4.6c-.1-.1 0-.3.1-.3.1-.1.3 0 .3.1l1.7 4 1.7-4c0-.1.2-.2.3-.1.1.1.2.2.1.3l-1.9 4.5s0 .1-.1.1c0 .1-.1.1-.2.1.1 0 .1 0 0 0ZM174 269.1c0-1.4 1.1-2.6 2.5-2.6 1.3 0 2.4 1 2.5 2.4 0 .1-.1.2-.3.2h-4.2c.1 1.1.9 2 2 2 .7 0 1.3-.4 1.6-.9.1-.1.2-.1.3-.1.1.1.2.2.1.4-.4.7-1.2 1.2-2.1 1.2-1.3-.1-2.4-1.2-2.4-2.6Zm.6-.4h3.9c-.2-1-1-1.7-1.9-1.7-1.1 0-1.9.7-2 1.7ZM183.5 269c0-1.4 1.2-2.5 2.6-2.5.6 0 1.2.2 1.6.6.1.1.1.2 0 .3-.1.1-.2.1-.3 0-.4-.3-.8-.5-1.3-.5-1.2 0-2.1.9-2.1 2.1 0 1.1.9 2.1 2.1 2.1.5 0 1-.2 1.3-.4.1-.1.3-.1.3 0 .1.1.1.3-.1.4-.4.3-1 .5-1.6.5-1.3 0-2.5-1.1-2.5-2.6ZM194.1 266.8v4.6c0 .1-.1.3-.3.3-.1 0-.3-.1-.3-.3v-.8c-.4.6-1.1 1-1.9 1-1.3 0-2.4-1.2-2.4-2.6 0-1.4 1.1-2.6 2.4-2.6.8 0 1.5.4 1.9 1v-.8c0-.1.1-.3.3-.3.2.2.3.3.3.5Zm-.5 2.3c0-1.1-.9-2.1-1.9-2.1-1 0-1.9.9-1.9 2.1 0 1.1.9 2.1 1.9 2.1 1.1-.1 1.9-1 1.9-2.1ZM196.3 266.8c0-.1.1-.3.3-.3.1 0 .2.1.2.3v1.1s0-.1.1-.1c.4-.6 1.1-1.3 2-1.3.1 0 .3.1.3.3 0 .1-.1.2-.3.2-.7 0-1.1.4-1.5.8-.3.5-.5 1-.6 1.2V271.3c0 .1-.1.3-.2.3s-.3-.1-.3-.3v-4.5ZM204.7 270.6c-.4.6-1.2 1-2 1-1.4 0-2.5-1.1-2.5-2.5s1.1-2.6 2.5-2.6c.8 0 1.5.4 2 1v-2.9c0-.1.1-.2.3-.2.1 0 .3.1.3.2v6.8c0 .1-.1.3-.3.3-.1 0-.3-.1-.3-.3v-.8Zm0-1.4v-.2c0-1.1-.9-2-2-2s-2 .9-2 2.1c0 1.1.9 2 2 2s2-.9 2-1.9ZM214.3 268.6c0-.9-.7-1.6-1.6-1.6-.9 0-1.6.7-1.6 1.6v2.8s0 .1-.1.1c0 .1-.1.1-.2.1h-.1c-.1 0-.1-.1-.2-.1v-4.7c0-.1.1-.3.3-.3.1 0 .2.1.2.3v.5c.4-.4.9-.7 1.6-.7 1.1 0 2.1.9 2.1 2.1v2.8c0 .1-.1.3-.3.3-.1 0-.3-.1-.3-.3v-2.9h.2ZM217 266.7c0-.1.1-.2.3-.2.1 0 .3.1.3.2v2.8c0 .9.7 1.6 1.6 1.6.9 0 1.6-.7 1.6-1.6v-2.8c0-.1.1-.2.3-.2.1 0 .3.1.3.2v2.8c0 1.1-.9 2.1-2.1 2.1-1.1 0-2.1-.9-2.1-2.1v-2.8h-.2ZM230.8 268.6c0-.9-.7-1.6-1.6-1.6-.9 0-1.6.7-1.6 1.6v2.8c0 .1-.1.1-.1.1h-.2v-2.8c0-.9-.7-1.6-1.6-1.6-.9 0-1.6.7-1.6 1.6v2.8c0 .1 0 .2-.1.2h-.1c-.1 0-.2-.1-.2-.2v-4.8c0-.1.1-.2.2-.2s.3.1.3.2v.5c.4-.4.9-.7 1.6-.7.8 0 1.5.4 1.8 1.1.4-.6 1.1-1.1 1.8-1.1 1.1 0 2.1.9 2.1 2.1v2.8c0 .1-.1.2-.3.2-.1 0-.2-.1-.2-.2v-2.8h-.2ZM233.4 269.2V264.6c0-.1.1-.2.2-.2s.3.1.3.2v2.9c.4-.6 1.2-1 2-1 1.4 0 2.5 1.1 2.5 2.6 0 1.4-1.1 2.5-2.5 2.5-.8 0-1.5-.4-2-1v.7c0 .1-.1.3-.3.3-.1 0-.2-.1-.2-.3v-2.1Zm.5-.1c0 1.1.9 2 2 2s2-.9 2-2-.9-2.1-2-2.1-1.9.9-2 2.1ZM239.9 269.1c0-1.4 1.1-2.6 2.5-2.6 1.3 0 2.4 1 2.5 2.4 0 .1-.1.2-.3.2h-4.2c.1 1.1.9 2 2 2 .7 0 1.3-.4 1.6-.9.1-.1.2-.1.3-.1.1.1.2.2.1.4-.4.7-1.2 1.2-2.1 1.2-1.3-.1-2.4-1.2-2.4-2.6Zm.6-.4h3.9c-.2-1-1-1.7-1.9-1.7-1 0-1.8.7-2 1.7ZM246.4 266.8c0-.1.1-.3.3-.3.1 0 .2.1.2.3v1.1s0-.1.1-.1c.4-.6 1.1-1.3 2-1.3.1 0 .2.1.2.3 0 .1-.1.2-.2.2-.7 0-1.1.4-1.5.8-.3.5-.5 1-.6 1.2V271.3c0 .1-.1.3-.2.3s-.3-.1-.3-.3v-4.5Z"/><path fill="#4A56E2" d="M290.4 273.5h-14c-2.8 0-5.2-2.3-5.2-5.2v-.5c0-2.8 2.3-5.2 5.2-5.2h14c2.8 0 5.2 2.3 5.2 5.2v.5c-.1 2.9-2.4 5.2-5.2 5.2Z" opacity=".5"/><path fill="#4A56E2" d="M294.6 268.1c0 2.5-2 4.6-4.6 4.6-2.5 0-4.6-2-4.6-4.6 0-2.5 2-4.6 4.6-4.6 2.6 0 4.6 2.1 4.6 4.6Z"/><path fill="#24CCA7" d="M278.6 298.7H173.4a6 6 0 0 0-6 6v10.5a6 6 0 0 0 6 6h105.2a6 6 0 0 0 6-6v-10.5a6 6 0 0 0-6-6Z"/><path fill="#fff" d="M177.5 305.7c0-.1.1-.3.3-.3h2c1.1 0 2.1.9 2.1 2.1 0 1.2-.9 2.1-2.1 2.1H178v2.9c0 .1-.1.2-.3.2-.1 0-.3-.1-.3-.2v-6.8h.1Zm2.3 3.4c.9 0 1.6-.7 1.6-1.6 0-.9-.7-1.6-1.6-1.6H178v3.2h1.8ZM183.5 307.9c0-.1.1-.2.3-.2.1 0 .2.1.2.2v1.1s0-.1.1-.1c.4-.6 1.1-1.3 2-1.3.1 0 .3.1.3.2s-.1.3-.3.3c-.7 0-1.1.4-1.5.8-.3.5-.5 1-.6 1.2V312.4c0 .1-.1.2-.2.2s-.3-.1-.3-.2v-4.5ZM190 307.6c1.3 0 2.4 1.2 2.4 2.6 0 1.4-1.1 2.6-2.4 2.6-1.3 0-2.4-1.2-2.4-2.6-.1-1.4 1-2.6 2.4-2.6Zm0 4.6c1 0 1.9-.9 1.9-2.1 0-1.1-.9-2.1-1.9-2.1-1 0-1.9.9-1.9 2.1 0 1.2.8 2.1 1.9 2.1ZM194 310.2c0-1.4 1.2-2.5 2.6-2.5.6 0 1.2.2 1.6.6.1.1.1.2 0 .3-.1.1-.2.1-.3 0-.4-.3-.8-.5-1.3-.5-1.2 0-2.1.9-2.1 2.1 0 1.1.9 2.1 2.1 2.1.5 0 1-.2 1.3-.4.1-.1.3-.1.3 0 .1.1.1.3-.1.4-.4.3-1 .5-1.6.5-1.4-.1-2.5-1.2-2.5-2.6ZM199.8 310.2c0-1.4 1.1-2.6 2.5-2.6 1.3 0 2.4 1 2.5 2.4 0 .1-.1.2-.3.2h-4.2c.1 1.1.9 2 2 2 .7 0 1.3-.4 1.6-.9.1-.1.2-.1.3-.1.1.1.2.2.1.4-.4.7-1.2 1.2-2.1 1.2-1.3-.1-2.4-1.2-2.4-2.6Zm.5-.4h3.9c-.2-1-1-1.7-1.9-1.7-1 0-1.8.7-2 1.7ZM206.1 310.2c0-1.4 1.1-2.6 2.5-2.6 1.3 0 2.4 1 2.5 2.4 0 .1-.1.2-.3.2h-4.2c.1 1.1.9 2 2 2 .7 0 1.3-.4 1.6-.9.1-.1.2-.1.3-.1.1.1.2.2.1.4-.4.7-1.2 1.2-2.1 1.2-1.3-.1-2.4-1.2-2.4-2.6Zm.6-.4h3.9c-.2-1-1-1.7-1.9-1.7-1.1 0-1.9.7-2 1.7ZM216.9 311.7c-.4.6-1.2 1-2 1-1.4 0-2.5-1.1-2.5-2.5s1.1-2.6 2.5-2.6c.8 0 1.5.4 2 1v-2.9c0-.1.1-.3.3-.3.1 0 .3.1.3.3v6.8c0 .1-.1.2-.3.2-.1 0-.3-.1-.3-.2v-.8Zm0-1.4v-.2c0-1.1-.9-2-2-2s-2 .9-2 2.1c0 1.1.9 2 2 2s2-.9 2-1.9ZM224.7 307.9c0 .1-.1.3-.3.3h-.7v3.7c0 .3.3.4.4.4.1 0 .3.1.3.3 0 .1-.1.2-.3.2-.5 0-.9-.4-.9-.9v-3.7h-.6c-.3 0-.3-.1-.3-.3 0-.1 0-.3.3-.3h.6v-1.9c0-.1.1-.3.3-.3.1 0 .3.1.3.3v1.9h.7s.2.1.2.3ZM229.1 307.6c1.3 0 2.4 1.2 2.4 2.6 0 1.4-1.1 2.6-2.4 2.6-1.3 0-2.4-1.2-2.4-2.6 0-1.4 1-2.6 2.4-2.6Zm0 4.6c1 0 1.9-.9 1.9-2.1 0-1.1-.9-2.1-1.9-2.1-1 0-1.9.9-1.9 2.1 0 1.2.8 2.1 1.9 2.1ZM236.2 310.2c0-1.4 1.2-2.5 2.6-2.5.6 0 1.2.2 1.6.6.1.1.1.2 0 .3-.1.1-.2.1-.3 0-.4-.3-.8-.5-1.3-.5-1.2 0-2.1.9-2.1 2.1 0 1.1.9 2.1 2.1 2.1.5 0 1-.2 1.3-.4.1-.1.3-.1.3 0 .1.1.1.3-.1.4-.4.3-1 .5-1.6.5-1.3-.1-2.5-1.2-2.5-2.6ZM244.5 307.6c1.3 0 2.4 1.2 2.4 2.6 0 1.4-1.1 2.6-2.4 2.6-1.3 0-2.4-1.2-2.4-2.6 0-1.4 1.1-2.6 2.4-2.6Zm0 4.6c1 0 1.9-.9 1.9-2.1 0-1.1-.9-2.1-1.9-2.1-1 0-1.9.9-1.9 2.1 0 1.2.9 2.1 1.9 2.1ZM252.5 309.7c0-.9-.7-1.6-1.6-1.6-.9 0-1.6.7-1.6 1.6v2.8s0 .1-.1.1c0 .1-.1.1-.2.1h-.1c-.1 0-.1-.1-.2-.1v-4.7c0-.1.1-.2.2-.2s.2.1.2.2v.5c.4-.4.9-.7 1.6-.7 1.1 0 2.1.9 2.1 2.1v2.8c0 .1-.1.2-.3.2-.1 0-.2-.1-.2-.2v-2.9h.2ZM257.5 305.7c0 .1-.1.3-.2.3-.4 0-.5.1-.6.2-.1.1-.2.4-.2.8v.5h.7c.1 0 .3.1.3.2s-.1.3-.3.3h-.7v4.4c0 .1-.1.2-.3.2-.1 0-.3-.1-.3-.2V308h-.7c-.1 0-.3-.1-.3-.3 0-.1.1-.2.3-.2h.7v-.5c0-.5.1-.9.3-1.2.2-.3.6-.4 1-.4.2 0 .3.1.3.3ZM259.1 306.2c0-.1.1-.3.3-.3.1 0 .3.1.3.3v.2c0 .1-.1.3-.3.3-.1 0-.3-.1-.3-.3v-.2Zm0 1.7c0-.1.1-.3.3-.3.1 0 .3.1.3.3v4.6c0 .1-.1.2-.3.2-.1 0-.3-.1-.3-.2v-4.6ZM262 307.9c0-.1.1-.2.3-.2.1 0 .2.1.2.2v1.1s0-.1.1-.1c.4-.6 1.1-1.3 2-1.3.1 0 .2.1.2.2s-.1.3-.2.3c-.7 0-1.1.4-1.5.8-.3.5-.5 1-.6 1.2V312.4c0 .1-.1.2-.2.2s-.3-.1-.3-.2v-4.5ZM273.9 309.7c0-.9-.7-1.6-1.6-1.6-.9 0-1.6.7-1.6 1.6v2.8c0 .1-.1.1-.1.1h-.2v-2.8c0-.9-.7-1.6-1.6-1.6-.9 0-1.6.7-1.6 1.6v2.8c0 .1 0 .2-.1.2h-.1c-.1 0-.2-.1-.2-.2v-4.8c0-.1.1-.2.2-.2s.3.1.3.2v.5c.4-.4.9-.7 1.6-.7.8 0 1.5.4 1.8 1.1.4-.6 1.1-1.1 1.8-1.1 1.1 0 2.1.9 2.1 2.1v2.8c0 .1-.1.2-.3.2-.1 0-.2-.1-.2-.2v-2.8h-.2Z"/><path fill="#F7A9A0" d="M288.6 381.1c2.4.4 67.1-8.9 69.3-10.8.9-.7.1-10.2-1.3-21.7v-.4c-.3-2.4-8.5-41.5-8.5-41.5l-43.3 6.1 10 40.9.1.7s-23.2 14.6-25.4 17c-2.2 2.5-3.3 9.3-.9 9.7Z"/><path fill="#FFC727" d="M357.9 370.3c-2.2 1.9-66.9 11.3-69.3 10.8-2.4-.4-1.3-7.2.9-9.6 2.2-2.4 25.4-17 25.4-17l-.1-.7-1.1-4.7 41.9-6.3c.3 1.7 1 5.1 1 5.5v.4c1.4 11.4 2.2 20.9 1.3 21.6Z"/><path fill="#A6A6A6" d="M288.6 381.1c1.2.2 18.8-2.1 36-4.7 3.5-.5 6.9-1.1 10.2-1.6 12.2-1.9 22.3-3.8 23.2-4.5.9-.7.1-10-1.2-21.2 0-.2 0-.3-.1-.5v-.4l-41.8 5.5.1.7s-23.2 14.6-25.4 17c-2.3 2.5-3.4 9.3-1 9.7Z"/><path fill="#263238" d="M289 378.5c10.9-1.8 54.9-8.2 65.8-9.2.1 0 .1.1 0 .1-10.7 2.1-54.8 8.1-65.7 9.3-.3 0-.4-.1-.1-.2ZM310.2 354.6c4.2-1.4 9.5-1.5 13.2 1.1.1.1 0 .3-.1.3-4.4-.7-8.5-1-13-.8-.4 0-.4-.5-.1-.6ZM307.3 356.9c4.2-1.4 9.5-1.5 13.2 1.1.1.1 0 .3-.1.3-4.4-.7-8.5-1-13-.8-.3 0-.4-.5-.1-.6ZM304.5 359.3c4.2-1.4 9.5-1.5 13.2 1.1.1.1 0 .3-.1.3-4.4-.7-8.5-1-13-.8-.3-.1-.4-.5-.1-.6Z"/><path fill="#37474F" d="m308.6 346.6 48.7-6.7s-12.1-83-11.7-84.9c.5-2.5 29-118.9 29-118.9h-39.9s-32.8 108-34.1 118.4c-2.2 16.8 8 92.1 8 92.1Z"/><path fill="#263238" d="M310.8 336.7c8.3-1.7 38.6-5.3 41.9-5.2.1 0 .1.1 0 .1-3.2.9-29.2 4.5-41.9 5.3-.1 0-.1-.2 0-.2ZM365.4 145c-1 2.9-1.8 5.8-2.7 8.6-.9 2.9-1.7 5.8-2.5 8.7-1.7 5.7-3.3 11.5-4.9 17.2-3.3 11.6-6.4 23.2-9.5 34.9-1.5 5.8-3 11.5-4.5 17.3-1.5 5.8-3.1 11.6-4.4 17.4-.6 2.8-1 5.5-.9 8.4.2 2.9.7 5.7 1.2 8.6 1 5.9 1.9 11.9 2.9 17.8 1.9 12 4 24 6 36 .3 1.5.5 2.9.8 4.4 0 .1.2.1.2 0-1.6-11.9-3.6-23.8-5.5-35.7-.9-5.9-1.9-11.7-2.8-17.6-.5-3.1-1-6.1-1.5-9.2-.4-2.9-.7-5.9-.3-8.8.4-2.9 1.2-5.7 1.9-8.5.7-2.9 1.4-5.7 2.2-8.6 1.5-5.8 3-11.6 4.5-17.3 3-11.6 6.2-23.2 9.3-34.7l9.6-34.5c.4-1.4.8-2.8 1.2-4.3-.2-.1-.3-.2-.3-.1Z"/><path fill="#F7A9A0" d="M330.3 392c2.3.7 67.7-.5 70.1-2.1.9-.6 1.3-10.1 1.5-21.7v-.4c0-2.4-1.3-42.2-1.3-42.2l-42.7.7 1.9 41.9v.7s-24.8 11.7-27.3 13.7c-2.6 2.1-4.5 8.7-2.2 9.4Z"/><path fill="#FFC727" d="M402 363.3v5c-.1 11.5-.5 21.1-1.5 21.7-2.4 1.6-67.8 2.8-70.1 2.1-2.3-.7-.4-7.3 2.1-9.4 2.5-2.1 27.3-13.7 27.3-13.7v-.7l-.2-4.5c7.5-.2 29.1-.4 42.4-.5Z"/><path fill="#A6A6A6" d="M330.3 392c2.3.7 67.7-.5 70.1-2.1.9-.6 1.3-10.1 1.5-21.7v-.4l-42.2.3v.7s-24.8 11.7-27.3 13.7c-2.5 2.2-4.4 8.8-2.1 9.5Z"/><path fill="#263238" d="M331 389.4c11-.5 55.5-1.3 66.4-1 .1 0 .1.1 0 .1-10.9.7-55.4 1.2-66.4 1.1-.2 0-.2-.2 0-.2ZM355 368.4c4.3-.9 9.6-.3 13 2.7.1.1 0 .3-.2.3-4.3-1.3-8.3-2.1-12.8-2.4-.2-.1-.3-.6 0-.6Z"/><path fill="#263238" d="M352 370.3c4.3-.9 9.6-.3 13 2.7.1.1 0 .3-.2.3-4.3-1.3-8.3-2.1-12.8-2.4-.3-.1-.4-.5 0-.6Z"/><path fill="#263238" d="M348.9 372.2c4.3-.9 9.6-.3 13 2.7.1.1 0 .3-.2.3-4.3-1.3-8.3-2.1-12.8-2.4-.3 0-.4-.5 0-.6Z"/><path fill="#37474F" d="M335.8 136.1s.9 19.1 5.3 34.2c.3 1.3.7 2.5 1.1 3.7 0 0 1.7 0 8.7 4.2l5.8 182.9 47.1-.5s-7.5-96.9-7.5-103.1c.1-10-5.4-77.6-4.8-79.3 5.8-17.5-3.8-42.1-3.8-42.1h-51.9Z"/><path fill="#263238" d="M358.3 352.3c13.3-.8 39-1 42.2-.5.1 0 .1.1 0 .1-3.3.6-34.5 1.2-42.2.6-.1 0-.1-.1 0-.2ZM355.4 275.9c-.6-21-1.3-41.9-2.1-62.9-.5-11.8-1-23.6-1.7-35.5 0-.4-.7-.4-.6 0 .5 21.1 1.3 42.1 2 63.2.7 21 1.4 41.9 2.1 62.9.4 11.8.8 23.6 1.3 35.5 0 .2.3.2.3 0-.2-21.1-.7-42.1-1.3-63.2ZM392.2 305.2c-1-13.7-2-27.5-3.1-41.2-1-13.7-2-27.5-3.1-41.2-.5-6.9-1-13.7-1.5-20.6-.3-3.4-.5-6.9-.8-10.3-.3-3.4-.7-6.8-.6-10.2.1-3.7 1.7-7 2.6-10.6.8-3.4 1.1-6.9 1.1-10.3-.1-7.2-1.7-14.2-3.2-21.2-.1-.4-.7-.2-.6.2 1.5 6.4 2.9 12.9 3.2 19.5.1 3.3 0 6.6-.7 9.8-.6 3.1-1.9 6-2.6 9.1-.8 3.2-.3 6.4-.1 9.7.3 3.4.5 6.9.7 10.3.5 6.7 1 13.5 1.5 20.2 2 27.4 4 54.7 6.2 82.1 1.2 15.4 2.2 30.8 3.7 46.2 0 .1.2.1.2 0-.8-14-1.9-27.8-2.9-41.5ZM382.6 156.8c-.8-.3-1.7-.4-2.5-.6-.9-.2-1.7-.5-2.5-.9-1.5-.7-3.1-1.6-4.4-2.6-1.4-1.1-2.2-2.5-2.8-4.1-.4-.8-.7-1.7-1-2.6-.2-.4-.3-.8-.5-1.3-.1-.2-.5-1.1-.6-1.3h.1v-.1c-.1-.1-.1-.1-.2-.1 0 0-.1 0-.1.1-.2.3 0 .6.1.9.1.6.3 1.1.4 1.7.3 1 .5 2 .8 2.9.6 1.8 1.4 3.5 2.8 4.7 1.4 1.2 3.1 2.2 4.9 2.8.9.3 1.8.6 2.8.8.9.1 1.8.3 2.7.2.1-.2.1-.4 0-.5ZM344.7 167.4c-.1-1.6-.2-3.3-.4-4.9-.3-3.7-.7-7.5-1.4-11.2-.1-.3-.5-.2-.4.1l.9 8.7c.3 2.9.6 5.8.7 8.7 0 .9 0 2.4-1.1 2.6-1.4.3-2.1-1.6-2.5-2.6-.9-2.6-1.4-5.3-1.8-7.9-.5-3.1-.7-6.2-1-9.2 0-.1-.2-.1-.2 0 0 6.1.1 12.5 2.3 18.3.4 1.1 1.2 2.3 2.5 2.4h.1v.1c0 .2.1.3.1.5 0 .1.1.3.1.4.1.3.1.6.2.9.1.3.4.2.4-.1.1 0 .1-.1.1-.2 0-.6-.2-1.2-.4-1.7.7-.1 1.3-.6 1.6-1.3.5-1.2.3-2.5.2-3.6Z"/><path fill="#263238" d="M340.3 172.8c4.7 1.9 9.2 4.4 13.5 7 .2.1 0 .4-.1.3-4.5-2.2-9.2-4.3-13.6-6.8-.4-.2-.2-.6.2-.5ZM339.8 111.3c2.8 2.2 5.5 3.8 8.2 5.1-4.4-7.5-3.8-24.4-3.2-22 2.6 11.5 9.8 24.1 12.6 24.8 7.4 1 14.1-1 19.7-4.2-5.7-8.5-5.5-25.6-5.1-24.6 4.2 11.2 12.9 17.7 14.4 17.7 5.6-5.3 8.5-10.6 7.7-11.2-5.8-3.9-10.7-14-15.1-24.7-4.4-10.5-6.6-20.6-12.8-30-5.6-8.6-16.9-10.2-23.3-5.8-16.7 11.6-6.7 72.2-3.1 74.9Z"/><path fill="#263238" d="M357.2 37c4.6 1.1 8.5 5.3 10.9 9.3 3.2 5.2 5.4 11.1 8 16.7 5.3 10.9 11.9 20.9 20.2 29.7.2.2-.1.5-.3.3-9-6.8-15.2-16.5-20.2-26.5-2.6-5.1-4.6-10.5-7.1-15.6-1.3-2.8-2.9-5.6-4.9-8-2-2.3-4.3-3.7-6.9-5-.4-.4-.2-1.1.3-.9Z"/><path fill="#EBEBEB" d="m416.8 254.7-65.7 11.7-2.4-68.6 46.6-8.4 21.5 65.3Z"/><path fill="#4A56E2" d="m395.3 189.4 4.6 68.3 16.9-3-21.5-65.3Z"/><path fill="#263238" d="M361.7 200.5h-2.4v-13.4c.1-7.3 6.2-11.9 12-12.2 4.4-.2 9.8 2.1 10.7 9.3.9 7.8 1.1 11.5 1.1 11.6l-2.4.1s-.2-3.8-1.1-11.5c-.6-5.6-4.6-7.4-8.1-7.2-4.8.3-9.7 4-9.8 9.8v13.5Z"/><path fill="#fff" d="M400.7 257c1.2-1.2 2.4-2.3 3.7-3.5 1.2-1.1 2.5-2.2 3.8-3.3l.2-.1.2.1c1.3.6 2.5 1.3 3.8 2 1.2.7 2.5 1.4 3.7 2.1-1.3-.5-2.6-1.1-3.9-1.6-1.3-.6-2.6-1.2-3.8-1.8h.4c-1.3 1.1-2.6 2.2-3.9 3.2-1.5.9-2.8 1.9-4.2 2.9Z"/><path fill="#fff" d="M408.4 250.5c-1.1-4.2-2-8.4-3-12.7-1-4.2-1.9-8.5-2.8-12.7-.9-4.3-1.8-8.5-2.6-12.8l-1.3-6.4c-.4-2.1-.8-4.3-1.2-6.4l1.5 6.3 1.5 6.3c1 4.2 1.9 8.5 2.8 12.7.9 4.3 1.8 8.5 2.6 12.8.9 4.4 1.8 8.6 2.5 12.9Z"/><path fill="#263238" d="M363.7 199.8c.4 1.7-.7 3.4-2.5 3.8-1.7.4-3.4-.7-3.8-2.5-.4-1.7.7-3.4 2.5-3.8 1.7-.4 3.4.7 3.8 2.5ZM384.8 195.2c.4 1.7-.7 3.4-2.5 3.8-1.7.4-3.4-.7-3.8-2.5-.4-1.7.7-3.4 2.5-3.8 1.7-.3 3.5.8 3.8 2.5Z"/><path fill="#FFC727" d="M409.2 274.3h-77.1l11.2-78.5h54.6l11.3 78.5Z"/><path fill="#000" d="m397.9 195.8-8.5 78.5h19.8l-11.3-78.5Z" opacity=".1"/><path fill="#263238" d="m358.7 201.2-2.4-.5c0-.1 1.4-6.7 2.9-13.3 1.6-7.2 8.7-10.5 14.6-9.6 4.4.7 9.3 4.2 8.6 11.6-.8 7.9-1.4 11.6-1.4 11.8l-2.4-.4s.6-3.8 1.4-11.6c.6-5.7-3-8.3-6.5-8.9-4.8-.8-10.5 1.9-11.8 7.7-1.6 6.6-3 13.1-3 13.2Z"/><path fill="#fff" d="M390.4 273.7c1.6-1.1 3.2-2.2 4.9-3.2 1.6-1 3.3-2 5-3l.2-.1.2.2 3.9 3c1.3 1 2.5 2 3.8 3.1-1.4-.8-2.8-1.7-4.1-2.7-1.4-.9-2.7-1.9-4-2.8h.4c-1.7 1-3.4 1.9-5.1 2.8-1.7 1-3.4 1.9-5.2 2.7Z"/><path fill="#fff" d="M400.5 267.9c-.3-5-.6-10-.8-15l-.6-15c-.1-5-.3-10-.4-15l-.1-7.5c0-2.5-.1-5-.1-7.5.2 2.5.3 5 .5 7.5l.4 7.5.6 15c.1 5 .3 10 .4 15 0 5 .1 10 .1 15Z"/><path fill="#263238" d="M357.5 204.3a3.3 3.3 0 1 0 0-6.6 3.3 3.3 0 0 0 0 6.6ZM379.5 204.3a3.3 3.3 0 1 0 0-6.6 3.3 3.3 0 0 0 0 6.6Z"/><path fill="#A6A6A6" d="m297.6 53.1 9.3 28.9c.4.8 0 1.6-.9 1.6l-15.1 1c-.8.1-1.8-.6-2.2-1.4l-9.3-28.9c-.4-.8 0-1.6.9-1.6l15.1-1c.8 0 1.8.6 2.2 1.4Z"/><path fill="#DBDBDB" d="m295.8 53.2 9.3 28.9c.4.8 0 1.6-.9 1.6l-15.1 1c-.8.1-1.8-.6-2.2-1.4l-9.3-28.9c-.4-.8 0-1.6.9-1.6l15.1-1c.8-.1 1.8.6 2.2 1.4Z"/><path fill="#455A64" d="M291.7 54.8c.1.7.7 1.2 1.4 1.2.7-.1 1.2-.7 1.2-1.4-.1-.7-.7-1.2-1.4-1.2-.7.1-1.2.7-1.2 1.4Z"/><path fill="#F7A9A0" d="M349.3 94.5c-7.2 18.9-24.8 44-32.7 44.6-3.8.3-10.5 1.7-15.8-2.3-11.5-8.7-21.9-26.2-24.5-36.5-.9-3.6 16.5-13 19.4-10.2 6.7 6.6 15 19.9 16.1 19.7 4.1-.6 19-15 29.5-25.2 12.5-12.1 10.8 2.3 8 9.9ZM274.4 81.3c1.4-7.6 2.9-9.4.6-16.5-1.5-4.6.8-7.6 4.4-4 5.9 5.8 6.2 16 5.3 19.6l-10.3.9Z"/><path fill="#F7A9A0" d="M277.4 103.5s-4.1-10.2-3.5-18.5c.4-5.7 2.8-18.1 18.2-25.7 3.7-1.8 10.1-1.8 5.2 3.3-3.5 3.6-6.8 4.9-8.4 7.3 0 0 8.2 1 9.9 4.8.7 1.7 2.6 6.3 3.6 10.1 0 0-.8.4-1.8.8 0 0 1.2 3.6-1.1 9l-22.1 8.9Z"/><path fill="#F7A9A0" d="M275.2 79.6c2.2-2.1 6.8-6.5 11.8-8.8 5.6-2.5 17.1-5.9 18.9-1.7 1.3 3-2.9 4.7-2.9 4.7s5-.4 5.6 2.6c.6 2.7-2.8 3.8-2.8 3.8s3.1.3 3.1 3c0 3.3-6.5 2.2-9.3 5.5-.6.9-24.4-9.1-24.4-9.1Z"/><path fill="#263238" d="M288.7 77.2c2.3-1.7 8.6-4 14.2-3.5.1 0 .2.1.1.1-6.3.7-11.9 2.5-14.3 3.4 0 .1 0 0 0 0ZM291.4 82.8c2.2-1.2 8.8-3.4 14.4-2.6.1 0 .2.1.1.1-6.6.4-12 1.8-14.5 2.5Z"/><path fill="#FFC727" d="m301.7 96.5-20.9 24.2s17.9 17.5 23.7 18.9c5.8 1.4 10.2.5 14.3-.6 4.1-1.2 24.1-24.4 30.7-43.3 6.6-19-.5-19.9-11.7-8.4-11.2 11.5-25.1 22.8-25.8 22-.7-.9-10.3-12.8-10.3-12.8Z"/><path fill="#000" d="m301.7 96.5-20.9 24.2s17.9 17.5 23.7 18.9c5.8 1.4 10.2.5 14.3-.6 4.1-1.2 24.1-24.4 30.7-43.3 6.6-19-.5-19.9-11.7-8.4-11.2 11.5-25.1 22.8-25.8 22-.7-.9-10.3-12.8-10.3-12.8Z" opacity=".1"/><path fill="#263238" d="M305.5 103.2c-.9.8-7.8 8.6-9.4 10.4-1.5 1.7-7.5 9-9 10.8-.1.1 0 .2.1.1.8-.9 1.7-1.7 2.5-2.6.8-.9 5.5-6.2 7-7.9 1.5-1.8 8.3-9.8 8.9-10.7.1-.1 0-.2-.1-.1Z"/><path fill="#FFC727" d="m330.2 127.7-3.9 33.6s54.5-.8 68-2.2c0 0-12.9-62.2-27.9-77.6-7.5-7.7-16-6.8-21.3-1.2-1.3 1.4-17.1 23.7-18.6 32-1.3 7.5 3.7 15.4 3.7 15.4Z"/><path fill="#263238" d="M328 122.3c-.6-1.9-1-3.9-1-5.9 0-4.1 1.2-8.1 3-11.7 1-2.1 2.2-4.1 3.2-6.2 0-.1-.1-.1-.1 0-1 1.4-1.8 2.9-2.6 4.3 0-.1 0-.1.1-.2.2-.8.5-1.6.8-2.4 0-.1-.1-.1-.1-.1-.3.8-.6 1.5-.9 2.3-.2.5-.3 1-.4 1.5-1 1.8-1.8 3.7-2.5 5.7-1.3 3.9-1.5 8.1-.3 12.1.3 1 .8 2 1.2 3 .5 1.1 1.2 2.1 1.8 3.1 0 .1.2 0 .1-.1-1-1.6-1.7-3.5-2.3-5.4Z"/><path fill="#F7A9A0" d="M357.5 80.6c-.4 1-6.8 6.9-11.5 5.8-1.6-.4.1-8.9.1-8.9v-.7l-.3-9.2 11.7-4.7 1.7-.6s-.1 2.5-.2 5.7v.9c0 .5 0 1-.1 1.4 0 .4 0 .7-.1 1.1 0 .4-.1.8-.1 1.1-.3 3.9-1 7.7-1.2 8.1Z"/><path fill="#263238" d="M358.9 67.9c-3.9 6.6-10.1 8.4-12.8 8.9l-.3-9.2 11.7-4.7 1.7-.6c-.1-.1-.1 2.5-.3 5.6Z"/><path fill="#F7A9A0" d="M334.9 53.3c-2.2 16.1 7.2 19.2 10.6 19.7 3.1.4 13.9 1.5 17.8-14.3 3.9-15.8-2.9-21.9-10.1-23.3-7.1-1.3-16.1 1.8-18.3 17.9Z"/><path fill="#263238" d="M339.2 50c.4 0 .7 0 1.1-.1.4 0 .8 0 1.1-.3.2-.1.2-.5.1-.7-.3-.5-.8-.5-1.4-.5-.6 0-1 .2-1.4.6-.3.3 0 1 .5 1ZM349.8 51.6c-.4-.1-.7-.2-1.1-.4-.4-.2-.7-.2-1-.6-.1-.2-.1-.5.1-.7.4-.4 1-.3 1.4-.1.5.2.9.4 1.2.9.4.4-.1 1-.6.9ZM347.1 55.3l.1.1c-.2 1.1-.3 2.4.7 2.9v.1c-1.3-.4-1.2-2.1-.8-3.1Z"/><path fill="#263238" d="M348.3 54.4c1.8.2 1.3 3.7-.3 3.6-1.7-.2-1.2-3.8.3-3.6Z"/><path fill="#263238" d="M348.9 54.6c.3.2.5.6.9.7.4.1.8-.2 1.1-.6h.1c-.1.7-.4 1.3-1.2 1.4-.7 0-1.1-.6-1.2-1.4.1 0 .2-.2.3-.1ZM340.8 54.3c-.1 0 0 0 0 0-.2 1.2-.5 2.4-1.5 2.7v.1c1.2-.1 1.6-1.7 1.5-2.8Z"/><path fill="#263238" d="M339.9 53c-1.8-.3-2.3 3.2-.7 3.5 1.7.3 2.2-3.2.7-3.5Z"/><path fill="#263238" d="M339.2 53.2c-.3.1-.6.4-1 .4s-.6-.5-.8-.9h-.1c-.1.7 0 1.4.6 1.6.6.2 1.1-.3 1.4-.9.1-.1 0-.3-.1-.2ZM345.7 64.1c-.3.2-.6.6-1 .6s-.8-.2-1.2-.4c0 0-.1 0-.1.1.3.4.8.8 1.4.7.5 0 .8-.5.9-.9.1-.1 0-.2 0-.1ZM341.6 59.5l-.6 2.4c0 .1.2.1.4.2 1.3.4 2.8.1 3.7-.9.1-.1 0-.2-.1-.1-1.1.6-2.3.7-3.5.5 0-.2.9-2.7.7-2.8-.4-.1-1.3.1-1.8.2.8-3.4 2.2-6.6 3-10 0-.1-.1-.2-.2-.1-1.7 3.3-2.7 7.1-3.7 10.6.1.5 1.8.1 2.1 0Z"/><path fill="#263238" d="M361.9 58.8c-4-.3-4.7-12.6-4.7-14.1 0 1-.1 6-.5 6.2-.1 0-.5-.1-1.2-.3 0-.6 0-1.2-.1-1.8 0-.3-.1.6-.3 1.7-.2-.1-.5-.2-.7-.2.1-1.1.1-2.4-.2-3.8-.1-.5-.3 1.7-.8 3.5-2.7-.8-6.6-2-10.3-2.2-1-.1-1.8-.1-2.6-.1.1-1.5.3-3.1.2-2.7-.4 1-.6 1.9-.7 2.7h-1.1c0-2.1 1.1-5.4.7-4.9-1.4 1.9-2 4-2.2 5.1-1.4.2-1.8.5-1.9.1 0-.7 1-6.5 5.7-10.6 5.1-4.5 15.1-5.3 20.4 2.1 0 0 4.5 3.2 5 8 .4 4.9-2.4 11.5-4.7 11.3Z"/><path fill="#F7A9A0" d="M360.6 59.6s3.8-4.9 6-3.5c2.2 1.4-.8 8.6-3.5 9.4-2.7.9-3.6-1.7-3.6-1.7l1.1-4.2Z"/><path fill="#263238" d="M365.7 58.2c-1.9.7-3 2.4-3.8 4.2.6-.7 1.4-1 2.3-.3 0 0 0 .1-.1.1-.8-.2-1.3-.1-1.9.5-.4.4-.7 1-1 1.5-.1.2-.4.1-.3-.1.1-2.5 2.2-5.8 4.8-5.9Z"/><path fill="#F7A9A0" d="M369.3 81.5c18.7 15.3 33.8 38.7 34.6 44.6.9 6.5-1.4 30.2-7.6 42.2-1.6 3.2-25.8-11.3-24.2-14.7 3.1-6.7 7.6-24.9 7-28.5-.6-3.4-10.1-23.6-16.7-34.2-5.9-9.8-1.8-16.5 6.9-9.4Z"/><path fill="#F7A9A0" d="M353.6 182.4c1.6 2.5 4.6 1.7 4.6 1.7s0 2.4 1.5 4c1.8 1.9 5.5-.1 5.5-.1s.5 2.4 2.3 4c1.9 1.6 5.9.2 5.9.2s1.7 2 4.2 2.2c4.4.4 8.4-5 11-8.3 2.6-3.4 6.8-15.4 7.8-17.6l-21.5-16.8s-15.9 11.8-18.4 16.2c-2 3.6-4.7 11.7-2.9 14.5Z"/><path fill="#263238" d="M357.9 183.6c1.3-4.5 3.8-8.3 6.1-12.3.1-.1.2 0 .1.1-2.3 3.9-3.9 8.3-6 12.3-.1.1-.2 0-.2-.1ZM365 187.6c.3-1 1-1.9 1.5-2.8.6-.9 1.2-1.9 1.9-2.8 1.3-1.8 2.6-3.7 4-5.4.1-.1.2 0 .1.1-1.3 1.8-2.5 3.7-3.7 5.6-.6.9-1.2 1.9-1.8 2.9-.5.9-1 1.9-1.8 2.6-.1.1-.3 0-.2-.2ZM373.5 192c.2-.9 1-1.7 1.5-2.4.6-.8 1.2-1.7 1.8-2.5 1.2-1.7 2.4-3.3 3.5-5.1.1-.1.2 0 .1.1-1.1 1.7-2.2 3.5-3.4 5.2-.6.9-1.1 1.7-1.7 2.5-.5.8-1 1.7-1.8 2.2Z"/><path fill="#FFC727" d="M360.3 88.9c3.6 10.2 18.2 34.4 18.1 36.7-.1 2.3-7.2 26.6-7.2 26.6l28.9 17.5s6.4-33.1 4-44.6c-1.8-8.8-22.2-34.5-32.1-42.4-9.9-7.8-16.3-6.8-11.7 6.2Z"/><path fill="#000" d="M360.3 88.9c3.6 10.2 18.2 34.4 18.1 36.7-.1 2.3-7.2 26.6-7.2 26.6l28.9 17.5s6.4-33.1 4-44.6c-1.8-8.8-22.2-34.5-32.1-42.4-9.9-7.8-16.3-6.8-11.7 6.2Z" opacity=".1"/><path fill="#263238" d="M378.5 124.2c-.3-1.7-1.3-3.3-2.1-4.8-1.8-3.4-3.6-6.8-5.6-10.1-1.1-1.8-5.4-8.9-6.6-11.2-.1-.2-.4 0-.3.2.7 1.4 2.7 5 4.2 7.6-.2-.3-.4-.5-.7-.8-.4-.5-.9-1-1.3-1.4-.5-.5-1.1-.9-1.5-1.5-.1-.1-.2 0-.1.1.8 1.1 1.7 2 2.6 3 .4.5.9 1 1.3 1.5.3.3.6.7.9 1 .1.1.1.2.2.3 1.9 3.3 3.6 6.6 5.4 9.9.9 1.6 1.9 3.2 2.5 4.9.3.8.5 1.6.5 2.5-.1 1-.4 2-.6 2.9-1 3.6-1.9 7.2-2.9 10.9-.5 2.1-1.1 4.2-1.6 6.3-.5 2.1-1.1 4.2-1.4 6.3 0 .1.2.3.3.1.7-1.8 1.2-3.7 1.7-5.5.5-1.9 1.1-3.8 1.6-5.6 1-3.8 2-7.6 3-11.5.2-1.6.8-3.3.5-5.1ZM399.8 162.2c-7.8-5.5-16-10.6-24.4-15.3-.1 0-.2.1-.1.1 7.8 5.5 15.9 10.7 24.3 15.3.2.2.3 0 .2-.1Z"/><path fill="#FFC727" d="M97.7 309.2h44.1c5.8 0 10.5-4.7 10.5-10.5v-82.6c0-3 2.1-10.6 11.2-10.6h-55.4c-5.8 0-10.5 4.7-10.5 10.5v93.2h.1Z"/><path fill="#000" d="M97.7 309.2h44.1c5.8 0 10.5-4.7 10.5-10.5v-82.6c0-3 2.1-10.6 11.2-10.6h-55.4c-5.8 0-10.5 4.7-10.5 10.5v93.2h.1Z" opacity=".1"/><g fill="#000" opacity=".1"><path d="M145.3 216.1h-39.6v1.8h39.6v-1.8ZM145.3 221.2h-39.6v1.8h39.6v-1.8ZM145.3 226.3h-39.6v1.8h39.6v-1.8ZM145.3 231.4h-39.6v1.8h39.6v-1.8ZM145.3 236.5h-39.6v1.8h39.6v-1.8ZM145.3 241.6h-39.6v1.8h39.6v-1.8ZM145.3 246.7h-39.6v1.8h39.6v-1.8ZM145.3 251.8h-39.6v1.8h39.6v-1.8ZM145.3 257h-39.6v1.8h39.6V257ZM145.3 262.1h-39.6v1.8h39.6v-1.8ZM145.3 267.2h-39.6v1.8h39.6v-1.8ZM145.3 272.3h-39.6v1.8h39.6v-1.8ZM145.3 277.4h-39.6v1.8h39.6v-1.8ZM145.3 282.5h-39.6v1.8h39.6v-1.8ZM145.3 287.6h-39.6v1.8h39.6v-1.8ZM145.3 292.7h-39.6v1.8h39.6v-1.8Z" opacity=".1"/></g><path fill="#FFC727" d="M55.1 274.3V374h33.4v.1c0 5.8 4.6 10.5 10.4 10.6h.4c.4 0 .7 0 1.1-.1l2-.4c.5-.2 1-.4 1.4-.6.2-.1.5-.2.7-.4.1-.1.2-.1.3-.2l.9-.6.1-.1c.2-.2.4-.3.6-.5l.3-.3c1.2-1.2 2.1-2.7 2.6-4.3v-.1c.1-.3.1-.5.2-.8.1-.3.1-.7.2-1V274.2c0-3 2.1-10.6 11.2-10.6H65.6c-5.8.2-10.5 4.9-10.5 10.7Z"/><g fill="#000" opacity=".1"><path d="M102 270.4H62.4v1.8H102v-1.8ZM105.7 265.7H66.1v1.8h39.6v-1.8ZM102 275.5H62.4v1.8H102v-1.8ZM102 280.6H62.4v1.8H102v-1.8ZM102 285.8H62.4v1.8H102v-1.8ZM102 290.9H62.4v1.8H102v-1.8ZM102 296H62.4v1.8H102V296ZM102 301.1H62.4v1.8H102v-1.8ZM102 306.2H62.4v1.8H102v-1.8ZM102 311.3H62.4v1.8H102v-1.8ZM102 316.4H62.4v1.8H102v-1.8ZM102 321.5H62.4v1.8H102v-1.8ZM102 326.7H62.4v1.8H102v-1.8ZM102 331.8H62.4v1.8H102v-1.8ZM102 336.9H62.4v1.8H102v-1.8ZM102 342H62.4v1.8H102V342ZM102 347.1H62.4v1.8H102v-1.8ZM102 352.2H62.4v1.8H102v-1.8ZM102 357.3H62.4v1.8H102v-1.8ZM102 364.7H82.2v4.2H102v-4.2Z" opacity=".1"/></g><path fill="#FFC727" d="M141.5 309.2h.3c.4 0 .8 0 1.2-.1-.4 0-.7.1-1.1.1h-.4ZM163 205.5c-5.9 0-10.6 4.8-10.6 10.6v20h21.2v-20c0-5.8-4.8-10.6-10.6-10.6Z"/><path fill="#000" d="M163 205.5c-5.9 0-10.6 4.8-10.6 10.6v20h21.2v-20c0-5.8-4.8-10.6-10.6-10.6Z" opacity=".2"/><path fill="#FFC727" d="M109.7 274.4v34.9h31.6c-5.7-.1-10.4-4.8-10.4-10.6v-24.3c0-5.9-4.8-10.6-10.6-10.6-2.9 0-5.6 1.2-7.5 3.1-1.9 1.9-3.1 4.5-3.1 7.5Z"/><path fill="#000" d="M109.7 274.4v34.9h31.6c-5.7-.1-10.4-4.8-10.4-10.6v-24.3c0-5.9-4.8-10.6-10.6-10.6-2.9 0-5.6 1.2-7.5 3.1-1.9 1.9-3.1 4.5-3.1 7.5Z" opacity=".2"/><path fill="#FFC727" d="M39.6 374v.1c0 5.8 4.6 10.5 10.4 10.6h48.9c-5.7-.1-10.4-4.8-10.4-10.6v-.1H39.6Z"/><path fill="#000" d="M39.6 374v.1c0 5.8 4.6 10.5 10.4 10.6h48.9c-5.7-.1-10.4-4.8-10.4-10.6v-.1H39.6Z" opacity=".2"/></g><defs><clipPath id="a"><path fill="#fff" d="M0 0h452.1v412.6H0z"/></clipPath></defs></svg>