<svg xmlns="http://www.w3.org/2000/svg" width="14" height="14" fill="none"><g clip-path="url(#a)"><path stroke="#000" stroke-linecap="round" stroke-linejoin="round" stroke-opacity=".8" stroke-width="1.2" d="M10.5 5.833 8.167 3.5m-6.709 9.042 1.975-.22c.24-.026.361-.04.474-.076.1-.033.195-.078.283-.136.099-.066.185-.151.356-.323l7.704-7.704A1.65 1.65 0 0 0 9.917 1.75L2.213 9.454c-.172.171-.257.257-.323.356a1.167 1.167 0 0 0-.136.283c-.036.113-.05.233-.076.475l-.22 1.974Z"/></g><defs><clipPath id="a"><path fill="#fff" d="M0 0h14v14H0z"/></clipPath></defs></svg>