<svg xmlns="http://www.w3.org/2000/svg" aria-hidden="true" style="position:absolute;width:0;height:0;overflow:hidden">
  <defs>
    <symbol id="icon__baseline-account" viewBox="0 0 33 32">
      <path d="M4.667 6.667v18.667a2.666 2.666 0 0 0 2.667 2.667h18.667c1.467 0 2.667-1.2 2.667-2.667V6.667C28.668 5.2 27.468 4 26.001 4H7.334c-1.48 0-2.667 1.2-2.667 2.667zm16 5.333c0 2.213-1.787 4-4 4s-4-1.787-4-4 1.787-4 4-4 4 1.787 4 4zm-12 10.667c0-2.667 5.333-4.133 8-4.133s8 1.467 8 4.133V24h-16v-1.333z" />
    </symbol>
    <symbol id="icon__baseline-date_range" viewBox="0 0 32 32">
      <path d="M12 14.667H9.333v2.667H12v-2.667zm5.333 0h-2.667v2.667h2.667v-2.667zm5.334 0H20v2.667h2.667v-2.667zm2.666-9.334H24V2.666h-2.667v2.667H10.666V2.666H7.999v2.667H6.666c-1.48 0-2.653 1.2-2.653 2.667L4 26.667a2.666 2.666 0 0 0 2.667 2.667h18.667c1.467 0 2.667-1.2 2.667-2.667V8c0-1.467-1.2-2.667-2.667-2.667zm0 21.334H6.666V12h18.667v14.667z" />
    </symbol>
    <symbol id="icon__baseline-dolar" viewBox="0 0 32 32">
      <path d="M4 0C1.592 0 0 1.592 0 3.556V28.445C0 30.409 1.592 32.001 3.556 32.001H28.445C30.409 32.001 32.001 30.409 32.001 28.445V3.556C32.001 1.592 30.409 0 28.445 0H5.053ZM13.265 13.136C13.265 14.131 14.03 14.771 16.409 15.389S21.334 17.024 21.334 19.999C21.334 22.147 19.71 23.331 17.667 23.719V25.972H14.524V23.698C12.512 23.268 10.794 21.98 10.668 19.685H12.973C13.088 20.921 13.937 21.885 16.096 21.885 18.412 21.885 18.925 20.732 18.925 20.009 18.925 19.035 18.401 18.113 15.782 17.484 12.859 16.782 10.857 15.577 10.857 13.157 10.857 11.135 12.492 9.815 14.524 9.374V7.111H17.667V9.406C19.857 9.94 20.957 11.596 21.03 13.398H18.714C18.651 12.088 17.96 11.198 16.095 11.198 14.324 11.198 13.266 11.994 13.266 13.136Z"></path>
    </symbol>
    <symbol id="icon__baseline-home" viewBox="0 0 32 32">
      <path d="M3.556 0C1.592 0 0 1.592 0 3.556V28.445C0 30.409 1.592 32.001 3.556 32.001H28.445C30.409 32.001 32.001 30.409 32.001 28.445V3.556C32.001 1.592 30.409 0 28.445 0H3.556ZM13.867 17.987V24.889H8.534V15.686H5.334L16.001 5.333 26.668 15.686H23.468V24.889H18.135V17.987H13.868Z"></path>
    </symbol>
    <symbol id="icon__baseline-timeline" viewBox="0 0 32 32">
      <path d="M3.556 0h24.889c1.964 0 3.556 1.592 3.556 3.556v24.889c0 1.964-1.592 3.556-3.556 3.556h-24.889c-1.964 0-3.556-1.592-3.556-3.556v-24.889c0-1.964 1.592-3.556 3.556-3.556zM26.182 13.63c1.244 0 2.263-1.067 2.263-2.37s-1.018-2.37-2.263-2.37c-1.244 0-2.263 1.067-2.263 2.37 0 0.213 0.023 0.415 0.079 0.604l-4.016 4.219c-0.181-0.059-0.385-0.083-0.588-0.083s-0.407 0.024-0.588 0.083l-2.885-3.022c0.057-0.19 0.079-0.403 0.079-0.616 0-1.304-1.018-2.37-2.263-2.37s-2.263 1.067-2.263 2.37c0 0.213 0.023 0.427 0.079 0.616l-5.159 5.393c-0.181-0.059-0.373-0.083-0.577-0.083-1.244 0-2.263 1.067-2.263 2.37s1.018 2.37 2.263 2.37 2.263-1.067 2.263-2.37c0-0.213-0.023-0.415-0.079-0.604l5.147-5.404c0.181 0.059 0.385 0.083 0.588 0.083s0.407-0.024 0.588-0.083l2.885 3.022c-0.057 0.19-0.079 0.403-0.079 0.616 0 1.304 1.018 2.37 2.263 2.37s2.263-1.067 2.263-2.37c0-0.213-0.023-0.427-0.079-0.616l4.027-4.207c0.181 0.059 0.373 0.083 0.577 0.083z"></path>
    </symbol>
    <symbol id="icon__baseline-email" viewBox="0 0 33 32">
      <path d="M27.333 5.333H6A2.663 2.663 0 0 0 3.347 8l-.013 16c0 1.467 1.2 2.667 2.667 2.667h21.333c1.467 0 2.667-1.2 2.667-2.667V8c0-1.467-1.2-2.667-2.667-2.667zm0 5.334-10.667 6.667-10.667-6.667V8l10.667 6.667L27.333 8v2.667z" />
    </symbol>

    <symbol id="icon__baseline-lock" viewBox="0 0 33 32">
      <path d="M24.667 10.667h-1.333V8c0-3.68-2.987-6.667-6.667-6.667S10 4.32 10 8v2.667H8.667A2.675 2.675 0 0 0 6 13.334v13.333c0 1.467 1.2 2.667 2.667 2.667h16c1.467 0 2.667-1.2 2.667-2.667V13.334c0-1.467-1.2-2.667-2.667-2.667zm-8 12C15.2 22.667 14 21.467 14 20s1.2-2.667 2.667-2.667c1.467 0 2.667 1.2 2.667 2.667s-1.2 2.667-2.667 2.667zm4.133-12h-8.267V8c0-2.28 1.853-4.133 4.133-4.133S20.799 5.72 20.799 8v2.667z" />
    </symbol>

    <symbol id="icon__btn-plus" viewBox="0 0 32 32">
      <path d="M25.514 13.405c0 5.254-4.259 9.513-9.514 9.513s-9.514-4.259-9.514-9.514C6.486 8.15 10.745 3.89 16 3.89s9.514 4.259 9.514 9.514z" />
      <path stroke="#fff" stroke-width=".865" d="M16 9.081v8.649M11.676 13.405h8.649" style="stroke:var(--color3, #fff)"/>
    </symbol>
    <symbol id="icon__btn-minus" viewBox="0 0 32 32">
      <path d="M25.514 13.405c0 5.254-4.259 9.513-9.514 9.513s-9.514-4.259-9.514-9.514C6.486 8.15 10.745 3.89 16 3.89s9.514 4.259 9.514 9.514z" />
      <path stroke="#fff" stroke-width=".865" d="M11.676 13.405h8.649" style="stroke:var(--color3, #fff)"/>
    </symbol>
    <symbol id="icon__close" viewBox="0 0 32 32">
      <path stroke-width="1.778" d="m1.778 1.778 28.444 28.444M1.778 30.222 30.222 1.778"/>
    </symbol>
    <symbol id="icon__edit" viewBox="0 0 32 32">
      <path stroke-linejoin="round" stroke-linecap="round" stroke-miterlimit="4" stroke-width="2.7429" d="M24 13.334l-5.333-5.333M3.333 28.667l4.512-0.502c0.551-0.061 0.827-0.092 1.085-0.175 0.229-0.074 0.446-0.178 0.647-0.311 0.226-0.149 0.422-0.345 0.814-0.737l17.608-17.608c1.473-1.473 1.473-3.861 0-5.333s-3.861-1.473-5.333 0l-17.608 17.608c-0.392 0.392-0.588 0.588-0.737 0.814-0.132 0.201-0.237 0.418-0.311 0.647-0.083 0.258-0.114 0.533-0.175 1.085l-0.501 4.513z"></path>
    </symbol>
    <symbol id="icon__exit" viewBox="0 0 32 32">
      <path d="M20.051 23.237h2.499v4.997a3.752 3.752 0 0 1-3.748 3.748H3.748A3.752 3.752 0 0 1 0 28.234V3.748A3.752 3.752 0 0 1 3.748 0h15.054a3.752 3.752 0 0 1 3.748 3.748v4.997h-2.499V3.748a1.25 1.25 0 0 0-1.249-1.249H3.748a1.25 1.25 0 0 0-1.249 1.249v24.486a1.25 1.25 0 0 0 1.249 1.249h15.054a1.25 1.25 0 0 0 1.249-1.249v-4.997zm6.06-13.135-1.767 1.767 2.873 2.874H11.056v2.499h16.161l-2.873 2.873 1.767 1.767L32 15.993l-5.889-5.89z" />
    </symbol>
    <symbol id="icon__logo" viewBox="0 0 32 32">
      <path fill="#24cca7" d="m3.755 7.619 16.211-4.537-.859-1.779C18.545.146 17.175-.331 16.047.245L1.534 7.62h2.219zM24.813 3.048a2.05 2.05 0 0 0-.586.087L9.215 7.619h18.431l-.693-2.779c-.266-1.083-1.163-1.793-2.14-1.793z" style="fill:var(--color7, #24cca7)"/>
      <path fill="#4a56e2" d="M28.36 8.573H1.801A1.799 1.799 0 0 0 0 10.355v19.862A1.79 1.79 0 0 0 1.797 32h26.559a1.79 1.79 0 0 0 1.797-1.783v-4.973H19.491c-1.685 0-3.054-1.358-3.054-3.03V18.25c0-.82.331-1.565.866-2.111a3.03 3.03 0 0 1 2.185-.916h10.666v-4.867a1.785 1.785 0 0 0-1.793-1.783z" style="fill:var(--color2, #4a56e2)"/>
      <path fill="#4a56e2" d="M31.414 16.926a1.804 1.804 0 0 0-1.211-.467H19.491a1.79 1.79 0 0 0-1.797 1.783v3.968a1.79 1.79 0 0 0 1.797 1.783h10.712c.205 0 .399-.036.582-.096.237-.078.449-.207.629-.371.359-.324.586-.795.586-1.316v-3.968c0-.52-.226-.991-.586-1.316zm-8.171 3.655a.895.895 0 0 1-.898.891h-.596a.895.895 0 0 1-.898-.891v-.592c0-.285.133-.538.345-.699a.911.911 0 0 1 .553-.193h.596c.496 0 .898.399.898.891v.592z" style="fill:var(--color2, #4a56e2)"/>
    </symbol>
    <symbol id="icon__slash" viewBox="0 0 16 32">
      <path stroke="#e0e0e0" stroke-width="2.909" d="M13.529 1.597 2.471 30.403" />
    </symbol>
    <symbol id="icon__arrow-up" viewBox="0 0 58 32" fill="none">
      <path  stroke="#000" stroke-linejoin="miter" stroke-linecap="butt" stroke-miterlimit="4" stroke-width="2.9091" d="M55.273 29.091l-26.182-26.182-26.182 26.182"></path>
    </symbol>
    <symbol id="icon__arrow-down" viewBox="0 0 58 32" fill="none">
      <path stroke="#000" stroke-linejoin="miter" stroke-linecap="butt" stroke-miterlimit="4" stroke-width="2.9091" d="M55.273 2.909l-26.182 26.182-26.182-26.182"></path>
      </symbol>
  </defs>
</svg>