<svg width="120" height="30" viewBox="0 0 120 30" fill="none" xmlns="http://www.w3.org/2000/svg">
<g id="logo">
<g id="Group">
<g id="Group_2">
<path id="Vector" d="M3.52059 7.14286L18.7187 2.88927L17.9139 1.22119C17.3873 0.13694 16.1029 -0.310807 15.0455 0.229123L1.43994 7.14286H3.52059Z" fill="#24CCA7"/>
<path id="Vector_2" d="M23.2625 2.85718C23.0793 2.85718 22.8962 2.8845 22.713 2.93916L19.2414 3.97757L8.6394 7.1429H20.6734H25.9182L25.2688 4.53776C25.0191 3.52212 24.1782 2.85718 23.2625 2.85718Z" fill="#24CCA7"/>
<path id="Vector_3" d="M26.5873 8.03705H26.2032H25.6811H25.1589H21.1735H6.52891H4.60864H2.99158H2.69175H1.68782C1.15553 8.03705 0.680516 8.28104 0.370578 8.66542C0.229085 8.84257 0.12128 9.04645 0.0606401 9.27039C0.0235822 9.41077 0 9.55784 0 9.70825V9.90879V11.814V28.3287C0 29.2512 0.754632 29.9999 1.68445 29.9999H26.5839C27.5137 29.9999 28.2684 29.2512 28.2684 28.3287V23.6661H18.2729C16.6929 23.6661 15.4093 22.3926 15.4093 20.8251V19.2942V18.7762V18.2581V17.1083C15.4093 16.3396 15.7193 15.641 16.2212 15.1296C16.6659 14.675 17.2622 14.3675 17.9292 14.2907C18.0404 14.2773 18.155 14.2706 18.2695 14.2706H26.8669H27.3891H27.9113H28.2684V9.70825C28.2717 8.78574 27.5171 8.03705 26.5873 8.03705Z" fill="#4A56E2"/>
<path id="Vector_4" d="M29.4508 15.8683C29.2824 15.7146 29.0836 15.5976 28.8613 15.5207C28.6894 15.4639 28.5075 15.4305 28.3155 15.4305H28.2717H28.238H27.7158H25.8326H18.2728C17.343 15.4305 16.5884 16.1792 16.5884 17.1017V17.9339V18.452V18.9701V20.8218C16.5884 21.7443 17.343 22.493 18.2728 22.493H28.2717H28.3155C28.5075 22.493 28.6894 22.4595 28.8613 22.4027C29.0836 22.3292 29.2824 22.2089 29.4508 22.0551C29.7877 21.751 29.9999 21.3098 29.9999 20.8218V17.1017C29.9999 16.6137 29.7877 16.1725 29.4508 15.8683ZM21.7899 19.2943C21.7899 19.7555 21.4126 20.1299 20.9477 20.1299H20.3885C19.9236 20.1299 19.5463 19.7555 19.5463 19.2943V18.7395C19.5463 18.4721 19.6709 18.2348 19.8697 18.0843C20.0145 17.974 20.1931 17.9039 20.3885 17.9039H20.53H20.9477C21.4126 17.9039 21.7899 18.2782 21.7899 18.7395V19.2943Z" fill="#4A56E2"/>
</g>
</g>
<g id="Wallet">
<path d="M68.13 7.45498L64.0125 23.25H59.355L56.835 12.855L54.225 23.25H49.5675L45.5625 7.45498H49.68L51.9525 18.9525L54.765 7.45498H58.995L61.695 18.9525L63.99 7.45498H68.13Z" fill="black"/>
<path d="M69.2946 16.95C69.2946 15.66 69.5345 14.5275 70.0145 13.5525C70.5096 12.5775 71.1771 11.8275 72.0171 11.3025C72.8571 10.7775 73.7946 10.515 74.8296 10.515C75.7146 10.515 76.4871 10.695 77.1471 11.055C77.8221 11.415 78.3396 11.8875 78.6996 12.4725V10.695H82.5471V23.25H78.6996V21.4725C78.3246 22.0575 77.7995 22.53 77.1245 22.89C76.4646 23.25 75.6921 23.43 74.807 23.43C73.7871 23.43 72.8571 23.1675 72.0171 22.6425C71.1771 22.1025 70.5096 21.345 70.0145 20.37C69.5345 19.38 69.2946 18.24 69.2946 16.95ZM78.6996 16.9725C78.6996 16.0125 78.4296 15.255 77.8895 14.7C77.3645 14.145 76.7196 13.8675 75.9546 13.8675C75.1896 13.8675 74.5371 14.145 73.9971 14.7C73.4721 15.24 73.2096 15.99 73.2096 16.95C73.2096 17.91 73.4721 18.675 73.9971 19.245C74.5371 19.8 75.1896 20.0775 75.9546 20.0775C76.7196 20.0775 77.3645 19.8 77.8895 19.245C78.4296 18.69 78.6996 17.9325 78.6996 16.9725Z" fill="black"/>
<path d="M89.178 6.59998V23.25H85.3305V6.59998H89.178Z" fill="black"/>
<path d="M95.8138 6.59998V23.25H91.9663V6.59998H95.8138Z" fill="black"/>
<path d="M110.437 16.77C110.437 17.13 110.415 17.505 110.37 17.895H101.662C101.722 18.675 101.97 19.275 102.405 19.695C102.855 20.1 103.402 20.3025 104.047 20.3025C105.007 20.3025 105.675 19.8975 106.05 19.0875H110.145C109.935 19.9125 109.552 20.655 108.997 21.315C108.457 21.975 107.775 22.4925 106.95 22.8675C106.125 23.2425 105.202 23.43 104.182 23.43C102.952 23.43 101.857 23.1675 100.897 22.6425C99.937 22.1175 99.187 21.3675 98.647 20.3925C98.107 19.4175 97.837 18.2775 97.837 16.9725C97.837 15.6675 98.0995 14.5275 98.6245 13.5525C99.1645 12.5775 99.9145 11.8275 100.875 11.3025C101.835 10.7775 102.937 10.515 104.182 10.515C105.397 10.515 106.477 10.77 107.422 11.28C108.367 11.79 109.102 12.5175 109.627 13.4625C110.167 14.4075 110.437 15.51 110.437 16.77ZM106.5 15.7575C106.5 15.0975 106.275 14.5725 105.825 14.1825C105.375 13.7925 104.812 13.5975 104.137 13.5975C103.492 13.5975 102.945 13.785 102.495 14.16C102.06 14.535 101.79 15.0675 101.685 15.7575H106.5Z" fill="black"/>
<path d="M119.464 19.9875V23.25H117.507C116.112 23.25 115.024 22.9125 114.244 22.2375C113.464 21.5475 113.074 20.43 113.074 18.885V13.89H111.544V10.695H113.074V7.63498H116.922V10.695H119.442V13.89H116.922V18.93C116.922 19.305 117.012 19.575 117.192 19.74C117.372 19.905 117.672 19.9875 118.092 19.9875H119.464Z" fill="black"/>
</g>
</g>
</svg>
