<svg xmlns="http://www.w3.org/2000/svg" width="249" height="250" fill="none"><path fill="#24CCA7" d="M223.21 0h-4.777c-11.045 0-20 8.954-20 20v4.777c0 11.046 8.955 20 20 20h4.777c11.046 0 20-8.954 20-20V20c0-11.046-8.954-20-20-20Z"/><path fill="#fff" d="M221.519 7.21a1.5 1.5 0 0 1 1.514 1.515v.788c2.061.242 3.878.909 5.514 1.939.546.303 1.091.848 1.091 1.696 0 1.09-.909 1.94-2 1.94-.363 0-.727-.122-1.09-.304-1.212-.727-2.424-1.272-3.636-1.575v6.786c5.393 1.333 7.695 3.514 7.695 7.271 0 3.878-3.029 6.483-7.513 6.907v2.121a1.5 1.5 0 0 1-1.515 1.515c-.848 0-1.575-.666-1.575-1.515v-2.181c-2.666-.303-5.09-1.212-7.271-2.787a1.934 1.934 0 0 1-.97-1.697c0-1.09.849-1.939 1.939-1.939.424 0 .849.121 1.152.364 1.636 1.212 3.272 2 5.21 2.363v-6.908c-5.15-1.333-7.573-3.271-7.573-7.27 0-3.818 3.029-6.423 7.452-6.787v-.727c.061-.848.727-1.515 1.576-1.515Zm-1.394 12.058v-6.302c-2.242.243-3.393 1.394-3.393 2.97 0 1.514.666 2.423 3.393 3.332Zm2.787 4.908v6.423c2.242-.243 3.515-1.394 3.515-3.09 0-1.515-.788-2.485-3.515-3.333Z"/><path fill="#FFD8D0" d="M42.956 152.387c.303-7.574.182-15.147-.303-22.721-1.03-15.572-3.575-31.084-7.09-46.292-1.999-8.543-4.423-16.966-6.967-25.388-.06-.242-.485-.182-.424.06 7.876 29.63 14.3 60.228 13.875 91.009-.121 8.604-1.151 17.087-1.939 25.63 0 .242.364.303.424.061 1.636-7.15 2.12-14.845 2.424-22.359Z"/><path fill="#FFD8D0" d="M28.172 58.107s-11.937 30.296-9.27 37.385c2.665 7.089 8.179 8.604 8.179 8.604s-7.271 10.422-2.181 20.177c5.09 9.755 16.42 9.331 17.208 20.359-.061.06.606-46.232-13.936-86.525Z"/><path fill="#263238" d="M40.775 125.606v-.182c-1.697-20.601-5.332-41.08-11.573-60.894 0-.06-.122-.06-.122 0 2.364 8.846 4.484 17.753 6.241 26.72-1.575-1.575-3.574-2.484-5.695-3.15-.06 0-.06.06 0 .06 2.181.97 4.302 2.06 5.877 3.939.364 1.757.667 3.514 1.03 5.271-2.666-2.969-6.362-4.483-10.058-5.877-.06 0-.06.06 0 .06 3.878 1.576 7.695 3.576 10.3 6.908a414.751 414.751 0 0 1 2.424 15.148c-1.939-2.06-4.362-3.393-7.089-4.06-.06 0-.121.121-.06.121 2.847.788 5.27 2.424 7.21 4.605l.06.061c.243 1.757.485 3.575.667 5.332-1.515-1.272-3.15-2.242-4.969-3.03-.06 0-.06.061 0 .061 1.879.788 3.515 1.939 4.969 3.333h.06c.182 1.696.425 3.393.546 5.089a24.127 24.127 0 0 0-10.119-7.21c-.06 0-.121.06-.06.121a25.802 25.802 0 0 1 9.936 7.695c.061.061.182.121.243.061.242 2.605.484 5.211.666 7.816 0 .061.06.061.06 0a177.327 177.327 0 0 0-.544-7.998Z"/><path fill="#263238" d="M31.201 85.07c-2.06-1.393-4.726-1.999-7.15-2.241-.06 0-.06.06 0 .12 2.545.364 4.726 1.334 7.09 2.303.06.06.12-.12.06-.181ZM32.655 117.123c-1.636-.969-3.514-1.515-5.392-1.818-.06 0-.06.061 0 .122 1.878.363 3.575 1.03 5.332 1.878.06 0 .121-.121.06-.182Z"/><path fill="#FFD8D0" d="M74.342 95.977c-4.968 3.514-9.755 7.513-13.815 12.057-4.302 4.848-7.452 10.301-9.694 16.421-4.484 12.481-6.968 25.993-7.21 39.263-.122 7.453.545 14.784 2.12 22.055.06.242.424.182.424-.061a123.08 123.08 0 0 1 .242-38.596c2.06-12.543 5.272-26.115 13.21-36.294 4.362-5.514 9.755-9.877 15.087-14.421.303-.243-.06-.606-.364-.424Z"/><path fill="#FFD8D0" d="M45.38 154.69s4.12-6.908 10.058-12.846 10.967-10.179 11.754-14.117c.788-3.939-5.998-6.847-5.998-6.847s8.24 1.454 10.543-2c2.242-3.453 3.332-23.51 3.332-23.51s-15.027 10.726-21.995 25.752c-6.968 15.027-7.695 33.568-7.695 33.568Z"/><path fill="#263238" d="M69.919 100.521c-6.302 6.18-12.664 12.845-16.42 20.965-1.273 2.787-2.363 5.695-3.333 8.664a62.353 62.353 0 0 1-.545 1.757s0 .061-.06.122c-1.819 6.059-3.151 12.36-4.242 18.541 0 .06.06.06.06 0 .667-3.151 1.333-6.302 2.182-9.453h.06c1.273-.545 2.545-.848 3.939-1.03.06 0 .06-.182 0-.182a14.134 14.134 0 0 0-3.878.728c.727-2.848 1.515-5.696 2.424-8.483 2.908-.727 5.938-1.091 8.907-1.151.06 0 .06-.061 0-.061-3.03-.121-5.817.121-8.786.727.181-.485.303-.969.485-1.454 1.938-.424 3.938-.848 5.937-1.03.061 0 .061-.061 0-.061-1.938.061-3.877.243-5.816.727.787-2.423 1.696-4.786 2.666-7.149.787-1.939 1.757-3.757 2.847-5.514 1.576-.364 3.151-.727 4.787-.849.06 0 .06-.06 0-.06-1.515-.121-3.03 0-4.484.424a80.862 80.862 0 0 1 2.485-3.757c3.393-.727 6.786-1.454 10.24-.787.06 0 .06-.061 0-.122-3.272-.848-6.544-.363-9.816.303.363-.484.727-.969 1.09-1.393 2.06-.667 4.12-.97 6.302-.97.06 0 .06-.06 0-.06-2-.182-3.939 0-5.877.545 2.787-3.454 5.877-6.726 8.907-9.937.181-.061.06-.182-.061 0Z"/><path fill="#263238" d="M69.737 114.154c-.97-.121-2-.242-2.969-.121-.12 0-.12.182 0 .242.97 0 2-.06 2.97 0 .06 0 .06-.121 0-.121ZM58.952 133.665c-1.575 0-3.15.424-4.605.908-.06 0 0 .061 0 .061 1.515-.364 3.09-.485 4.605-.788.121 0 .121-.181 0-.181ZM55.68 126.939c-.666-.061-1.333.061-1.939.182-.06 0-.06.121 0 .121.667 0 1.333 0 2-.121.06 0 .06-.182-.061-.182Z"/><path fill="#FFD8D0" d="M1.39 117.305c4.848 1.697 9.634 3.817 13.936 6.544 4.605 2.908 8.422 6.604 11.634 11.028 6.544 9.028 11.633 19.449 14.905 30.113 1.818 5.999 2.97 12.119 3.393 18.36 0 .242-.303.242-.363.06-1.394-10.785-4.484-21.328-9.089-31.204-4.544-9.634-10.3-19.935-19.086-26.358-4.787-3.453-10.18-5.756-15.512-8.179-.303-.061-.12-.485.182-.364Z"/><path fill="#FFD8D0" d="M38.35 158.144s-4.907-4.605-11.087-8.059c-6.18-3.454-11.27-5.696-12.785-8.725-1.515-3.03 3.272-6.908 3.272-6.908s-6.362 3.091-8.968.849C6.177 132.998.663 117.063.663 117.063s14.603 5.211 23.752 15.754c9.089 10.421 13.936 25.327 13.936 25.327Z"/><path fill="#263238" d="M37.624 154.811c-7.332-13.754-17.087-26.175-30.478-34.355 3.515 2.242 6.787 4.847 9.816 7.634-2.726-.06-5.453.364-7.877 1.636-.06 0 0 .121.06.061 2.667-.909 5.272-1.515 8.12-1.394.06 0 .06 0 .121-.06.485.424.97.909 1.394 1.393a23.958 23.958 0 0 0-4.18.546c-.061 0 0 .06 0 .06 1.514-.303 2.908-.363 4.422-.363a105.961 105.961 0 0 1 6.908 7.816c-.97-.121-2-.061-2.97.242-.06 0-.06.121 0 .121 1.091-.121 2.06-.121 3.151-.06.425.485.788 1.03 1.212 1.515-3.03-.182-5.938.121-8.907.848-.06 0-.06.061 0 .061 3.03-.606 6.06-.788 9.15-.606.363.484.727 1.03 1.09 1.514-1.817-.06-3.514.182-5.271.606-.06 0-.06.122 0 .122 1.818-.425 3.635-.485 5.453-.425a160.184 160.184 0 0 1 4.544 6.605c-.787-.182-1.575-.061-2.302.121-.06 0 0 .061 0 .061.848-.122 1.636 0 2.484.121 1.333 1.999 2.545 4.059 3.757 6.12.121.363.363.242.303.06Z"/><path fill="#263238" d="M26.233 143.42c-1.454-.121-2.909.121-4.242.545-.06 0 0 .061 0 .061 1.394-.243 2.788-.364 4.242-.424.06 0 .06-.182 0-.182ZM13.448 126.697a6.818 6.818 0 0 0-1.94.121c-.06 0-.06.121 0 .121.667-.06 1.273-.06 1.94-.06.121 0 .121-.182 0-.182Z"/><path fill="#455A64" d="M57.255 203.769H24.233l4.666-34.477 1.211-8.846h21.208l1.211 8.846 4.726 34.477Z"/><path fill="#263238" d="M52.53 169.292H28.898l1.211-8.846h21.208l1.211 8.846Z"/><path fill="#455A64" d="M54.347 157.356H27.081v7.513h27.266v-7.513Z"/><path fill="#EBEBEB" d="M55.68 30.78H39.623v6.787H55.68V30.78ZM46.712 39.324H30.656v6.786h16.056v-6.786Z"/><path fill="#4A56E2" d="M128.814 250c66.258 0 119.971-7.731 119.971-17.269 0-9.537-53.713-17.268-119.971-17.268-66.258 0-119.971 7.731-119.971 17.268 0 9.538 53.713 17.269 119.971 17.269Z"/><path fill="#263238" d="M183.649 13.754v195.104c0 5.757-4.605 10.422-10.24 10.422H72.525c-5.636 0-10.24-4.665-10.24-10.422V13.754c0-5.756 4.605-10.421 10.24-10.421H173.47c5.574.06 10.179 4.726 10.179 10.421Z"/><path fill="#fff" d="M177.287 23.57v178.926c0 5.454-4.12 9.877-9.149 9.877H77.856c-5.09 0-9.149-4.423-9.149-9.877V23.57c0-11.149 4.12-13.633 9.15-13.633h18.056c1.03 0 1.878 1.212 1.878 2.666v.667c0 3.453 1.878 3.514 4.241 3.514h41.808c2.364 0 4.242 0 4.242-3.514v-.667c0-1.454.848-2.666 1.878-2.666h18.117c5.09.06 9.21 3.454 9.21 13.633Z"/><path fill="#fff" d="M128.693 12.421h-11.391a.737.737 0 0 1-.728-.727c0-.363.303-.727.728-.727h11.391c.363 0 .727.303.727.727-.061.424-.364.727-.727.727Z"/><path fill="#4A56E2" d="m166.138 89.554.121 48.413a4.888 4.888 0 0 1-4.908 4.908l-76.769.181a4.887 4.887 0 0 1-4.908-4.908l-.12-48.412a4.5 4.5 0 0 1 4.543-4.544l77.436-.182c2.545 0 4.605 2.06 4.605 4.544Z"/><path fill="#37474F" d="M153.733 131.824a4.483 4.483 0 1 0-8.878-1.263 4.485 4.485 0 0 0 8.878 1.263Z"/><path fill="#FFC727" d="M159.352 131.18c0 2.485-2 4.484-4.484 4.545-2.484 0-4.484-2-4.544-4.484 0-2.484 1.999-4.484 4.484-4.544 2.484 0 4.544 1.999 4.544 4.483ZM100.578 104.763H89.43a2.56 2.56 0 0 1-2.545-2.545v-6.12a2.56 2.56 0 0 1 2.544-2.545h11.149a2.56 2.56 0 0 1 2.545 2.545v6.12c0 1.393-1.151 2.484-2.545 2.545Z"/><path fill="#fff" d="M156.141 99.491h-7.332a3.103 3.103 0 0 1-3.09-3.09 3.103 3.103 0 0 1 3.09-3.09h7.332a3.103 3.103 0 0 1 3.09 3.09c0 1.757-1.333 3.09-3.09 3.09Z"/><path fill="#F8F8F8" d="m86.34 115.003-.667.363h-.06c-.061 0-.122-.061-.122-.061-.06-.06 0-.181.06-.242l.91-.545c.06-.061.181 0 .242.06V119.002c0 .06-.06.181-.182.181-.06 0-.182-.06-.182-.181v-3.999ZM87.794 118.941l2.18-2c.243-.242.425-.545.425-.909a1.15 1.15 0 0 0-.303-.787c-.242-.243-.545-.424-.909-.424-.303 0-.606.121-.848.303l-.242.181a.183.183 0 0 1-.243 0c-.06-.06-.06-.181 0-.242l.243-.242c.303-.243.666-.425 1.03-.425.424 0 .848.182 1.15.485.304.303.425.667.425 1.03 0 .424-.182.849-.485 1.152l-1.878 1.696h2.242c.06 0 .182.061.182.182 0 .06-.061.182-.182.182h-2.606c-.06 0-.12 0-.12-.061-.122.061-.122-.061-.061-.121ZM94.64 114.821l-1.212 1.272c.303.061.606.182.788.424.303.303.485.727.485 1.152a1.655 1.655 0 0 1-1.636 1.636c-.424 0-.788-.182-1.151-.485a.185.185 0 0 1 0-.243c.06-.06.181-.06.242 0 .242.243.545.364.909.364.303 0 .666-.121.909-.364.242-.242.363-.545.363-.908 0-.303-.12-.667-.363-.909a1.23 1.23 0 0 0-.909-.364c-.06 0-.121 0-.121-.06a.185.185 0 0 1 0-.243l1.151-1.212h-1.818c-.12 0-.181-.06-.181-.181 0-.122.06-.182.181-.182h2.182c.12 0 .181.06.181.182.06 0 0 .06 0 .121 0 0 0-.061 0 0ZM98.579 118.274h-2.545c-.06 0-.06 0-.121-.06-.06-.061-.06-.182 0-.242l2.726-3.394c.061-.06.182-.06.243 0l.06.061v3.211h.303c.121 0 .182.061.182.182 0 .061-.06.182-.182.182h-.303v.788c0 .06-.06.181-.181.181-.061 0-.182-.06-.182-.181v-.728Zm0-.363v-2.787l-2.242 2.787h2.242ZM104.517 118.759c-.061-.06-.061-.182 0-.242.06-.061.181-.061.242 0 .242.242.545.363.909.363.303 0 .666-.121.909-.363.242-.242.363-.545.363-.909 0-.303-.121-.666-.363-.909a1.236 1.236 0 0 0-.909-.363c-.303 0-.667.121-.909.363-.061.061-.182.061-.242 0l-.061-.06v-.122l.242-1.878c0-.061 0-.121.061-.121 0 0 .061-.061.121-.061h2.181c.122 0 .182.061.182.182s-.06.182-.182.182h-2.06l-.181 1.393c.242-.121.545-.242.787-.242.424 0 .788.121 1.152.485.302.303.484.727.484 1.151 0 .424-.121.848-.484 1.151a1.658 1.658 0 0 1-1.152.485c-.363-.061-.787-.182-1.09-.485ZM109.001 115.487c.302-.545.848-.969 1.635-1.03.061 0 .182.061.182.182s-.06.182-.182.182c-.666 0-1.09.363-1.393.848-.182.303-.242.606-.364.97.303-.303.727-.546 1.152-.546.848 0 1.575.667 1.575 1.576 0 .848-.667 1.575-1.575 1.575-.849 0-1.515-.667-1.576-1.515v-.303c.061-.666.182-1.333.546-1.939Zm-.122 2.182v.121a1.24 1.24 0 0 0 1.212 1.09c.667 0 1.212-.545 1.212-1.211 0-.667-.545-1.212-1.272-1.212-.606-.061-1.152.485-1.152 1.212ZM113.363 118.941l1.757-4.12h-2.302c-.061 0-.182-.061-.182-.182 0-.061.061-.182.182-.182h2.605c.061 0 .061.061.061.121v.122l-1.818 4.362c0 .061-.061.121-.121.121h-.061c-.121-.06-.121-.181-.121-.242ZM118.029 114.457c.545 0 .969.424.969.97 0 .303-.182.606-.424.787.545.243.969.788.969 1.394a1.5 1.5 0 0 1-1.514 1.515 1.5 1.5 0 0 1-1.515-1.515c0-.606.363-1.212.969-1.394-.242-.181-.363-.484-.363-.787-.061-.546.363-.97.909-.97Zm0 4.363c.666 0 1.211-.545 1.211-1.212 0-.666-.545-1.212-1.211-1.212-.667 0-1.212.546-1.212 1.212 0 .727.545 1.212 1.212 1.212Zm0-2.727a.672.672 0 0 0 .666-.666.672.672 0 0 0-.666-.667.673.673 0 0 0-.667.667c0 .363.303.666.667.666ZM126.39 114.457c.788 0 1.454.606 1.576 1.394v.485c0 .606-.122 1.333-.424 1.878-.303.545-.849.969-1.636 1.03-.122 0-.182-.061-.182-.182s.06-.182.182-.182c.666 0 1.09-.363 1.393-.848.182-.303.303-.606.364-.969-.303.303-.727.545-1.152.545a1.564 1.564 0 0 1-1.575-1.575c-.061-.909.606-1.576 1.454-1.576Zm1.273 1.515c0-.666-.546-1.212-1.212-1.212-.667 0-1.212.546-1.212 1.212 0 .667.545 1.212 1.212 1.212.666 0 1.212-.545 1.212-1.212ZM129.177 116.76c0-.606.182-1.212.425-1.636.302-.425.727-.728 1.151-.728.484 0 .909.303 1.151.728.303.424.485 1.03.485 1.636 0 .605-.182 1.211-.424 1.636-.303.424-.728.727-1.152.727-.484 0-.909-.303-1.151-.727-.303-.425-.485-.97-.485-1.636Zm.303 0c0 .605.182 1.09.424 1.454.243.363.546.545.909.545.364 0 .667-.182.909-.545.243-.364.424-.909.424-1.454 0-.606-.181-1.091-.424-1.455-.242-.363-.545-.545-.909-.545-.363 0-.666.182-.909.545a2.749 2.749 0 0 0-.424 1.455ZM134.631 114.881l-.667.364h-.061c-.06 0-.121-.061-.121-.061-.06-.06 0-.182.061-.242l.909-.546c.06-.06.182 0 .242.061v4.423c0 .061-.06.182-.182.182-.06 0-.181-.061-.181-.182v-3.999ZM136.085 118.82l2.181-2c.243-.242.424-.545.424-.909 0-.303-.121-.606-.303-.787-.242-.243-.545-.424-.909-.424-.303 0-.605.121-.848.302l-.242.182a.184.184 0 0 1-.243 0c-.06-.06-.06-.182 0-.242l.243-.242c.303-.243.666-.425 1.03-.425.424 0 .848.182 1.151.485.303.303.424.667.424 1.03 0 .424-.182.848-.484 1.151l-1.879 1.697h2.242c.061 0 .182.061.182.182 0 .06-.061.182-.182.182h-2.605c-.061 0-.122 0-.122-.061-.121.061-.121-.061-.06-.121ZM146.931 114.699l-1.212 1.273c.303.06.606.182.788.424.303.303.484.727.484 1.151a1.652 1.652 0 0 1-1.636 1.636c-.424 0-.787-.182-1.151-.485-.06-.06-.06-.181 0-.242.061-.06.182-.06.242 0 .243.242.546.364.909.364.303 0 .667-.122.909-.364a1.23 1.23 0 0 0 .364-.909c0-.303-.121-.666-.364-.909a1.233 1.233 0 0 0-.909-.363c-.06 0-.121 0-.121-.061-.06-.06-.06-.182 0-.242l1.151-1.212h-1.817c-.121 0-.182-.061-.182-.182s.061-.182.182-.182h2.181c.121 0 .182.061.182.182.06 0 .06 0 0 .121.06-.06.06-.06 0 0ZM150.93 118.093h-2.545c-.061 0-.061 0-.121-.061-.061-.061-.061-.182 0-.242l2.726-3.393a.184.184 0 0 1 .243 0l.06.06v3.211h.303c.121 0 .182.061.182.182 0 .061-.061.182-.182.182h-.303v.788c0 .06-.06.181-.182.181-.06 0-.181-.06-.181-.181v-.727Zm0-.303v-2.788l-2.242 2.788h2.242ZM152.808 118.638c-.061-.061-.061-.182 0-.242.061-.061.182-.061.242 0 .243.242.546.363.909.363.303 0 .667-.121.909-.363.242-.243.364-.546.364-.909 0-.303-.122-.667-.364-.909a1.23 1.23 0 0 0-.909-.364c-.303 0-.666.121-.909.364-.06.06-.181.06-.242 0l-.061-.061v-.121l.243-1.878c0-.061 0-.121.06-.121 0 0 .061-.061.122-.061h2.181c.121 0 .182.061.182.182s-.061.181-.182.181h-2.06l-.182 1.394c.242-.121.545-.242.788-.242.424 0 .787.121 1.151.484.303.303.485.728.485 1.152 0 .424-.122.848-.485 1.151a1.655 1.655 0 0 1-1.151.485c-.364-.061-.788-.182-1.091-.485ZM157.292 115.366c.303-.545.848-.969 1.636-1.03.06 0 .182.061.182.182s-.061.181-.182.181c-.667 0-1.091.364-1.394.849-.182.303-.242.606-.363.969.303-.303.727-.545 1.151-.545.848 0 1.575.666 1.575 1.575 0 .849-.666 1.576-1.575 1.576-.848 0-1.515-.667-1.576-1.515v-.303c.061-.667.182-1.394.546-1.939Zm-.121 2.181v.121a1.24 1.24 0 0 0 1.211 1.091c.667 0 1.212-.545 1.212-1.212 0-.666-.545-1.212-1.272-1.212-.606-.06-1.151.485-1.151 1.212Z"/><path fill="#263238" d="m128.085 127.25-41.142.106.005 2 41.142-.107-.005-1.999ZM116.027 131.749l-29.084.075.005 2 29.084-.076-.005-1.999ZM142.869 93.406l-20.48.053.005 2 20.48-.054-.005-2ZM80.22 75.376c0-.061.06-.182.181-.182h1.212a1.28 1.28 0 0 1 1.273 1.272 1.28 1.28 0 0 1-1.273 1.273h-1.09v1.757c0 .06-.061.182-.182.182-.06 0-.182-.061-.182-.182v-4.12h.06Zm1.393 2.12c.546 0 .97-.424.97-.97a.957.957 0 0 0-.97-.969h-1.09v1.94h1.09ZM86.46 76.709v2.787c0 .06-.06.182-.181.182-.06 0-.182-.06-.182-.182v-.485a1.379 1.379 0 0 1-1.151.606c-.788 0-1.454-.727-1.454-1.575 0-.849.666-1.576 1.454-1.576.484 0 .909.243 1.151.606v-.484c0-.061.06-.182.182-.182.121.181.181.242.181.303Zm-.302 1.393c0-.666-.546-1.272-1.152-1.272-.606 0-1.15.545-1.15 1.272 0 .667.544 1.273 1.15 1.273.606 0 1.152-.546 1.152-1.273ZM87.733 76.709c0-.06.06-.121.121-.121.06 0 .182.06.182.12v1.697c0 .546.424.97.97.97.545 0 .969-.424.969-.97V76.65l.06-.061s.061 0 .061.06l.06.06V79.497c0 .788-.666 1.454-1.454 1.454-.242 0-.424-.06-.666-.121-.06-.06-.121-.121-.06-.182.06-.06.12-.12.181-.06.182.06.303.12.485.12.666 0 1.151-.484 1.151-1.15v-.182c-.242.242-.545.424-.97.424a1.28 1.28 0 0 1-1.272-1.272v-1.818h.182ZM96.095 77.86a.957.957 0 0 0-.97-.97.957.957 0 0 0-.97.97v1.697c0 .06-.06.06-.06.06h-.121v-1.696a.957.957 0 0 0-.97-.97.957.957 0 0 0-.969.97v1.696c0 .06 0 .121-.06.121h-.061a.13.13 0 0 1-.121-.12v-2.909c0-.06.06-.121.12-.121.061 0 .183.06.183.12v.304c.242-.243.545-.424.969-.424.485 0 .909.242 1.09.666.243-.363.667-.666 1.091-.666a1.28 1.28 0 0 1 1.273 1.272v1.697c0 .06-.06.12-.182.12a.13.13 0 0 1-.121-.12V77.86h-.121ZM97.488 78.163c0-.848.667-1.575 1.515-1.575.788 0 1.454.606 1.515 1.454 0 .06-.061.121-.182.121h-2.545c.06.666.545 1.212 1.212 1.212.424 0 .788-.243.97-.546.06-.06.121-.06.181-.06.061.06.121.121.061.242a1.478 1.478 0 0 1-1.273.727 1.585 1.585 0 0 1-1.454-1.575Zm.303-.303h2.363c-.121-.606-.606-1.03-1.151-1.03-.606.06-1.09.485-1.212 1.03ZM103.79 77.86a.957.957 0 0 0-.97-.97.957.957 0 0 0-.969.97v1.697s0 .06-.061.06c0 .06-.06.06-.121.06h-.061c-.06 0-.06-.06-.121-.06V76.77c0-.061.061-.182.182-.182.061 0 .121.06.121.181v.303c.243-.242.545-.424.97-.424a1.28 1.28 0 0 1 1.272 1.273v1.696c0 .06-.061.182-.182.182-.06 0-.182-.06-.182-.182V77.86h.122ZM106.516 76.709c0 .06-.06.182-.181.182h-.364v2.241c0 .182.182.243.242.243.061 0 .182.06.182.182 0 .06-.06.181-.182.181a.543.543 0 0 1-.545-.545v-2.242h-.364c-.181 0-.181-.06-.181-.182 0-.06 0-.181.181-.181h.364v-1.152c0-.06.061-.181.182-.181.06 0 .182.06.182.181v1.152h.424s.06.06.06.12ZM114.272 77.86a.957.957 0 0 0-.97-.97.957.957 0 0 0-.969.97v1.697c0 .06-.061.06-.061.06h-.121v-1.696a.957.957 0 0 0-.969-.97.957.957 0 0 0-.97.97v1.696c0 .06 0 .121-.06.121h-.061c-.06 0-.121-.06-.121-.12v-2.909c0-.06.061-.121.121-.121.061 0 .182.06.182.12v.304c.242-.243.545-.424.969-.424.485 0 .909.242 1.091.666.242-.363.667-.666 1.091-.666a1.28 1.28 0 0 1 1.272 1.272v1.697c0 .06-.061.12-.182.12-.06 0-.121-.06-.121-.12V77.86h-.121ZM115.666 78.163c0-.848.666-1.575 1.514-1.575.788 0 1.455.606 1.515 1.454 0 .06-.06.121-.182.121h-2.545c.061.666.546 1.212 1.212 1.212.424 0 .788-.243.97-.546.06-.06.121-.06.182-.06.06.06.121.121.06.242a1.476 1.476 0 0 1-1.272.727 1.585 1.585 0 0 1-1.454-1.575Zm.302-.303h2.364c-.122-.606-.606-1.03-1.152-1.03-.606.06-1.09.485-1.212 1.03ZM120.573 76.709c0 .06-.06.182-.181.182h-.424v2.241c0 .182.181.243.242.243.06 0 .182.06.182.182 0 .06-.061.181-.182.181a.543.543 0 0 1-.545-.545v-2.242h-.364c-.182 0-.182-.06-.182-.182 0-.06 0-.181.182-.181h.364v-1.152c0-.06.06-.181.181-.181.061 0 .182.06.182.181v1.152h.424a.13.13 0 0 1 .121.12ZM124.148 77.8c0-.546-.424-.91-.969-.91-.545 0-.97.364-.97.91v1.696c0 .06-.06.06-.121.06-.06 0-.06 0-.121-.06v-4.242c0-.06.061-.181.182-.181.06 0 .182.06.182.181v1.636c.242-.302.606-.484.969-.484.727 0 1.272.484 1.272 1.212v1.696c0 .06-.06.182-.181.182-.061 0-.121-.06-.121-.182V77.8h-.122ZM127.117 76.588c.788 0 1.455.727 1.455 1.575s-.667 1.575-1.455 1.575c-.787 0-1.454-.727-1.454-1.575a1.466 1.466 0 0 1 1.454-1.575Zm0 2.787c.606 0 1.152-.546 1.152-1.273 0-.666-.546-1.272-1.152-1.272-.606 0-1.151.545-1.151 1.272a1.148 1.148 0 0 0 1.151 1.273ZM132.207 79.072c-.242.364-.727.606-1.212.606a1.5 1.5 0 0 1-1.515-1.515c0-.848.667-1.575 1.515-1.575.485 0 .909.242 1.212.606v-1.758c0-.06.061-.181.182-.181.06 0 .121.06.121.181V79.557c0 .06-.061.181-.121.181-.061 0-.182-.06-.182-.181v-.485Zm0-.909v-.121c0-.667-.545-1.212-1.212-1.212-.666 0-1.212.545-1.212 1.272 0 .667.546 1.212 1.212 1.212.667.06 1.212-.484 1.212-1.151ZM81.37 45.747h-1.332c-.06 0-.182-.061-.182-.182 0-.06.06-.182.182-.182h2.969c.06 0 .182.06.182.182 0 .06-.061.182-.182.182h-1.333v3.938c0 .06-.06.182-.182.182-.06 0-.182-.06-.182-.182v-3.938h.06ZM84.703 46.777c.788 0 1.454.727 1.454 1.575s-.666 1.575-1.454 1.575c-.787 0-1.454-.727-1.454-1.575s.667-1.575 1.454-1.575Zm0 2.787c.606 0 1.152-.545 1.152-1.273 0-.666-.546-1.272-1.152-1.272-.606 0-1.15.545-1.15 1.272 0 .728.544 1.273 1.15 1.273ZM88.339 46.958c0 .06-.06.182-.182.182h-.363v2.242c0 .182.181.242.242.242.06 0 .182.061.182.182 0 .06-.06.182-.182.182a.543.543 0 0 1-.545-.545V47.2h-.364c-.182 0-.182-.06-.182-.182 0-.06 0-.182.182-.182h.364v-1.151c0-.06.06-.182.181-.182.061 0 .182.06.182.182v1.151h.424c-.06-.06.06.06.06.121ZM92.156 46.959v2.787c0 .06-.06.181-.182.181-.06 0-.181-.06-.181-.181v-.485a1.379 1.379 0 0 1-1.152.606c-.787 0-1.454-.727-1.454-1.575 0-.849.667-1.576 1.454-1.576.485 0 .91.242 1.152.606v-.485c0-.06.06-.181.181-.181.122.12.182.181.182.303Zm-.303 1.393c0-.666-.545-1.272-1.151-1.272s-1.151.545-1.151 1.272c0 .667.545 1.273 1.151 1.273a1.259 1.259 0 0 0 1.151-1.273ZM93.61 45.625c0-.06.06-.181.182-.181.06 0 .182.06.182.181v4.12c0 .061-.06.182-.182.182-.06 0-.182-.06-.182-.181v-4.12ZM97.064 48.413v-1.455c0-.06.06-.181.182-.181.06 0 .182.06.182.181v.425a1.379 1.379 0 0 1 1.15-.606 1.5 1.5 0 0 1 1.516 1.514 1.5 1.5 0 0 1-1.515 1.515c-.485 0-.909-.242-1.151-.606v1.757c0 .061-.061.182-.182.182-.06 0-.182-.06-.182-.182v-2.544Zm.303-.061c0 .667.545 1.212 1.151 1.212.667 0 1.212-.545 1.212-1.212 0-.666-.545-1.212-1.212-1.212-.606-.06-1.09.485-1.151 1.212ZM101.245 46.958c0-.06.06-.181.182-.181.06 0 .121.06.121.181v.667s0-.06.06-.06c.243-.364.667-.788 1.212-.788.061 0 .182.06.182.181 0 .061-.061.182-.182.182-.424 0-.666.242-.909.485-.181.303-.303.606-.363.727V49.746c0 .06-.061.181-.121.181-.061 0-.182-.06-.182-.181v-2.788ZM104.032 45.928c0-.06.061-.181.182-.181.06 0 .182.06.182.181v.122c0 .06-.061.181-.182.181-.061 0-.182-.06-.182-.181v-.122Zm0 1.03c0-.06.061-.181.182-.181.06 0 .182.06.182.181v2.788c0 .06-.061.181-.182.181-.061 0-.182-.06-.182-.181v-2.788ZM105.547 48.352c0-.848.727-1.515 1.575-1.515.364 0 .727.121.97.364.06.06.06.12 0 .181-.061.061-.121.061-.182 0-.242-.181-.485-.302-.788-.302-.727 0-1.272.545-1.272 1.272a1.28 1.28 0 0 0 1.272 1.272c.303 0 .606-.12.788-.242.061-.06.182-.06.182 0 .06.06.06.182-.061.242a1.676 1.676 0 0 1-.969.303c-.788-.06-1.515-.727-1.515-1.575ZM109.122 48.352c0-.848.666-1.575 1.514-1.575.788 0 1.455.605 1.515 1.454 0 .06-.06.121-.181.121h-2.545c.06.667.545 1.212 1.211 1.212.425 0 .788-.242.97-.545.061-.061.121-.061.182-.061.06.06.121.121.06.242a1.476 1.476 0 0 1-1.272.727 1.585 1.585 0 0 1-1.454-1.575Zm.303-.242h2.363c-.121-.606-.606-1.03-1.152-1.03-.605 0-1.09.424-1.211 1.03Z"/><path fill="#24CCA7" d="M83.855 53.987c.303 0 .545.242.545.545v.303c.727.06 1.394.303 1.94.667.181.12.363.303.363.605 0 .364-.303.667-.727.667-.121 0-.243-.06-.364-.121-.424-.242-.848-.485-1.333-.545v2.423c1.94.485 2.727 1.273 2.727 2.606 0 1.393-1.09 2.302-2.727 2.484v.788a.543.543 0 0 1-.545.545.543.543 0 0 1-.545-.545v-.788c-.97-.121-1.818-.424-2.606-.97a.666.666 0 0 1-.363-.606c0-.363.303-.666.666-.666.182 0 .303.06.424.121.606.424 1.151.727 1.879.848v-2.484c-1.879-.484-2.727-1.151-2.727-2.605 0-1.333 1.09-2.303 2.666-2.424v-.303c.182-.303.424-.545.727-.545Zm-.545 4.302v-2.242c-.788.06-1.212.485-1.212 1.09 0 .546.242.849 1.212 1.152Zm1.03 1.757v2.302c.787-.06 1.272-.484 1.272-1.09 0-.546-.303-.91-1.272-1.212ZM94.337 60.652c0 1.636-1.333 3.03-3.03 3.03a3 3 0 0 1-3.029-3.03c0-1.03.545-2 1.333-2.545-.242-.364-.424-.788-.424-1.273 0-1.15.909-2.06 2.12-2.06 1.152 0 2.06.91 2.06 2.06 0 .485-.18.91-.423 1.273a2.977 2.977 0 0 1 1.393 2.545Zm-1.393 0a1.63 1.63 0 0 0-1.636-1.636 1.63 1.63 0 0 0-1.636 1.636 1.63 1.63 0 0 0 1.636 1.636c.909 0 1.636-.788 1.636-1.636Zm-2.363-3.818c0 .364.303.728.727.728.363 0 .666-.303.666-.727a.672.672 0 0 0-.666-.667c-.424 0-.727.303-.727.666ZM96.337 57.865a3.103 3.103 0 0 1 3.09-3.09c1.575 0 2.908 1.211 3.03 2.726v.727c0 .848-.122 1.757-.424 2.606-.303.848-.849 1.635-1.636 2.18-.546.364-1.152.546-1.879.607-.363 0-.727-.303-.727-.667 0-.363.303-.666.667-.727.484 0 .848-.182 1.211-.363.303-.243.606-.485.788-.91.061-.12.121-.242.182-.302-.364.182-.788.242-1.212.242-1.757 0-3.09-1.333-3.09-3.03Zm1.394 0c0 .908.727 1.696 1.696 1.696.909 0 1.636-.788 1.636-1.696a1.63 1.63 0 0 0-1.636-1.636c-.97-.061-1.697.666-1.697 1.636ZM104.456 64.772c.606-.182.909-.606.848-1.151-.363-.121-.727-.424-.727-.848v-.122c0-.484.364-.848.849-.848.545 0 .908.424.908 1.09v.122c0 .848-.242 1.454-.605 1.878-.364.303-.849.546-1.212.546-.243 0-.364-.182-.364-.364 0-.121.121-.242.303-.303ZM107.243 57.865a3.103 3.103 0 0 1 3.09-3.09c1.576 0 2.909 1.211 3.03 2.726v.727c0 .848-.121 1.757-.424 2.606-.303.848-.848 1.635-1.636 2.18-.545.364-1.151.546-1.878.607-.364 0-.728-.303-.728-.667 0-.363.303-.666.667-.727.485 0 .848-.182 1.212-.363.303-.243.606-.485.787-.91.061-.12.122-.242.182-.302-.363.182-.787.242-1.212.242-1.696 0-3.09-1.333-3.09-3.03Zm1.394 0c0 .908.727 1.696 1.696 1.696.909 0 1.636-.788 1.636-1.696a1.63 1.63 0 0 0-1.636-1.636c-.969-.061-1.696.666-1.696 1.636ZM115.363 57.865a3.103 3.103 0 0 1 3.09-3.09c1.575 0 2.908 1.211 3.029 2.726v.727c0 .848-.121 1.757-.424 2.606-.303.848-.848 1.635-1.636 2.18-.545.364-1.151.546-1.878.607-.364 0-.727-.303-.727-.667 0-.363.303-.666.666-.727.485 0 .849-.182 1.212-.363.303-.243.606-.485.788-.91.06-.12.121-.242.182-.302-.364.182-.788.242-1.212.242-1.697 0-3.09-1.333-3.09-3.03Zm1.393 0c0 .908.727 1.696 1.697 1.696.909 0 1.636-.788 1.636-1.696a1.63 1.63 0 0 0-1.636-1.636c-.97-.061-1.697.666-1.697 1.636Z"/><path fill="#263238" d="M101.669 28.72c0-.06.061-.181.182-.181h1.212a1.28 1.28 0 0 1 1.272 1.272 1.28 1.28 0 0 1-1.272 1.272h-1.091v1.758c0 .06-.061.181-.182.181-.06 0-.182-.06-.182-.181v-4.12h.061Zm1.394 2.121a.957.957 0 0 0 .969-.97.957.957 0 0 0-.969-.969h-1.091v1.939h1.091ZM107.849 30.053v2.788c0 .06-.06.181-.181.181-.061 0-.182-.06-.182-.181v-.485a1.38 1.38 0 0 1-1.151.606c-.788 0-1.455-.727-1.455-1.576 0-.848.667-1.575 1.455-1.575.484 0 .908.242 1.151.606v-.485c0-.06.06-.181.182-.181.121.181.181.242.181.302Zm-.303 1.394c0-.666-.545-1.272-1.151-1.272s-1.151.545-1.151 1.272c0 .667.545 1.272 1.151 1.272.667 0 1.151-.545 1.151-1.272ZM109.122 30.053c0-.06.06-.12.121-.12.06 0 .182.06.182.12v1.697c0 .545.424.97.969.97.545 0 .97-.425.97-.97V29.993l.06-.06s.061 0 .061.06l.06.06V32.841c0 .787-.666 1.454-1.454 1.454-.242 0-.424-.06-.666-.122-.061-.06-.122-.12-.061-.181.061-.06.121-.121.182-.06.182.06.303.12.485.12.666 0 1.151-.484 1.151-1.15v-.183c-.243.243-.546.425-.97.425a1.28 1.28 0 0 1-1.272-1.273v-1.818h.182ZM117.544 31.204a.957.957 0 0 0-.97-.969.957.957 0 0 0-.969.97V32.9c0 .06-.061.06-.061.06h-.121v-1.696a.957.957 0 0 0-.969-.97.957.957 0 0 0-.97.97v1.697c0 .06 0 .12-.06.12h-.061c-.06 0-.121-.06-.121-.12V30.054c0-.061.061-.122.121-.122.061 0 .182.06.182.121v.303c.242-.242.545-.424.969-.424.485 0 .909.242 1.091.667.242-.364.667-.667 1.091-.667a1.28 1.28 0 0 1 1.272 1.273V32.9c0 .06-.061.121-.182.121-.06 0-.121-.06-.121-.12v-1.698h-.121ZM118.877 31.447c0-.848.666-1.575 1.515-1.575.787 0 1.454.605 1.515 1.454 0 .06-.061.121-.182.121h-2.545c.06.667.545 1.212 1.212 1.212.424 0 .787-.243.969-.545.061-.061.121-.061.182-.061.061.06.121.121.061.242a1.479 1.479 0 0 1-1.273.727c-.788 0-1.454-.727-1.454-1.575Zm.363-.242h2.364c-.122-.606-.606-1.03-1.152-1.03-.606.06-1.09.484-1.212 1.03ZM125.178 31.204a.957.957 0 0 0-.969-.969.957.957 0 0 0-.969.97V32.9s0 .06-.061.06c0 .061-.061.061-.121.061h-.061c-.06 0-.06-.06-.121-.06v-2.848c0-.06.061-.182.182-.182.06 0 .121.06.121.182v.303c.242-.243.545-.424.969-.424a1.28 1.28 0 0 1 1.273 1.272v1.697c0 .06-.061.181-.182.181-.061 0-.121-.06-.121-.181v-1.758h.06ZM127.966 30.053c0 .06-.061.182-.182.182h-.424v2.242c0 .182.182.242.242.242.061 0 .182.06.182.182 0 .06-.061.182-.182.182a.543.543 0 0 1-.545-.545v-2.242h-.364c-.121 0-.121-.06-.121-.182 0-.06 0-.182.121-.182h.364v-1.151c0-.06.06-.182.121-.182s.182.06.182.182v1.151h.424c.061 0 .182.06.182.121ZM131.541 33.022c-.122 0-.182-.06-.182-.181v-4.12c0-.061.06-.182.182-.182h.787c1.212 0 2.242.969 2.242 2.241 0 1.212-.969 2.182-2.242 2.182h-.787v.06Zm.787-.303c1.03 0 1.879-.848 1.879-1.878 0-1.03-.849-1.878-1.879-1.939h-.666v3.817h.666ZM137.842 30.053v2.788c0 .06-.06.181-.121.181s-.182-.06-.182-.181v-.485a1.377 1.377 0 0 1-1.151.606c-.788 0-1.454-.727-1.454-1.576 0-.848.666-1.575 1.454-1.575.485 0 .909.242 1.151.606v-.485c0-.06.061-.181.182-.181.061.181.121.242.121.302Zm-.303 1.394c0-.666-.545-1.272-1.151-1.272s-1.151.545-1.151 1.272c0 .667.545 1.272 1.151 1.272.666 0 1.151-.545 1.151-1.272ZM140.266 30.053c0 .06-.061.182-.182.182h-.424v2.242c0 .182.182.242.242.242.061 0 .182.06.182.182 0 .06-.061.182-.182.182a.543.543 0 0 1-.545-.545v-2.242h-.364c-.121 0-.121-.06-.121-.182 0-.06 0-.182.121-.182h.364v-1.151c0-.06.06-.182.121-.182s.182.06.182.182v1.151h.424c.121 0 .182.06.182.121ZM144.143 30.053v2.788c0 .06-.06.181-.181.181-.061 0-.121-.06-.121-.181v-.485a1.38 1.38 0 0 1-1.152.606c-.787 0-1.454-.727-1.454-1.576 0-.848.667-1.575 1.454-1.575.485 0 .909.242 1.152.606v-.485c0-.06.06-.181.121-.181.121.181.181.242.181.302Zm-.302 1.394c0-.666-.546-1.272-1.152-1.272-.606 0-1.151.545-1.151 1.272 0 .667.545 1.272 1.151 1.272s1.152-.545 1.152-1.272Z"/><path fill="#4A56E2" d="m83.007 32.598-2.12-1.939 2.12-1.939.424.424-1.575 1.515 1.575 1.515-.424.424Z"/><path fill="#4A56E2" d="M82.643 34.052a3.388 3.388 0 0 1-3.393-3.393 3.388 3.388 0 0 1 3.393-3.393 3.388 3.388 0 0 1 3.393 3.393 3.388 3.388 0 0 1-3.393 3.393Zm0-6.18a2.78 2.78 0 0 0-2.787 2.787 2.78 2.78 0 0 0 2.787 2.787 2.78 2.78 0 0 0 2.787-2.787c0-1.515-1.272-2.787-2.787-2.787Z"/><path fill="#FFC727" d="M163.29 149.358a6.847 6.847 0 1 0 0-13.694 6.847 6.847 0 0 0 0 13.694Z"/><path fill="#fff" d="m161.291 146.873-2.545-3.938 1.091-.727 1.575 2.545 5.029-6.302.97.788-6.12 7.634Z"/><path fill="#4A56E2" d="M124.936 149.661c0 1.09-.909 1.999-2 1.999a2.017 2.017 0 0 1-1.999-1.999c0-1.091.909-2 1.999-2 1.091 0 2 .909 2 2Z"/><path fill="#EBEBEB" d="M113.666 149.661c0 .787-.667 1.454-1.454 1.454a1.474 1.474 0 0 1-1.454-1.454c0-.788.666-1.454 1.454-1.454.787 0 1.454.666 1.454 1.454ZM135.176 149.661c0 .787-.667 1.454-1.454 1.454a1.475 1.475 0 0 1-1.455-1.454c0-.788.667-1.454 1.455-1.454.787 0 1.454.666 1.454 1.454Z"/><path fill="#263238" d="M80.038 163.718c.06-.061.121-.061.182 0 .303.242.909.606 1.454.545.363 0 .727-.121.97-.303.242-.181.363-.424.363-.666 0-.242-.121-.424-.364-.606-.242-.182-.606-.303-1.03-.364-.424-.06-.787-.181-1.03-.363-.242-.182-.485-.424-.485-.788 0-.363.182-.606.485-.848a2.09 2.09 0 0 1 1.09-.303c.607 0 1.03.303 1.394.485.061.06.061.121.061.181-.06.061-.121.061-.182.061-.363-.242-.727-.485-1.212-.485-.363 0-.666.122-.908.243-.243.181-.364.363-.364.606 0 .242.121.363.303.545.242.182.545.242.97.363.424.061.848.182 1.15.425a.965.965 0 0 1 .485.848c0 .363-.181.666-.484.909-.303.242-.667.363-1.152.363-.666 0-1.272-.363-1.636-.666-.12 0-.12-.121-.06-.182ZM87.006 161.658v2.787c0 .061-.06.182-.182.182-.06 0-.182-.061-.182-.182v-.485a1.378 1.378 0 0 1-1.15.606c-.789 0-1.455-.727-1.455-1.575s.666-1.575 1.454-1.575c.485 0 .909.242 1.151.605v-.484c0-.061.06-.182.182-.182.06.121.182.182.182.303Zm-.303 1.394c0-.667-.545-1.273-1.151-1.273s-1.152.545-1.152 1.273c0 .666.546 1.272 1.152 1.272.606-.061 1.15-.606 1.15-1.272ZM89.187 164.566l-.06-.06-1.152-2.787c-.06-.061 0-.182.06-.182.062-.061.183 0 .183.06l1.03 2.424 1.03-2.424c0-.06.121-.121.181-.06.061.06.122.121.061.182l-1.151 2.726s0 .061-.06.061c0 .06-.061.06-.122.06.06 0 .06 0 0 0ZM91.429 163.051c0-.848.666-1.575 1.515-1.575.787 0 1.454.606 1.514 1.454 0 .061-.06.121-.181.121h-2.545c.06.667.545 1.212 1.212 1.212.424 0 .787-.242.97-.545.06-.061.12-.061.181-.061.06.061.121.122.06.243a1.477 1.477 0 0 1-1.272.727 1.585 1.585 0 0 1-1.454-1.576Zm.364-.242h2.363c-.122-.606-.606-1.03-1.152-1.03-.666 0-1.15.424-1.212 1.03ZM97.185 162.991c0-.848.727-1.515 1.576-1.515.363 0 .727.121.969.364.06.06.06.121 0 .181-.06.061-.121.061-.182 0-.242-.181-.484-.303-.787-.303-.727 0-1.273.546-1.273 1.273a1.28 1.28 0 0 0 1.273 1.272c.303 0 .606-.121.787-.242.06-.061.182-.061.182 0 .06.061.06.182-.06.242a1.675 1.675 0 0 1-.97.303c-.788 0-1.515-.666-1.515-1.575ZM103.608 161.658v2.787c0 .061-.061.182-.182.182-.06 0-.182-.061-.182-.182v-.485a1.377 1.377 0 0 1-1.151.606c-.788 0-1.454-.727-1.454-1.575s.666-1.575 1.454-1.575c.485 0 .909.242 1.151.605v-.484c0-.061.061-.182.182-.182.121.121.182.182.182.303Zm-.303 1.394c0-.667-.545-1.273-1.151-1.273s-1.152.545-1.152 1.273c0 .666.546 1.272 1.152 1.272a1.259 1.259 0 0 0 1.151-1.272ZM104.941 161.658c0-.061.061-.182.182-.182.06 0 .121.061.121.182v.666s0-.06.06-.06c.243-.364.667-.788 1.212-.788.061 0 .182.061.182.182 0 .06-.061.121-.182.121-.424 0-.666.242-.909.485-.181.303-.303.606-.363.727v1.393c0 .061-.061.182-.121.182-.061 0-.182-.06-.182-.182v-2.726ZM110.031 163.96c-.243.364-.728.606-1.212.606a1.5 1.5 0 0 1-1.515-1.515c0-.848.666-1.575 1.515-1.575.484 0 .909.242 1.212.606v-1.757c0-.061.06-.121.181-.121.061 0 .182.06.182.121v4.12c0 .061-.06.182-.182.182-.06 0-.181-.061-.181-.182v-.485Zm0-.848v-.121c0-.667-.546-1.212-1.212-1.212-.667 0-1.212.545-1.212 1.272 0 .667.545 1.212 1.212 1.212.666 0 1.212-.545 1.212-1.151ZM115.847 162.749a.957.957 0 0 0-.969-.97.958.958 0 0 0-.97.97v1.696s0 .061-.06.061c0 .06-.061.06-.121.06h-.061c-.06 0-.06-.06-.121-.06v-2.848c0-.061.061-.182.182-.182.06 0 .121.061.121.182v.303c.242-.243.545-.424.969-.424a1.28 1.28 0 0 1 1.273 1.272v1.697c0 .06-.061.181-.182.181-.061 0-.182-.06-.182-.181v-1.757h.121ZM117.483 161.597c0-.06.061-.121.182-.121.061 0 .182.061.182.121v1.697c0 .545.424.969.969.969.546 0 .97-.424.97-.969v-1.697c0-.06.06-.121.182-.121.06 0 .181.061.181.121v1.697a1.28 1.28 0 0 1-1.272 1.272 1.28 1.28 0 0 1-1.273-1.272v-1.697h-.121ZM125.845 162.749a.957.957 0 0 0-.97-.97.957.957 0 0 0-.969.97v1.696c0 .061-.061.061-.061.061h-.121v-1.697a.957.957 0 0 0-.969-.969.957.957 0 0 0-.97.969v1.697c0 .06 0 .121-.06.121h-.061c-.06 0-.121-.061-.121-.121v-2.909c0-.06.061-.121.121-.121.061 0 .182.061.182.121v.303c.242-.242.545-.424.969-.424.485 0 .909.242 1.091.667.242-.364.667-.667 1.091-.667a1.28 1.28 0 0 1 1.272 1.273v1.696c0 .061-.06.121-.182.121-.06 0-.121-.06-.121-.121v-1.696h-.121ZM127.42 163.112v-2.787c0-.061.061-.121.121-.121.061 0 .182.06.182.121v1.757c.243-.364.727-.606 1.212-.606.848 0 1.515.667 1.515 1.575a1.5 1.5 0 0 1-1.515 1.515c-.485 0-.909-.242-1.212-.606v.424c0 .061-.06.182-.182.182-.06 0-.121-.06-.121-.182v-1.272Zm.303-.061c0 .667.546 1.212 1.212 1.212.667 0 1.212-.545 1.212-1.212 0-.666-.545-1.272-1.212-1.272-.666 0-1.151.545-1.212 1.272ZM131.359 163.051c0-.848.666-1.575 1.515-1.575.787 0 1.454.606 1.514 1.454 0 .061-.06.121-.181.121h-2.545c.06.667.545 1.212 1.212 1.212.424 0 .787-.242.969-.545.061-.061.121-.061.182-.061.06.061.121.122.06.243a1.476 1.476 0 0 1-1.272.727 1.585 1.585 0 0 1-1.454-1.576Zm.363-.242h2.363c-.121-.606-.606-1.03-1.151-1.03-.606 0-1.091.424-1.212 1.03ZM135.297 161.658c0-.061.061-.182.182-.182.061 0 .121.061.121.182v.666s0-.06.061-.06c.242-.364.666-.788 1.212-.788.06 0 .121.061.121.182 0 .06-.061.121-.121.121-.425 0-.667.242-.909.485-.182.303-.303.606-.364.727v1.393c0 .061-.06.182-.121.182s-.182-.06-.182-.182v-2.726Z"/><path fill="#4A56E2" d="M161.957 165.717h-8.482c-1.697 0-3.151-1.393-3.151-3.15v-.303c0-1.697 1.393-3.151 3.151-3.151h8.482c1.697 0 3.151 1.394 3.151 3.151v.303c-.06 1.757-1.454 3.15-3.151 3.15Z" opacity=".5"/><path fill="#4A56E2" d="M164.502 162.446a2.78 2.78 0 0 1-2.787 2.787 2.78 2.78 0 0 1-2.787-2.787 2.78 2.78 0 0 1 2.787-2.788 2.78 2.78 0 0 1 2.787 2.788Z"/><path fill="#24CCA7" d="M152.443 180.986H93.43a6 6 0 0 0-6 6v1.633a6 6 0 0 0 6 6h59.013a6 6 0 0 0 6-6v-1.633a6 6 0 0 0-6-6Z"/><path fill="#fff" d="M93.55 185.228c0-.061.06-.182.181-.182h1.212a1.28 1.28 0 0 1 1.273 1.272c0 .727-.546 1.273-1.273 1.273h-1.09v1.757c0 .06-.061.121-.182.121-.06 0-.182-.061-.182-.121v-4.12h.06Zm1.393 2.06c.546 0 .97-.424.97-.97a.957.957 0 0 0-.97-.969h-1.09v1.939h1.09ZM97.185 186.561c0-.061.06-.121.182-.121.06 0 .121.06.121.121v.666s0-.06.06-.06c.243-.364.667-.788 1.212-.788.061 0 .182.06.182.121s-.06.182-.182.182c-.424 0-.666.242-.908.485-.182.303-.303.606-.364.727v1.393a.13.13 0 0 1-.121.121c-.06 0-.182-.06-.182-.121v-2.726ZM101.124 186.379c.787 0 1.454.727 1.454 1.575 0 .849-.667 1.576-1.454 1.576-.788 0-1.455-.727-1.455-1.576a1.465 1.465 0 0 1 1.455-1.575Zm0 2.787c.605 0 1.151-.545 1.151-1.272 0-.667-.546-1.273-1.151-1.273-.606 0-1.152.546-1.152 1.273 0 .727.485 1.272 1.152 1.272ZM103.547 187.954c0-.848.727-1.515 1.576-1.515.363 0 .727.122.969.364.061.061.061.121 0 .182-.061.06-.121.06-.182 0-.242-.182-.485-.303-.787-.303-.728 0-1.273.545-1.273 1.272a1.28 1.28 0 0 0 1.273 1.273c.302 0 .605-.122.787-.243.061-.06.182-.06.182 0 .061.061.061.182-.061.243a1.681 1.681 0 0 1-.969.303c-.848-.061-1.515-.727-1.515-1.576ZM107.062 187.954c0-.848.666-1.575 1.514-1.575.788 0 1.455.606 1.515 1.454 0 .061-.06.121-.182.121h-2.545c.061.667.546 1.212 1.212 1.212.424 0 .788-.242.97-.545.06-.061.121-.061.182-.061.06.061.121.121.06.243a1.476 1.476 0 0 1-1.272.727 1.585 1.585 0 0 1-1.454-1.576Zm.302-.242h2.364c-.122-.606-.606-1.03-1.152-1.03-.606 0-1.09.424-1.212 1.03ZM110.879 187.954c0-.848.666-1.575 1.515-1.575.787 0 1.454.606 1.514 1.454 0 .061-.06.121-.181.121h-2.545c.06.667.545 1.212 1.212 1.212.424 0 .787-.242.969-.545.061-.061.121-.061.182-.061.06.061.121.121.06.243a1.476 1.476 0 0 1-1.272.727 1.585 1.585 0 0 1-1.454-1.576Zm.363-.242h2.363c-.121-.606-.606-1.03-1.151-1.03-.666 0-1.151.424-1.212 1.03ZM117.423 188.863c-.243.364-.728.606-1.212.606a1.5 1.5 0 0 1-1.515-1.515c0-.848.666-1.575 1.515-1.575.484 0 .909.242 1.212.606v-1.757c0-.061.06-.182.181-.182.061 0 .182.061.182.182v4.12c0 .06-.061.121-.182.121-.06 0-.181-.061-.181-.121v-.485Zm0-.848v-.121c0-.667-.546-1.212-1.212-1.212-.667 0-1.212.545-1.212 1.272 0 .667.545 1.212 1.212 1.212.666 0 1.212-.545 1.212-1.151ZM122.149 186.561c0 .06-.061.181-.182.181h-.424v2.242c0 .182.182.243.242.243.061 0 .182.06.182.181 0 .061-.061.122-.182.122a.543.543 0 0 1-.545-.546v-2.242h-.364c-.181 0-.181-.06-.181-.181 0-.061 0-.182.181-.182h.364v-1.151c0-.061.06-.182.182-.182.06 0 .181.061.181.182v1.151h.425s.121.06.121.182ZM124.815 186.379c.787 0 1.454.727 1.454 1.575 0 .849-.667 1.576-1.454 1.576-.788 0-1.455-.727-1.455-1.576 0-.848.606-1.575 1.455-1.575Zm0 2.787c.606 0 1.151-.545 1.151-1.272 0-.667-.545-1.273-1.151-1.273s-1.152.546-1.152 1.273c0 .727.485 1.272 1.152 1.272ZM129.117 187.954c0-.848.727-1.515 1.575-1.515.364 0 .727.122.97.364.06.061.06.121 0 .182-.061.06-.122.06-.182 0-.243-.182-.485-.303-.788-.303-.727 0-1.272.545-1.272 1.272a1.28 1.28 0 0 0 1.272 1.273c.303 0 .606-.122.788-.243.06-.06.182-.06.182 0 .06.061.06.182-.061.243a1.682 1.682 0 0 1-.97.303c-.787-.061-1.514-.727-1.514-1.576ZM134.146 186.379c.788 0 1.454.727 1.454 1.575 0 .849-.666 1.576-1.454 1.576-.788 0-1.454-.727-1.454-1.576 0-.848.666-1.575 1.454-1.575Zm0 2.787c.606 0 1.151-.545 1.151-1.272 0-.667-.545-1.273-1.151-1.273s-1.151.546-1.151 1.273c0 .727.545 1.272 1.151 1.272ZM138.993 187.651a.957.957 0 0 0-.969-.969.957.957 0 0 0-.97.969v1.697s0 .06-.06.06c0 .061-.061.061-.122.061h-.06c-.061 0-.061-.061-.121-.061V186.561c0-.061.06-.122.121-.122.06 0 .121.061.121.122v.303c.242-.243.545-.425.969-.425a1.28 1.28 0 0 1 1.273 1.273v1.696c0 .061-.061.122-.182.122-.06 0-.121-.061-.121-.122v-1.757h.121ZM142.023 185.228c0 .06-.061.181-.121.181-.243 0-.303.061-.364.122-.061.06-.121.242-.121.484v.303h.424c.061 0 .182.061.182.122 0 .06-.061.181-.182.181h-.424v2.666c0 .061-.061.121-.182.121-.061 0-.182-.06-.182-.121v-2.666h-.424c-.06 0-.182-.06-.182-.181 0-.061.061-.122.182-.122h.424v-.303c0-.303.061-.545.182-.727.121-.182.364-.242.606-.242.121 0 .182.061.182.182ZM142.992 185.531c0-.061.061-.182.182-.182.061 0 .182.06.182.182v.121c0 .06-.061.182-.182.182-.061 0-.182-.061-.182-.182v-.121Zm0 1.03c0-.061.061-.182.182-.182.061 0 .182.061.182.182v2.787c0 .061-.061.121-.182.121-.061 0-.182-.06-.182-.121v-2.787ZM144.749 186.561c0-.061.061-.121.182-.121a.13.13 0 0 1 .121.121v.666s0-.06.061-.06c.242-.364.666-.788 1.212-.788.06 0 .121.06.121.121s-.061.182-.121.182c-.424 0-.667.242-.909.485-.182.303-.303.606-.364.727v1.393a.13.13 0 0 1-.121.121c-.061 0-.182-.06-.182-.121v-2.726ZM151.96 187.651a.957.957 0 0 0-.97-.969.957.957 0 0 0-.969.969v1.697c0 .06-.061.06-.061.06h-.121v-1.696a.958.958 0 0 0-.969-.97.958.958 0 0 0-.97.97v1.696c0 .061 0 .122-.061.122h-.06c-.061 0-.121-.061-.121-.122V186.5a.13.13 0 0 1 .121-.121c.06 0 .182.06.182.121v.303c.242-.242.545-.424.969-.424.485 0 .909.242 1.091.666.242-.363.666-.666 1.09-.666a1.28 1.28 0 0 1 1.273 1.272v1.697c0 .06-.061.121-.182.121-.061 0-.121-.061-.121-.121v-1.697h-.121Z"/><path fill="#F7A9A0" d="M160.867 230.914c1.454.242 40.656-5.393 41.989-6.544.546-.424.061-6.18-.787-13.148v-.243c-.182-1.454-5.151-25.145-5.151-25.145l-26.236 3.696 6.06 24.782.06.424s-14.057 8.846-15.39 10.3c-1.333 1.515-2 5.635-.545 5.878Z"/><path fill="#FFC727" d="M202.856 224.37c-1.333 1.151-40.535 6.847-41.989 6.544-1.455-.243-.788-4.363.545-5.817 1.333-1.454 15.39-10.301 15.39-10.301l-.06-.424-.667-2.847 25.388-3.818c.182 1.03.606 3.09.606 3.333v.242c.848 6.908 1.333 12.664.787 13.088Z"/><path fill="#A6A6A6" d="M160.867 230.914c.727.121 11.391-1.273 21.813-2.848 2.12-.303 4.18-.666 6.18-.969 7.392-1.152 13.512-2.303 14.057-2.727.545-.424.061-6.059-.727-12.845 0-.122 0-.182-.061-.303v-.243l-25.327 3.333.061.424s-14.057 8.846-15.39 10.3c-1.394 1.515-2.061 5.635-.606 5.878Z"/><path fill="#263238" d="M161.109 229.339c6.604-1.091 33.265-4.969 39.869-5.575.061 0 .061.061 0 .061-6.483 1.272-33.204 4.908-39.808 5.635-.182 0-.243-.061-.061-.121ZM173.954 214.857c2.545-.848 5.757-.909 7.998.667.061.06 0 .181-.06.181-2.666-.424-5.15-.606-7.877-.484-.242 0-.242-.303-.061-.364ZM172.197 216.251c2.545-.849 5.756-.909 7.998.666.061.061 0 .182-.06.182-2.666-.424-5.151-.606-7.877-.485-.182 0-.243-.303-.061-.363ZM170.501 217.705c2.545-.848 5.756-.909 7.998.667.06.06 0 .181-.061.181-2.666-.424-5.15-.606-7.877-.484-.181-.061-.242-.303-.06-.364Z"/><path fill="#37474F" d="m172.985 210.01 29.508-4.06s-7.332-50.291-7.089-51.442c.303-1.515 17.571-72.043 17.571-72.043h-24.176s-19.874 65.439-20.661 71.74c-1.333 10.179 4.847 55.805 4.847 55.805Z"/><path fill="#263238" d="M174.318 204.011c5.029-1.03 23.388-3.211 25.388-3.151.06 0 .06.061 0 .061-1.939.545-17.693 2.727-25.388 3.211-.061 0-.061-.121 0-.121ZM207.401 87.857c-.606 1.758-1.091 3.515-1.636 5.211-.546 1.757-1.03 3.514-1.515 5.272-1.03 3.453-2 6.968-2.969 10.421-2 7.029-3.878 14.058-5.756 21.147-.909 3.514-1.818 6.968-2.727 10.482-.909 3.514-1.878 7.029-2.666 10.543-.363 1.697-.606 3.333-.545 5.09.121 1.757.424 3.453.727 5.211.606 3.574 1.151 7.21 1.757 10.785 1.151 7.271 2.424 14.542 3.636 21.813.181.909.302 1.757.484 2.666 0 .06.121.06.121 0-.969-7.211-2.181-14.421-3.332-21.631-.545-3.575-1.151-7.09-1.697-10.665-.303-1.878-.606-3.696-.909-5.574-.242-1.757-.424-3.575-.181-5.332.242-1.757.727-3.454 1.151-5.15.424-1.757.848-3.454 1.333-5.211.909-3.514 1.818-7.029 2.727-10.482 1.817-7.029 3.756-14.058 5.635-21.026l5.816-20.904c.243-.848.485-1.696.727-2.605-.121-.06-.181-.121-.181-.06Z"/><path fill="#F7A9A0" d="M186.134 237.518c1.394.424 41.021-.303 42.475-1.272.545-.364.788-6.12.909-13.149v-.242c0-1.454-.788-25.57-.788-25.57l-25.872.425 1.151 25.387v.424s-15.027 7.09-16.541 8.301c-1.576 1.273-2.727 5.272-1.334 5.696Z"/><path fill="#FFC727" d="M229.577 220.128v3.03c-.06 6.968-.303 12.785-.909 13.148-1.454.97-41.081 1.697-42.474 1.273-1.394-.424-.243-4.423 1.272-5.696 1.515-1.272 16.542-8.301 16.542-8.301v-.424l-.122-2.727c4.545-.121 17.633-.242 25.691-.303Z"/><path fill="#A6A6A6" d="M186.133 237.518c1.394.424 41.021-.303 42.475-1.272.545-.364.787-6.12.909-13.149v-.242l-25.57.182v.424s-15.027 7.089-16.541 8.301c-1.515 1.333-2.666 5.332-1.273 5.756Z"/><path fill="#263238" d="M186.557 235.943c6.665-.303 33.629-.788 40.233-.606.061 0 .061.06 0 .06-6.604.425-33.568.727-40.233.667-.121 0-.121-.121 0-.121ZM201.099 223.218c2.606-.545 5.817-.181 7.877 1.636.061.061 0 .182-.121.182-2.605-.787-5.029-1.272-7.756-1.454-.121-.061-.181-.364 0-.364Z"/><path fill="#263238" d="M199.282 224.37c2.605-.546 5.816-.182 7.876 1.636.061.06 0 .181-.121.181-2.605-.787-5.029-1.272-7.755-1.454-.182-.06-.243-.303 0-.363Z"/><path fill="#263238" d="M197.403 225.521c2.606-.545 5.817-.182 7.877 1.636.061.06 0 .182-.121.182-2.605-.788-5.029-1.273-7.756-1.455-.182 0-.242-.302 0-.363Z"/><path fill="#37474F" d="M189.466 82.465s.545 11.573 3.211 20.722c.182.788.424 1.515.667 2.242 0 0 1.03 0 5.271 2.545l3.514 110.821 28.539-.303s-4.544-58.713-4.544-62.469c.06-6.059-3.272-47.019-2.909-48.049 3.515-10.604-2.302-25.51-2.302-25.51h-31.447Z"/><path fill="#263238" d="M203.099 213.463c8.058-.484 23.63-.606 25.569-.303.061 0 .061.061 0 .061-1.999.363-20.904.727-25.569.363-.061 0-.061-.06 0-.121ZM201.342 167.171a4009.273 4009.273 0 0 0-1.273-38.112c-.303-7.149-.606-14.299-1.03-21.51 0-.242-.424-.242-.363 0 .303 12.785.787 25.509 1.212 38.294l1.272 38.112c.242 7.15.485 14.3.788 21.51 0 .121.181.121.181 0-.121-12.785-.424-25.509-.787-38.294ZM223.639 184.925c-.606-8.301-1.211-16.663-1.878-24.964-.606-8.301-1.212-16.662-1.878-24.964-.303-4.18-.606-8.301-.909-12.481-.182-2.06-.303-4.181-.485-6.241-.182-2.06-.424-4.12-.363-6.181.06-2.241 1.03-4.241 1.575-6.422.485-2.06.666-4.181.666-6.241-.06-4.363-1.03-8.604-1.939-12.846-.06-.242-.424-.12-.363.122.909 3.878 1.757 7.816 1.939 11.815.06 2 0 3.999-.424 5.938-.364 1.878-1.152 3.635-1.576 5.514-.484 1.939-.181 3.878-.06 5.877.182 2.06.303 4.181.424 6.241.303 4.06.606 8.18.909 12.239 1.212 16.603 2.423 33.144 3.756 49.746.728 9.331 1.333 18.662 2.242 27.993 0 .061.121.061.121 0-.484-8.483-1.151-16.844-1.757-25.145ZM217.823 95.007c-.485-.182-1.03-.242-1.515-.364a6.445 6.445 0 0 1-1.515-.545c-.909-.424-1.878-.97-2.666-1.575-.848-.667-1.333-1.515-1.697-2.484-.242-.485-.424-1.03-.605-1.576-.122-.242-.182-.485-.303-.787-.061-.122-.303-.667-.364-.788h.061v-.06c-.061-.061-.061-.061-.122-.061 0 0-.06 0-.06.06-.121.182 0 .364.06.546.061.363.182.666.243 1.03.182.605.303 1.211.485 1.757.363 1.09.848 2.12 1.696 2.847a9.018 9.018 0 0 0 2.969 1.697c.545.182 1.091.364 1.697.485.545.06 1.09.182 1.636.121.06-.121.06-.242 0-.303ZM194.858 101.43c-.06-.97-.121-2-.242-2.97-.182-2.241-.424-4.543-.848-6.785-.061-.182-.303-.121-.243.06l.546 5.272c.182 1.757.363 3.514.424 5.271 0 .546 0 1.454-.667 1.576-.848.181-1.272-.97-1.514-1.576-.546-1.575-.849-3.211-1.091-4.787-.303-1.878-.424-3.756-.606-5.574 0-.06-.121-.06-.121 0 0 3.696.06 7.574 1.393 11.088.243.667.728 1.394 1.515 1.454h.061v.061c0 .121.06.182.06.303 0 .061.061.182.061.242.061.182.061.364.121.546.061.181.243.121.243-.061.06 0 .06-.06.06-.121 0-.364-.121-.727-.242-1.03.424-.061.787-.364.969-.788.303-.727.182-1.515.121-2.181Z"/><path fill="#263238" d="M192.192 104.702c2.848 1.151 5.575 2.666 8.18 4.241.122.061 0 .242-.06.182-2.727-1.333-5.575-2.606-8.241-4.12-.242-.122-.121-.364.121-.303ZM191.889 67.438a26.522 26.522 0 0 0 4.969 3.09c-2.666-4.544-2.303-14.784-1.939-13.33 1.575 6.968 5.938 14.603 7.635 15.027 4.483.606 8.543-.606 11.936-2.545-3.454-5.15-3.333-15.511-3.09-14.905 2.545 6.786 7.816 10.724 8.725 10.724 3.393-3.211 5.15-6.422 4.666-6.786-3.515-2.363-6.484-8.483-9.15-14.966-2.666-6.362-3.999-12.482-7.755-18.177-3.394-5.211-10.24-6.18-14.118-3.515-10.119 7.029-4.06 43.747-1.879 45.383Z"/><path fill="#263238" d="M202.432 22.419c2.787.666 5.151 3.211 6.605 5.635 1.939 3.15 3.272 6.725 4.847 10.119 3.211 6.604 7.21 12.663 12.239 17.995.122.121-.06.303-.181.182-5.453-4.12-9.21-9.998-12.24-16.057-1.575-3.09-2.787-6.362-4.302-9.452-.787-1.697-1.757-3.393-2.969-4.847-1.212-1.394-2.605-2.242-4.18-3.03-.243-.242-.122-.666.181-.545Z"/><path fill="#EBEBEB" d="m238.545 154.326-39.809 7.089-1.454-41.565 28.236-5.09 13.027 39.566Z"/><path fill="#4A56E2" d="m225.518 114.76 2.787 41.384 10.24-1.818-13.027-39.566Z"/><path fill="#263238" d="M205.159 121.486h-1.454v-8.12c.06-4.423 3.756-7.21 7.271-7.392 2.666-.121 5.938 1.273 6.483 5.635.545 4.726.666 6.968.666 7.029l-1.454.06s-.121-2.302-.666-6.968c-.364-3.393-2.788-4.483-4.908-4.362-2.909.182-5.878 2.423-5.938 5.938v8.18Z"/><path fill="#fff" d="M228.79 155.72c.727-.727 1.454-1.394 2.241-2.121.728-.667 1.515-1.333 2.303-2l.121-.06.121.06c.788.364 1.515.788 2.303 1.212.727.424 1.515.849 2.242 1.273-.788-.303-1.576-.667-2.363-.97a82.907 82.907 0 0 1-2.303-1.09h.242c-.787.666-1.575 1.333-2.363 1.938-.908.546-1.696 1.152-2.544 1.758Z"/><path fill="#fff" d="M233.455 151.781c-.666-2.545-1.212-5.089-1.818-7.695-.606-2.545-1.151-5.15-1.696-7.695-.546-2.605-1.091-5.15-1.576-7.756l-.787-3.878c-.243-1.272-.485-2.605-.727-3.877l.908 3.817.909 3.817c.606 2.545 1.152 5.15 1.697 7.695.545 2.606 1.091 5.151 1.575 7.756.546 2.666 1.091 5.211 1.515 7.816Z"/><path fill="#263238" d="M206.371 121.062c.242 1.03-.424 2.06-1.515 2.302-1.03.242-2.06-.424-2.303-1.515-.242-1.03.425-2.06 1.515-2.302 1.03-.243 2.06.424 2.303 1.515ZM219.155 118.274c.243 1.03-.424 2.06-1.514 2.303-1.03.242-2.06-.424-2.303-1.515-.242-1.03.424-2.06 1.515-2.302 1.03-.182 2.121.484 2.302 1.514Z"/><path fill="#FFC727" d="M233.94 166.202h-46.716l6.786-47.564h33.083l6.847 47.564Z"/><path fill="#000" d="m227.093 118.638-5.15 47.564h11.997l-6.847-47.564Z" opacity=".1"/><path fill="#263238" d="m203.341 121.91-1.454-.303c0-.061.848-4.06 1.757-8.059.97-4.362 5.272-6.362 8.846-5.817 2.666.425 5.635 2.545 5.211 7.029-.484 4.787-.848 7.029-.848 7.15l-1.454-.243s.363-2.302.848-7.028c.364-3.454-1.818-5.029-3.938-5.393-2.909-.485-6.362 1.151-7.15 4.666-.97 3.999-1.818 7.937-1.818 7.998Z"/><path fill="#fff" d="M222.549 165.839c.969-.667 1.939-1.334 2.969-1.939.969-.606 1.999-1.212 3.029-1.818l.121-.061.122.121 2.363 1.818a63.13 63.13 0 0 1 2.302 1.879 22.07 22.07 0 0 1-2.484-1.636c-.848-.546-1.636-1.152-2.424-1.697h.243c-1.031.606-2.061 1.151-3.091 1.697a31.331 31.331 0 0 1-3.15 1.636Z"/><path fill="#fff" d="M228.668 162.324c-.181-3.029-.363-6.059-.484-9.088l-.364-9.089c-.06-3.03-.182-6.059-.242-9.089l-.061-4.544c0-1.515-.06-3.03-.06-4.545.121 1.515.181 3.03.302 4.545l.243 4.544.363 9.089c.061 3.029.182 6.059.243 9.089 0 3.029.06 6.059.06 9.088Z"/><path fill="#263238" d="M202.614 123.788a1.999 1.999 0 1 0 0-3.998 1.999 1.999 0 0 0 0 3.998ZM215.944 123.788a2 2 0 1 0 0-4 2 2 0 0 0 0 4Z"/><path fill="#A6A6A6" d="m166.32 32.174 5.635 17.51c.242.486 0 .97-.546.97l-9.149.606c-.485.06-1.091-.363-1.333-.848l-5.635-17.51c-.242-.486 0-.97.545-.97l9.15-.606c.484 0 1.09.363 1.333.848Z"/><path fill="#DBDBDB" d="m165.229 32.234 5.635 17.511c.243.485 0 .97-.545.97l-9.149.606c-.485.06-1.091-.364-1.334-.849l-5.635-17.51c-.242-.485 0-.97.546-.97l9.149-.606c.485-.06 1.091.364 1.333.848Z"/><path fill="#455A64" d="M162.745 33.204c.06.424.424.727.848.727a.85.85 0 0 0 .727-.848.849.849 0 0 0-.848-.727.85.85 0 0 0-.727.848Z"/><path fill="#F7A9A0" d="M197.646 57.259c-4.363 11.451-15.027 26.66-19.814 27.023-2.302.182-6.362 1.03-9.573-1.393-6.968-5.272-13.27-15.875-14.845-22.116-.545-2.181 9.997-7.877 11.755-6.18 4.059 3.999 9.088 12.057 9.755 11.936 2.484-.363 11.512-9.088 17.874-15.269 7.574-7.331 6.544 1.394 4.848 5.999ZM152.263 49.26c.848-4.604 1.757-5.695.363-9.997-.909-2.787.485-4.605 2.666-2.423 3.575 3.514 3.757 9.694 3.212 11.875l-6.241.546Z"/><path fill="#F7A9A0" d="M154.08 62.712s-2.484-6.18-2.12-11.21c.242-3.453 1.696-10.966 11.027-15.571 2.242-1.09 6.12-1.09 3.151 2-2.121 2.18-4.12 2.968-5.09 4.422 0 0 4.969.606 5.999 2.909.424 1.03 1.575 3.817 2.181 6.12 0 0-.485.242-1.09.484 0 0 .727 2.182-.667 5.453l-13.391 5.393Z"/><path fill="#F7A9A0" d="M152.747 48.23c1.333-1.272 4.121-3.938 7.15-5.331 3.393-1.515 10.361-3.575 11.452-1.03.788 1.817-1.757 2.848-1.757 2.848s3.029-.243 3.393 1.575c.363 1.636-1.697 2.302-1.697 2.302s1.879.182 1.879 1.818c0 2-3.939 1.333-5.635 3.333-.364.545-14.785-5.514-14.785-5.514Z"/><path fill="#263238" d="M160.927 46.777c1.394-1.03 5.211-2.424 8.604-2.121.061 0 .121.06.061.06-3.818.425-7.211 1.515-8.665 2.06 0 .061 0 0 0 0ZM162.563 50.17c1.333-.727 5.332-2.06 8.725-1.576.061 0 .121.06.061.06-3.999.243-7.271 1.092-8.786 1.516Z"/><path fill="#FFC727" d="m168.804 58.47-12.663 14.664s10.845 10.603 14.36 11.452c3.514.848 6.18.303 8.664-.364 2.484-.727 14.603-14.784 18.602-26.236 3.999-11.512-.303-12.058-7.089-5.09-6.787 6.968-15.209 13.815-15.633 13.33-.424-.545-6.241-7.755-6.241-7.755Z"/><path fill="#000" d="m168.804 58.47-12.663 14.664s10.845 10.603 14.36 11.452c3.514.848 6.18.303 8.664-.364 2.484-.727 14.603-14.784 18.602-26.236 3.999-11.512-.303-12.058-7.089-5.09-6.787 6.968-15.209 13.815-15.633 13.33-.424-.545-6.241-7.755-6.241-7.755Z" opacity=".1"/><path fill="#263238" d="M171.107 62.53c-.546.485-4.726 5.211-5.696 6.302-.909 1.03-4.544 5.453-5.453 6.544-.061.06 0 .121.06.06.485-.545 1.03-1.03 1.515-1.575.485-.545 3.333-3.757 4.242-4.787.909-1.09 5.029-5.938 5.392-6.483.061-.06 0-.121-.06-.06Z"/><path fill="#FFC727" d="m186.073 77.375-2.364 20.359s33.023-.485 41.203-1.333c0 0-7.817-37.688-16.905-47.019-4.545-4.665-9.695-4.12-12.906-.727-.788.848-10.361 14.36-11.27 19.39-.788 4.543 2.242 9.33 2.242 9.33Z"/><path fill="#263238" d="M184.74 74.103c-.364-1.15-.606-2.363-.606-3.575 0-2.484.727-4.907 1.817-7.089.606-1.272 1.333-2.484 1.939-3.756 0-.06-.06-.06-.06 0-.606.848-1.091 1.757-1.576 2.605 0-.06 0-.06.061-.121.121-.485.303-.97.485-1.454 0-.06-.061-.06-.061-.06-.182.484-.364.908-.545 1.393-.121.303-.182.606-.243.909-.606 1.09-1.09 2.242-1.514 3.453-.788 2.363-.909 4.908-.182 7.332.182.606.485 1.212.727 1.818.303.666.727 1.272 1.091 1.878 0 .06.121 0 .06-.06-.606-.97-1.03-2.121-1.393-3.273Z"/><path fill="#F7A9A0" d="M202.614 48.838c-.242.606-4.12 4.18-6.968 3.514-.97-.242.061-5.393.061-5.393v-.424l-.182-5.574 7.089-2.848 1.03-.364s-.061 1.515-.121 3.454v.546c0 .302 0 .605-.061.848 0 .242 0 .424-.06.666 0 .243-.061.485-.061.667-.182 2.363-.606 4.665-.727 4.908Z"/><path fill="#263238" d="M203.462 41.142c-2.363 3.999-6.12 5.09-7.756 5.392l-.181-5.574 7.089-2.848 1.03-.364c-.061-.06-.061 1.515-.182 3.394Z"/><path fill="#F7A9A0" d="M188.92 32.295c-1.333 9.755 4.363 11.634 6.423 11.937 1.878.242 8.422.909 10.785-8.665 2.363-9.573-1.757-13.27-6.119-14.118-4.302-.787-9.756 1.09-11.089 10.846Z"/><path fill="#263238" d="M191.526 30.296c.242 0 .424 0 .666-.061.242 0 .485 0 .667-.182.121-.06.121-.303.06-.424-.182-.303-.485-.303-.848-.303-.364 0-.606.121-.848.364-.182.181 0 .606.303.606ZM197.948 31.265a2.95 2.95 0 0 1-.666-.242c-.242-.122-.424-.122-.606-.364a.371.371 0 0 1 .061-.424c.242-.242.606-.182.848-.06.303.12.545.242.727.545.242.242-.061.606-.364.545ZM196.312 33.507l.061.06c-.121.667-.182 1.455.424 1.758v.06c-.788-.242-.727-1.272-.485-1.878Z"/><path fill="#263238" d="M197.04 32.962c1.09.12.787 2.241-.182 2.18-1.03-.12-.727-2.302.182-2.18Z"/><path fill="#263238" d="M197.403 33.083c.182.121.303.363.545.424.243.06.485-.121.667-.363h.06c-.06.424-.242.787-.727.848-.424 0-.666-.364-.727-.848.061 0 .121-.122.182-.061ZM192.495 32.901c-.06 0 0 0 0 0-.121.727-.303 1.454-.909 1.636v.06c.727-.06.97-1.03.909-1.696Z"/><path fill="#263238" d="M191.95 32.113c-1.091-.181-1.394 1.94-.424 2.121 1.03.182 1.333-1.939.424-2.12Z"/><path fill="#263238" d="M191.526 32.235c-.182.06-.364.242-.606.242-.243 0-.364-.303-.485-.545h-.061c-.06.424 0 .848.364.97.364.12.667-.183.848-.546.061-.06 0-.182-.06-.121ZM195.464 38.84c-.182.12-.363.363-.606.363-.242 0-.484-.122-.727-.243 0 0-.06 0-.06.06.181.243.484.486.848.425.303 0 .485-.303.545-.545.061-.06 0-.121 0-.06ZM192.98 36.052l-.364 1.454c0 .06.122.06.243.121.787.242 1.696.06 2.242-.545.06-.06 0-.121-.061-.06-.666.363-1.394.423-2.121.302 0-.121.546-1.636.425-1.696-.243-.06-.788.06-1.091.12.485-2.06 1.333-3.998 1.818-6.058 0-.06-.061-.122-.122-.06-1.03 1.999-1.636 4.301-2.241 6.422.06.303 1.09.06 1.272 0Z"/><path fill="#263238" d="M205.28 35.628c-2.424-.182-2.848-7.635-2.848-8.544 0 .606-.06 3.636-.303 3.757-.06 0-.303-.06-.727-.182 0-.363 0-.727-.06-1.09 0-.182-.061.363-.182 1.03a1.123 1.123 0 0 0-.424-.122 7.65 7.65 0 0 0-.122-2.302c-.06-.303-.181 1.03-.484 2.12-1.636-.484-3.999-1.211-6.241-1.332-.606-.061-1.091-.061-1.576-.061.061-.909.182-1.878.122-1.636a6.53 6.53 0 0 0-.425 1.636h-.666c0-1.272.666-3.272.424-2.969-.848 1.151-1.212 2.424-1.333 3.09-.848.121-1.091.303-1.151.06 0-.423.606-3.938 3.454-6.422 3.09-2.727 9.149-3.211 12.36 1.272 0 0 2.727 1.94 3.03 4.848.242 2.969-1.454 6.968-2.848 6.847Z"/><path fill="#F7A9A0" d="M204.492 36.112s2.303-2.968 3.636-2.12c1.333.848-.485 5.21-2.121 5.695-1.636.546-2.181-1.03-2.181-1.03l.666-2.544Z"/><path fill="#263238" d="M207.582 35.264c-1.151.424-1.817 1.454-2.302 2.545.364-.424.848-.606 1.394-.182 0 0 0 .06-.061.06-.485-.12-.788-.06-1.151.304-.243.242-.424.606-.606.909-.061.12-.243.06-.182-.061.061-1.515 1.333-3.514 2.908-3.575Z"/><path fill="#F7A9A0" d="M209.764 49.382c11.33 9.27 20.48 23.449 20.964 27.024.546 3.938-.848 18.298-4.604 25.569-.97 1.939-15.633-6.846-14.664-8.907 1.879-4.06 4.605-15.087 4.242-17.268-.364-2.06-6.12-14.3-10.119-20.722-3.575-5.938-1.091-9.998 4.181-5.696Z"/><path fill="#F7A9A0" d="M200.251 110.519c.969 1.515 2.787 1.03 2.787 1.03s0 1.454.909 2.423c1.091 1.152 3.333-.06 3.333-.06s.303 1.454 1.393 2.424c1.151.969 3.575.121 3.575.121s1.03 1.212 2.545 1.333c2.666.242 5.09-3.03 6.665-5.029 1.575-2.06 4.12-9.331 4.726-10.664l-13.027-10.18s-9.634 7.15-11.149 9.816c-1.212 2.181-2.848 7.089-1.757 8.786Z"/><path fill="#263238" d="M202.856 111.246c.788-2.727 2.303-5.029 3.696-7.453.061-.06.122 0 .061.061-1.394 2.363-2.363 5.029-3.635 7.452-.061.061-.122 0-.122-.06ZM207.158 113.67c.182-.606.606-1.152.909-1.697.364-.545.727-1.151 1.152-1.696.787-1.091 1.575-2.242 2.423-3.272.061-.061.121 0 .061.06-.788 1.091-1.515 2.242-2.242 3.393-.364.546-.727 1.152-1.091 1.757-.303.546-.606 1.152-1.09 1.576-.061.06-.182 0-.122-.121ZM212.309 116.336c.121-.546.606-1.03.909-1.454.363-.485.727-1.031 1.09-1.515.727-1.03 1.454-2 2.121-3.09.061-.061.121 0 .061.06-.667 1.03-1.333 2.121-2.061 3.151-.363.545-.666 1.03-1.03 1.515-.303.484-.606 1.03-1.09 1.333Z"/><path fill="#FFC727" d="M204.311 53.866c2.181 6.18 11.027 20.843 10.967 22.237-.061 1.393-4.363 16.117-4.363 16.117l17.511 10.604s3.878-20.056 2.424-27.024c-1.091-5.332-13.452-20.904-19.45-25.69-5.999-4.727-9.877-4.121-7.089 3.756Z"/><path fill="#000" d="M204.311 53.866c2.181 6.18 11.027 20.843 10.967 22.237-.061 1.393-4.363 16.117-4.363 16.117l17.511 10.604s3.878-20.056 2.424-27.024c-1.091-5.332-13.452-20.904-19.45-25.69-5.999-4.727-9.877-4.121-7.089 3.756Z" opacity=".1"/><path fill="#263238" d="M215.338 75.254c-.182-1.03-.788-2-1.272-2.908-1.091-2.06-2.182-4.12-3.393-6.12-.667-1.09-3.272-5.392-3.999-6.786-.061-.121-.243 0-.182.121.424.849 1.636 3.03 2.545 4.605-.122-.182-.243-.303-.424-.484-.243-.303-.546-.606-.788-.849-.303-.303-.667-.545-.909-.909-.061-.06-.121 0-.061.06.485.667 1.03 1.213 1.576 1.819.242.303.545.606.787.909.182.181.364.424.546.605.06.061.06.122.121.182 1.151 2 2.181 4 3.272 5.999.545.97 1.151 1.939 1.515 2.969.181.484.303.97.303 1.514-.061.607-.243 1.212-.364 1.758-.606 2.181-1.151 4.362-1.757 6.604-.303 1.273-.667 2.545-.97 3.817-.303 1.273-.666 2.545-.848 3.818 0 .06.121.181.182.06.424-1.09.727-2.242 1.03-3.332.303-1.151.667-2.303.969-3.393.606-2.303 1.212-4.605 1.818-6.968.121-.97.485-2 .303-3.09ZM228.244 98.28c-4.726-3.333-9.694-6.423-14.784-9.271-.061 0-.121.06-.061.06 4.726 3.333 9.634 6.484 14.724 9.27.121.122.182 0 .121-.06Z"/><path fill="#FFC727" d="M45.198 187.349h26.72a6.361 6.361 0 0 0 6.363-6.362v-50.049c0-1.818 1.272-6.423 6.786-6.423H51.499a6.361 6.361 0 0 0-6.362 6.362v56.472h.06Z"/><path fill="#000" d="M45.198 187.349h26.72a6.361 6.361 0 0 0 6.363-6.362v-50.049c0-1.818 1.272-6.423 6.786-6.423H51.499a6.361 6.361 0 0 0-6.362 6.362v56.472h.06Z" opacity=".1"/><g fill="#000" opacity=".1"><path d="M74.04 130.938H50.044v1.091h23.994v-1.091ZM74.04 134.028H50.044v1.091h23.994v-1.091ZM74.04 137.118H50.044v1.091h23.994v-1.091ZM74.04 140.208H50.044v1.091h23.994v-1.091ZM74.04 143.299H50.044v1.09h23.994v-1.09ZM74.04 146.389H50.044v1.09h23.994v-1.09ZM74.04 149.479H50.044v1.091h23.994v-1.091ZM74.04 152.569H50.044v1.091h23.994v-1.091ZM74.04 155.72H50.044v1.091h23.994v-1.091ZM74.04 158.81H50.044v1.091h23.994v-1.091ZM74.04 161.9H50.044v1.091h23.994V161.9ZM74.04 164.99H50.044v1.091h23.994v-1.091ZM74.04 168.081H50.044v1.09h23.994v-1.09ZM74.04 171.171H50.044v1.09h23.994v-1.09ZM74.04 174.261H50.044v1.09h23.994v-1.09ZM74.04 177.351H50.044v1.091h23.994v-1.091Z" opacity=".1"/></g><path fill="#FFC727" d="M19.386 166.202v60.41h20.237v.06a6.4 6.4 0 0 0 6.302 6.423h.242c.242 0 .424 0 .667-.06l1.211-.243c.303-.121.606-.242.849-.363.12-.061.303-.122.424-.243.06-.06.121-.06.182-.121l.545-.363.06-.061c.122-.121.243-.182.364-.303l.182-.182a6.42 6.42 0 0 0 1.575-2.605v-.061c.06-.182.06-.303.121-.485.061-.181.061-.424.122-.605V166.142c0-1.818 1.272-6.423 6.786-6.423H25.748c-3.515.121-6.362 2.969-6.362 6.483Z"/><g fill="#000" opacity=".1"><path d="M47.803 163.839H23.81v1.091h23.994v-1.091ZM50.045 160.991H26.051v1.091h23.994v-1.091ZM47.803 166.929H23.81v1.091h23.994v-1.091ZM47.803 170.02H23.81v1.09h23.994v-1.09ZM47.803 173.17H23.81v1.091h23.994v-1.091ZM47.803 176.26H23.81v1.091h23.994v-1.091ZM47.803 179.351H23.81v1.09h23.994v-1.09ZM47.803 182.441H23.81v1.091h23.994v-1.091ZM47.803 185.531H23.81v1.091h23.994v-1.091ZM47.803 188.621H23.81v1.091h23.994v-1.091ZM47.803 191.711H23.81v1.091h23.994v-1.091ZM47.803 194.802H23.81v1.09h23.994v-1.09ZM47.803 197.952H23.81v1.091h23.994v-1.091ZM47.803 201.042H23.81v1.091h23.994v-1.091ZM47.803 204.133H23.81v1.09h23.994v-1.09ZM47.803 207.223H23.81v1.09h23.994v-1.09ZM47.803 210.313H23.81v1.09h23.994v-1.09ZM47.803 213.403H23.81v1.091h23.994v-1.091ZM47.803 216.493H23.81v1.091h23.994v-1.091ZM47.803 220.977H35.806v2.545h11.997v-2.545Z" opacity=".1"/></g><path fill="#FFC727" d="M71.737 187.349h.182c.242 0 .484 0 .727-.061-.243 0-.424.061-.667.061h-.242ZM84.764 124.515c-3.575 0-6.423 2.909-6.423 6.423v12.118h12.846v-12.118c0-3.514-2.909-6.423-6.423-6.423Z"/><path fill="#000" d="M84.764 124.515c-3.575 0-6.423 2.909-6.423 6.423v12.118h12.846v-12.118c0-3.514-2.909-6.423-6.423-6.423Z" opacity=".2"/><path fill="#FFC727" d="M52.469 166.263v21.146h19.147c-3.454-.06-6.302-2.908-6.302-6.423v-14.723c0-3.575-2.908-6.423-6.423-6.423a6.463 6.463 0 0 0-4.544 1.878 6.358 6.358 0 0 0-1.878 4.545Z"/><path fill="#000" d="M52.469 166.263v21.146h19.147c-3.454-.06-6.302-2.908-6.302-6.423v-14.723c0-3.575-2.908-6.423-6.423-6.423a6.463 6.463 0 0 0-4.544 1.878 6.358 6.358 0 0 0-1.878 4.545Z" opacity=".2"/><path fill="#FFC727" d="M9.994 226.612v.06a6.4 6.4 0 0 0 6.302 6.423h29.629c-3.454-.06-6.302-2.908-6.302-6.423v-.06H9.994Z"/><path fill="#000" d="M9.994 226.612v.06a6.4 6.4 0 0 0 6.302 6.423h29.629c-3.454-.06-6.302-2.908-6.302-6.423v-.06H9.994Z" opacity=".2"/></svg>