<svg aria-hidden="true" style="position: absolute; width: 0; height: 0; overflow: hidden;" version="1.1" xmlns="http://www.w3.org/2000/svg" xmlns:xlink="http://www.w3.org/1999/xlink">
<defs>
<symbol id="icon-calendar" viewBox="0 0 32 32">
<path d="M11.2 14.4h-3.2v3.2h3.2v-3.2zM17.6 14.4h-3.2v3.2h3.2v-3.2zM24 14.4h-3.2v3.2h3.2v-3.2zM27.2 3.2h-1.6v-3.2h-3.2v3.2h-12.8v-3.2h-3.2v3.2h-1.6c-1.776 0-3.184 1.44-3.184 3.2l-0.016 22.4c0 1.76 1.424 3.2 3.2 3.2h22.4c1.76 0 3.2-1.44 3.2-3.2v-22.4c0-1.76-1.44-3.2-3.2-3.2zM27.2 28.8h-22.4v-17.6h22.4v17.6z"></path>
</symbol>
<symbol id="icon-close" viewBox="0 0 32 32">
<path fill="currentColor" stroke-linejoin="miter" stroke-linecap="butt" stroke-miterlimit="4" stroke-width="1.7778" d="M1.778 1.778l28.444 28.444"></path>
<path fill="currentColor" stroke-linejoin="miter" stroke-linecap="butt" stroke-miterlimit="4" stroke-width="1.7778" d="M1.778 30.222l28.444-28.444"></path>
</symbol>
<symbol id="icon-currency" viewBox="0 0 32 32">
<path d="M5.053 0c-2.791 0-5.053 2.262-5.053 5.053v21.895c0 2.79 2.262 5.053 5.053 5.053h21.895c2.79 0 5.053-2.262 5.053-5.053v-21.895c0-2.791-2.262-5.053-5.053-5.053h-21.895zM13.265 13.136c0 0.995 0.765 1.635 3.144 2.253s4.925 1.635 4.925 4.61c0 2.148-1.624 3.332-3.667 3.72v2.253h-3.143v-2.274c-2.012-0.43-3.73-1.718-3.856-4.013h2.305c0.115 1.236 0.964 2.2 3.123 2.2 2.316 0 2.829-1.153 2.829-1.876 0-0.974-0.524-1.896-3.143-2.525-2.923-0.702-4.925-1.907-4.925-4.327 0-2.022 1.635-3.342 3.667-3.783v-2.263h3.143v2.295c2.19 0.534 3.29 2.19 3.363 3.992h-2.316c-0.063-1.31-0.754-2.2-2.619-2.2-1.771 0-2.829 0.796-2.829 1.938z"></path>
</symbol>
<symbol id="icon-arrow" viewBox="0 0 20 11">
<path d="M1 1L10 10L19 1" stroke="black" />
</symbol>
<symbol id="icon-exit" viewBox="0 0 32 32">
<path d="M20.051 23.237h2.499v4.997c0 2.067-1.681 3.748-3.748 3.748h-15.054c-2.066 0-3.748-1.681-3.748-3.748v-24.486c0-2.066 1.681-3.748 3.748-3.748h15.054c2.067 0 3.748 1.681 3.748 3.748v4.997h-2.499v-4.997c0-0.689-0.56-1.249-1.249-1.249h-15.054c-0.689 0-1.249 0.561-1.249 1.249v24.486c0 0.689 0.561 1.249 1.249 1.249h15.054c0.689 0 1.249-0.561 1.249-1.249v-4.997zM26.111 10.102l-1.767 1.767 2.873 2.874h-16.161v2.499h16.161l-2.873 2.873 1.767 1.767 5.889-5.889-5.889-5.89z"></path>
</symbol>
<symbol id="icon-home" viewBox="0 0 32 32">
<path d="M3.556 0c-1.964 0-3.556 1.592-3.556 3.556v24.889c0 1.964 1.592 3.556 3.556 3.556h24.889c1.964 0 3.556-1.592 3.556-3.556v-24.889c0-1.964-1.592-3.556-3.556-3.556h-24.889zM13.867 17.987v6.902h-5.333v-9.203h-3.2l10.667-10.353 10.667 10.353h-3.2v9.203h-5.333v-6.902h-4.267z"></path>
</symbol>
<symbol id="icon-lock">
<path d="M14.5 7H13.5V5C13.5 2.24 11.26 0 8.5 0C5.74 0 3.5 2.24 3.5 5V7H2.5C1.4 7 0.5 7.9 0.5 9V19C0.5 20.1 1.4 21 2.5 21H14.5C15.6 21 16.5 20.1 16.5 19V9C16.5 7.9 15.6 7 14.5 7ZM8.5 16C7.4 16 6.5 15.1 6.5 14C6.5 12.9 7.4 12 8.5 12C9.6 12 10.5 12.9 10.5 14C10.5 15.1 9.6 16 8.5 16ZM11.6 7H5.4V5C5.4 3.29 6.79 1.9 8.5 1.9C10.21 1.9 11.6 3.29 11.6 5V7Z" />
</symbol>
<symbol id="icon-mail">
<path d="M18.5 0H2.5C1.4 0 0.51 0.9 0.51 2L0.5 14C0.5 15.1 1.4 16 2.5 16H18.5C19.6 16 20.5 15.1 20.5 14V2C20.5 0.9 19.6 0 18.5 0ZM18.5 4L10.5 9L2.5 4V2L10.5 7L18.5 2V4Z"/>
</symbol>
<symbol id="icon-plus" viewBox="0 0 32 32">
<path fill="none" style="stroke: var(--color5, #fff)" stroke-linejoin="miter" stroke-linecap="butt" stroke-miterlimit="4" stroke-width="3.2" d="M16 0v32"></path>
<path fill="none" style="stroke: var(--color5, #fff)" stroke-linejoin="miter" stroke-linecap="butt" stroke-miterlimit="4" stroke-width="3.2" d="M0 16h32"></path>
</symbol>
<symbol id="icon-statistics" viewBox="0 0 32 32">
<path d="M3.556 0h24.889c1.964 0 3.556 1.592 3.556 3.556v24.889c0 1.964-1.592 3.556-3.556 3.556h-24.889c-1.964 0-3.556-1.592-3.556-3.556v-24.889c0-1.964 1.592-3.556 3.556-3.556zM26.182 13.63c1.244 0 2.263-1.067 2.263-2.37s-1.018-2.37-2.263-2.37c-1.244 0-2.263 1.067-2.263 2.37 0 0.213 0.023 0.415 0.079 0.604l-4.016 4.219c-0.181-0.059-0.385-0.083-0.588-0.083s-0.407 0.024-0.588 0.083l-2.885-3.022c0.057-0.19 0.079-0.403 0.079-0.616 0-1.304-1.018-2.37-2.263-2.37s-2.263 1.067-2.263 2.37c0 0.213 0.023 0.427 0.079 0.616l-5.159 5.393c-0.181-0.059-0.373-0.083-0.577-0.083-1.244 0-2.263 1.067-2.263 2.37s1.018 2.37 2.263 2.37 2.263-1.067 2.263-2.37c0-0.213-0.023-0.415-0.079-0.604l5.147-5.404c0.181 0.059 0.385 0.083 0.588 0.083s0.407-0.024 0.588-0.083l2.885 3.022c-0.057 0.19-0.079 0.403-0.079 0.616 0 1.304 1.018 2.37 2.263 2.37s2.263-1.067 2.263-2.37c0-0.213-0.023-0.427-0.079-0.616l4.027-4.207c0.181 0.059 0.373 0.083 0.577 0.083z"></path>
</symbol>
<symbol id="icon-user">
<path d="M0.5 2V16C0.5 17.1 1.39 18 2.5 18H16.5C17.6 18 18.5 17.1 18.5 16V2C18.5 0.9 17.6 0 16.5 0H2.5C1.39 0 0.5 0.9 0.5 2ZM12.5 6C12.5 7.66 11.16 9 9.5 9C7.84 9 6.5 7.66 6.5 6C6.5 4.34 7.84 3 9.5 3C11.16 3 12.5 4.34 12.5 6ZM3.5 14C3.5 12 7.5 10.9 9.5 10.9C11.5 10.9 15.5 12 15.5 14V15H3.5V14Z"></path>
</symbol>
<symbol id="icon-minus" viewBox="0 0 32 32">
<path stroke-linejoin="miter" stroke-linecap="butt" stroke-miterlimit="4" stroke-width="3.2" d="M0 16h32"></path>
</symbol>
<symbol id="icon-Group" viewBox="0 0 32 32">
<path fill="#24cca7" style="fill: var(--color2, #24cca7)" d="M3.755 7.619l16.211-4.537-0.859-1.779c-0.562-1.157-1.932-1.634-3.060-1.058l-14.513 7.375h2.219z"></path>
<path fill="#24cca7" style="fill: var(--color2, #24cca7)" d="M24.813 3.048c-0.195 0-0.391 0.029-0.586 0.087l-15.012 4.484h18.431l-0.693-2.779c-0.266-1.083-1.163-1.793-2.14-1.793z"></path>
<path fill="#4a56e2" style="fill: var(--color3, #4a56e2)" d="M28.36 8.573h-26.559c-0.568 0-1.074 0.26-1.405 0.67-0.151 0.189-0.266 0.406-0.331 0.645-0.040 0.15-0.065 0.307-0.065 0.467v19.862c0 0.984 0.805 1.783 1.797 1.783h26.559c0.992 0 1.797-0.799 1.797-1.783v-4.973h-10.662c-1.685 0-3.054-1.358-3.054-3.030v-3.964c0-0.82 0.331-1.565 0.866-2.111 0.474-0.485 1.11-0.813 1.822-0.895 0.119-0.014 0.241-0.021 0.363-0.021h10.666v-4.867c0.004-0.984-0.801-1.783-1.793-1.783z"></path>
<path fill="#4a56e2" style="fill: var(--color3, #4a56e2)" d="M31.414 16.926c-0.18-0.164-0.392-0.289-0.629-0.371-0.183-0.061-0.377-0.096-0.582-0.096h-10.712c-0.992 0-1.797 0.799-1.797 1.783v3.968c0 0.984 0.805 1.783 1.797 1.783h10.712c0.205 0 0.399-0.036 0.582-0.096 0.237-0.078 0.449-0.207 0.629-0.371 0.359-0.324 0.586-0.795 0.586-1.316v-3.968c0-0.52-0.226-0.991-0.586-1.316zM23.243 20.581c0 0.492-0.402 0.891-0.898 0.891h-0.596c-0.496 0-0.898-0.399-0.898-0.891v-0.592c0-0.285 0.133-0.538 0.345-0.699 0.155-0.118 0.345-0.193 0.553-0.193h0.596c0.496 0 0.898 0.399 0.898 0.891v0.592z"></path>
</symbol>

<symbol id="icon-Group-56" viewBox="0 0 32 32">
<path fill="#000000" stroke="#000000" style="#000000" stroke-linejoin="miter" stroke-linecap="butt" stroke-miterlimit="4" stroke-width="1.7778" d="M1.778 1.778l28.444 28.444"></path>
<path fill="#000000" stroke="#000000" style="#000000" stroke-linejoin="miter" stroke-linecap="butt" stroke-miterlimit="4" stroke-width="1.7778" d="M1.778 30.222l28.444-28.444"></path>
</symbol>

  <symbol id="lang"  viewBox="0 0 32 32">
    
      <path fill="#828282" d="M0.034,16.668C0.388,25.179,7.403,32,16,32s15.612-6.821,15.966-15.332C31.985,16.615,32,16.56,32,16.5
		c0-0.036-0.013-0.067-0.02-0.1C31.983,16.266,32,16.135,32,16c0-8.822-7.178-16-16-16S0,7.178,0,16c0,0.135,0.017,0.266,0.02,0.4
		C0.013,16.433,0,16.464,0,16.5C0,16.56,0.015,16.615,0.034,16.668z M24.921,22.742c-1.319-0.552-2.735-0.979-4.215-1.271
		c0.158-1.453,0.251-2.962,0.28-4.47h4.98C25.875,19.055,25.51,20.994,24.921,22.742z M26.965,17h3.984
		c-0.186,2.806-1.138,5.403-2.663,7.579c-0.759-0.533-1.577-1.019-2.457-1.44C26.474,21.27,26.871,19.196,26.965,17z M12.389,22.286
		C13.567,22.102,14.776,22,16,22c1.224,0,2.433,0.102,3.61,0.286C18.916,27.621,17.4,31,16,31S13.084,27.621,12.389,22.286z
		 M13.908,30.664c-2.751-0.882-5.078-3.471-6.482-6.984c1.246-0.525,2.586-0.935,3.99-1.217
		C11.875,25.959,12.714,29.005,13.908,30.664z M12.274,10.709C13.491,10.897,14.739,11,16,11c1.261,0,2.509-0.103,3.726-0.291
		C19.898,12.329,20,14.097,20,16h-8C12,14.097,12.102,12.329,12.274,10.709z M19.985,17c-0.028,1.525-0.118,2.961-0.26,4.291
		C18.509,21.103,17.262,21,16,21c-1.262,0-2.509,0.103-3.726,0.291c-0.173-1.626-0.237-3.057-0.26-4.291H19.985z M20.585,22.463
		c1.404,0.282,2.743,0.692,3.99,1.217c-1.404,3.513-3.731,6.102-6.482,6.984C19.286,29.005,20.125,25.959,20.585,22.463z M21,16
		c0-1.836-0.102-3.696-0.294-5.47c1.48-0.292,2.896-0.72,4.215-1.271C25.605,11.288,26,13.574,26,16H21z M20.585,9.537
		c-0.46-3.496-1.298-6.543-2.493-8.201c2.751,0.882,5.078,3.471,6.482,6.984C23.328,8.845,21.989,9.256,20.585,9.537z M19.611,9.714
		C18.433,9.898,17.224,10,16,10s-2.433-0.102-3.611-0.286C13.084,4.379,14.6,1,16,1C17.4,1,18.916,4.379,19.611,9.714z
		 M11.415,9.537c-1.404-0.282-2.743-0.692-3.99-1.217c1.404-3.513,3.731-6.102,6.482-6.984C12.714,2.995,11.875,6.041,11.415,9.537z
		 M11.294,10.53C11.102,12.304,11,14.164,11,16H6c0-2.426,0.395-4.712,1.079-6.742C8.398,9.81,9.814,10.237,11.294,10.53z
		 M11.014,17c0.029,1.508,0.122,3.017,0.28,4.471c-1.48,0.292-2.896,0.72-4.215,1.271C6.49,20.994,6.125,19.055,6.034,17H11.014z
		 M6.17,23.139c-0.88,0.422-1.697,0.907-2.456,1.44C2.189,22.403,1.237,19.807,1.051,17h3.984C5.129,19.196,5.526,21.27,6.17,23.139
		z M4.313,25.38c0.685-0.479,1.417-0.922,2.207-1.305c1.004,2.485,2.449,4.548,4.186,5.943C8.18,29.06,5.977,27.45,4.313,25.38z
		 M21.294,30.017c1.738-1.394,3.182-3.458,4.186-5.943c0.79,0.384,1.522,0.826,2.207,1.305C26.023,27.45,23.82,29.06,21.294,30.017z
		 M27,16c0-2.567-0.428-4.987-1.17-7.139c0.88-0.422,1.698-0.907,2.457-1.44C29.991,9.855,31,12.81,31,16H27z M27.688,6.62
		c-0.685,0.479-1.417,0.921-2.207,1.305c-1.004-2.485-2.449-4.549-4.186-5.943C23.82,2.94,26.023,4.55,27.688,6.62z M10.706,1.983
		C8.968,3.377,7.524,5.441,6.52,7.926C5.729,7.542,4.998,7.099,4.313,6.62C5.977,4.55,8.18,2.94,10.706,1.983z M3.714,7.421
		C4.472,7.954,5.29,8.439,6.17,8.861C5.428,11.013,5,13.433,5,16H1C1,12.81,2.009,9.855,3.714,7.421z"></path>
    
  </symbol>
</defs>
</svg>
